<svg width="21" height="21" viewBox="0 0 15 15" fill="none" xmlns="http://www.w3.org/2000/svg">
<g clip-path="url(#clip0)">
<path d="M15 2.84812C14.4481 3.09312 13.855 3.25812 13.2325 3.3325C13.8681 2.95187 14.3562 2.34875 14.5856 1.63C13.9913 1.9825 13.3325 2.23875 12.6312 2.37687C12.0706 1.77875 11.27 1.405 10.385 1.405C8.39812 1.405 6.93813 3.25875 7.38688 5.18312C4.83 5.055 2.5625 3.83 1.04437 1.96812C0.238125 3.35125 0.62625 5.16062 1.99625 6.07687C1.4925 6.06062 1.0175 5.9225 0.603125 5.69187C0.569375 7.1175 1.59125 8.45125 3.07125 8.74812C2.63812 8.86562 2.16375 8.89312 1.68125 8.80062C2.0725 10.0231 3.20875 10.9125 4.55625 10.9375C3.2625 11.9519 1.6325 12.405 0 12.2125C1.36187 13.0856 2.98 13.595 4.7175 13.595C10.4312 13.595 13.6594 8.76937 13.4644 4.44125C14.0656 4.00687 14.5875 3.465 15 2.84812Z" fill="#FFD124"/>
</g>
<defs>
<clipPath id="clip0">
<rect width="15" height="15" fill="white"/>
</clipPath>
</defs>
</svg>
