<svg width="545" height="409" viewBox="0 0 545 409" fill="none" xmlns="http://www.w3.org/2000/svg">
<path d="M310.269 342.388C306.841 342.426 303.427 341.967 300.132 341.024C291.439 338.407 283.659 331.113 278.808 321.038C274.462 312.012 272.718 302.074 271.042 292.408C271.025 292.321 271.025 292.232 271.043 292.146C271.062 292.06 271.097 291.979 271.149 291.907C271.2 291.836 271.265 291.775 271.34 291.73C271.416 291.685 271.5 291.656 271.587 291.644C271.672 291.629 271.759 291.63 271.844 291.648C271.929 291.666 272.009 291.701 272.08 291.751C272.15 291.8 272.211 291.863 272.257 291.936C272.304 292.009 272.335 292.091 272.35 292.176C274.012 301.719 275.729 311.563 279.994 320.424C284.694 330.172 292.175 337.193 300.513 339.715C306.576 341.529 313.184 341.079 319.425 340.343C332.791 338.761 340.938 334.617 344.358 327.691C344.481 327.418 344.604 327.173 344.685 326.941C342.546 327.541 340.434 328.304 338.363 329.081C336.647 329.709 334.875 330.349 333.104 330.908C324.483 333.615 315.34 334.214 306.44 332.653C302.148 331.89 299.532 329.818 299.437 327.118C299.341 324.419 301.671 322.265 305.827 321.065C317.213 317.754 329.275 317.532 340.775 320.424C344.045 321.242 345.843 322.606 346.225 324.582C346.266 324.799 346.293 325.017 346.307 325.237C346.824 325.114 347.342 325.005 347.874 324.91C353.405 323.928 359.182 324.487 364.769 325.019C372.698 325.782 380.192 326.505 386.95 323.178C387.109 323.103 387.291 323.094 387.457 323.153C387.623 323.211 387.759 323.333 387.836 323.492C387.875 323.569 387.899 323.654 387.905 323.741C387.911 323.828 387.9 323.915 387.872 323.998C387.844 324.08 387.8 324.157 387.742 324.222C387.685 324.287 387.614 324.34 387.536 324.378C380.437 327.854 372.412 327.105 364.646 326.341C359.196 325.809 353.46 325.264 348.105 326.218C347.451 326.327 346.743 326.477 346.157 326.627C345.997 327.231 345.773 327.816 345.489 328.372C341.865 335.734 333.363 340.111 319.534 341.76C316.46 342.153 313.367 342.362 310.269 342.388V342.388ZM324.479 319.702C318.292 319.703 312.137 320.58 306.195 322.306C304.532 322.783 300.663 324.228 300.745 327.05C300.826 329.872 305.282 331.14 306.644 331.317C315.327 332.868 324.255 332.316 332.682 329.709C334.426 329.163 336.183 328.522 337.873 327.909C340.203 327.05 342.573 326.177 345.012 325.537C345.04 325.306 345.04 325.072 345.012 324.841C344.699 323.396 343.214 322.374 340.475 321.678C335.245 320.362 329.872 319.698 324.479 319.702V319.702Z" fill="#E6E7E8"/>
<path d="M470.73 133.743H382.045C378.463 133.743 375.56 136.648 375.56 140.232V330.008C375.56 333.592 378.463 336.498 382.045 336.498H470.73C474.312 336.498 477.216 333.592 477.216 330.008V140.232C477.216 136.648 474.312 133.743 470.73 133.743Z" fill="white"/>
<path d="M470.73 337.152H382.045C380.153 337.149 378.339 336.395 377.001 335.056C375.662 333.717 374.909 331.902 374.906 330.008V140.219C374.909 138.325 375.662 136.51 377.001 135.171C378.339 133.832 380.153 133.079 382.045 133.075H470.73C472.625 133.075 474.442 133.827 475.783 135.167C477.124 136.506 477.88 138.323 477.883 140.219V330.008C477.88 331.904 477.124 333.721 475.783 335.061C474.442 336.4 472.625 337.152 470.73 337.152V337.152ZM382.045 134.397C380.502 134.397 379.022 135.011 377.931 136.102C376.84 137.194 376.227 138.675 376.227 140.219V330.008C376.227 331.552 376.84 333.033 377.931 334.125C379.022 335.217 380.502 335.83 382.045 335.83H470.73C472.273 335.83 473.753 335.217 474.844 334.125C475.935 333.033 476.548 331.552 476.548 330.008V140.219C476.548 138.675 475.935 137.194 474.844 136.102C473.753 135.011 472.273 134.397 470.73 134.397H382.045Z" fill="#231F20"/>
<path d="M471.875 152.08H380.9V308.113H471.875V152.08Z" fill="black"/>
<path d="M435.046 315.707H417.729C415.532 315.707 413.75 317.489 413.75 319.688V326.327C413.75 328.526 415.532 330.308 417.729 330.308H435.046C437.243 330.308 439.025 328.526 439.025 326.327V319.688C439.025 317.489 437.243 315.707 435.046 315.707Z" fill="white"/>
<path d="M435.033 330.963H417.743C416.51 330.963 415.328 330.473 414.457 329.601C413.586 328.729 413.096 327.547 413.096 326.314V319.702C413.096 318.469 413.586 317.286 414.457 316.414C415.328 315.542 416.51 315.053 417.743 315.053H435.033C435.644 315.051 436.25 315.17 436.815 315.403C437.38 315.635 437.894 315.978 438.327 316.41C438.76 316.841 439.103 317.354 439.337 317.919C439.572 318.484 439.692 319.09 439.692 319.702V326.314C439.689 327.548 439.196 328.731 438.323 329.602C437.449 330.473 436.266 330.963 435.033 330.963ZM417.743 316.375C416.861 316.375 416.015 316.726 415.392 317.349C414.768 317.973 414.418 318.819 414.418 319.702V326.314C414.418 327.196 414.768 328.042 415.392 328.666C416.015 329.29 416.861 329.64 417.743 329.64H435.033C435.914 329.64 436.76 329.29 437.383 328.666C438.007 328.042 438.357 327.196 438.357 326.314V319.702C438.357 318.819 438.007 317.973 437.383 317.349C436.76 316.726 435.914 316.375 435.033 316.375H417.743Z" fill="#E6E7E8"/>
<path d="M435.578 143.15H409.69C409.603 143.152 409.517 143.136 409.436 143.104C409.355 143.072 409.281 143.024 409.219 142.963C409.157 142.902 409.107 142.83 409.074 142.749C409.04 142.669 409.023 142.583 409.023 142.496C409.023 142.318 409.093 142.149 409.218 142.023C409.343 141.898 409.513 141.828 409.69 141.828H435.578C435.665 141.828 435.751 141.845 435.831 141.879C435.911 141.912 435.984 141.962 436.045 142.024C436.106 142.086 436.154 142.16 436.186 142.241C436.218 142.322 436.233 142.409 436.232 142.496C436.234 142.582 436.218 142.668 436.186 142.748C436.153 142.828 436.105 142.901 436.044 142.962C435.983 143.024 435.91 143.072 435.83 143.104C435.75 143.136 435.664 143.152 435.578 143.15V143.15Z" fill="#E6E7E8"/>
<path d="M442.676 143.15H439.202C439.028 143.15 438.862 143.081 438.739 142.958C438.617 142.836 438.548 142.669 438.548 142.496C438.548 142.321 438.616 142.153 438.739 142.028C438.861 141.903 439.027 141.831 439.202 141.828H442.676C442.853 141.828 443.023 141.898 443.148 142.023C443.274 142.149 443.344 142.318 443.344 142.496C443.344 142.583 443.327 142.669 443.293 142.749C443.259 142.83 443.21 142.902 443.147 142.963C443.085 143.024 443.012 143.072 442.931 143.104C442.85 143.136 442.763 143.152 442.676 143.15V143.15Z" fill="#E6E7E8"/>
<path d="M460.321 250.117H392.4C391.049 250.117 389.752 249.58 388.797 248.624C387.841 247.667 387.304 246.371 387.304 245.018V211.453C387.302 210.782 387.433 210.118 387.688 209.498C387.944 208.877 388.319 208.314 388.792 207.839C389.265 207.364 389.828 206.987 390.447 206.73C391.066 206.473 391.73 206.341 392.4 206.341H460.266C461.621 206.341 462.921 206.879 463.879 207.838C464.837 208.797 465.376 210.097 465.376 211.453V245.018C465.372 246.362 464.84 247.651 463.894 248.605C462.948 249.56 461.664 250.103 460.321 250.117V250.117ZM392.4 207.677C391.399 207.677 390.439 208.074 389.731 208.783C389.024 209.491 388.626 210.451 388.626 211.453V245.018C388.626 246.02 389.024 246.98 389.731 247.689C390.439 248.397 391.399 248.795 392.4 248.795H460.266C461.267 248.795 462.227 248.397 462.935 247.689C463.643 246.98 464.04 246.02 464.04 245.018V211.453C464.04 210.451 463.643 209.491 462.935 208.783C462.227 208.074 461.267 207.677 460.266 207.677H392.4Z" fill="white"/>
<path d="M388.013 246.259C387.876 246.256 387.743 246.212 387.633 246.131C387.522 246.051 387.439 245.938 387.394 245.809C387.35 245.679 387.346 245.539 387.383 245.408C387.421 245.276 387.498 245.159 387.604 245.073L421.23 218.447C421.361 218.348 421.523 218.3 421.686 218.312C421.85 218.325 422.003 218.397 422.116 218.515L442.186 239.347C442.31 239.472 442.379 239.641 442.379 239.817C442.379 239.993 442.31 240.162 442.186 240.288C442.125 240.349 442.053 240.397 441.973 240.43C441.894 240.463 441.809 240.48 441.723 240.48C441.636 240.48 441.551 240.463 441.472 240.43C441.392 240.397 441.32 240.349 441.259 240.288L421.612 219.837L388.449 246.095C388.329 246.203 388.173 246.261 388.013 246.259V246.259Z" fill="white"/>
<path d="M464.762 239.579C464.669 239.577 464.577 239.556 464.492 239.516C464.407 239.476 464.332 239.418 464.272 239.347L453.127 226.709L440.387 237.356C440.254 237.468 440.081 237.523 439.907 237.507C439.733 237.492 439.573 237.408 439.461 237.275C439.349 237.141 439.294 236.968 439.31 236.794C439.325 236.62 439.409 236.46 439.543 236.347L452.772 225.277C452.895 225.158 453.058 225.091 453.229 225.091C453.399 225.091 453.563 225.158 453.685 225.277L465.253 238.406C465.314 238.467 465.362 238.539 465.395 238.619C465.428 238.698 465.445 238.784 465.445 238.87C465.445 238.956 465.428 239.041 465.395 239.121C465.362 239.2 465.314 239.272 465.253 239.333C465.197 239.41 465.123 239.473 465.037 239.515C464.952 239.558 464.858 239.58 464.762 239.579Z" fill="white"/>
<path d="M441.709 224.132C440.686 224.135 439.686 223.834 438.835 223.267C437.984 222.7 437.32 221.893 436.927 220.949C436.535 220.004 436.431 218.964 436.63 217.96C436.829 216.957 437.321 216.035 438.044 215.311C438.767 214.588 439.688 214.096 440.691 213.897C441.694 213.698 442.734 213.801 443.678 214.194C444.622 214.587 445.428 215.251 445.995 216.103C446.561 216.955 446.862 217.956 446.859 218.979C446.856 220.344 446.312 221.653 445.347 222.619C444.382 223.584 443.074 224.128 441.709 224.132V224.132ZM441.709 215.134C440.948 215.131 440.204 215.354 439.571 215.775C438.937 216.196 438.442 216.796 438.149 217.498C437.857 218.2 437.778 218.974 437.925 219.72C438.072 220.467 438.437 221.153 438.974 221.692C439.51 222.231 440.195 222.599 440.941 222.748C441.686 222.898 442.46 222.822 443.162 222.532C443.865 222.241 444.466 221.749 444.889 221.116C445.312 220.483 445.538 219.74 445.538 218.979C445.538 217.961 445.135 216.985 444.417 216.265C443.699 215.544 442.726 215.138 441.709 215.134V215.134Z" fill="white"/>
<path d="M397.686 282.714H394.021C391.448 282.714 389.362 284.802 389.362 287.377V293.103C389.362 295.678 391.448 297.766 394.021 297.766H397.686C400.26 297.766 402.346 295.678 402.346 293.103V287.377C402.346 284.802 400.26 282.714 397.686 282.714Z" fill="white"/>
<path d="M418.042 282.714H414.377C411.804 282.714 409.717 284.802 409.717 287.377V293.103C409.717 295.678 411.804 297.766 414.377 297.766H418.042C420.616 297.766 422.702 295.678 422.702 293.103V287.377C422.702 284.802 420.616 282.714 418.042 282.714Z" fill="white"/>
<path d="M438.398 282.714H434.733C432.159 282.714 430.073 284.802 430.073 287.377V293.103C430.073 295.678 432.159 297.766 434.733 297.766H438.398C440.972 297.766 443.058 295.678 443.058 293.103V287.377C443.058 284.802 440.972 282.714 438.398 282.714Z" fill="white"/>
<path d="M458.754 282.714H455.089C452.515 282.714 450.429 284.802 450.429 287.377V293.103C450.429 295.678 452.515 297.766 455.089 297.766H458.754C461.327 297.766 463.414 295.678 463.414 293.103V287.377C463.414 284.802 461.327 282.714 458.754 282.714Z" fill="white"/>
<path d="M463.795 165.086H388.98C388.893 165.088 388.807 165.072 388.726 165.04C388.645 165.008 388.571 164.96 388.509 164.899C388.447 164.838 388.397 164.766 388.364 164.685C388.33 164.605 388.312 164.519 388.313 164.432C388.313 164.254 388.383 164.085 388.508 163.959C388.633 163.834 388.803 163.764 388.98 163.764H463.795C463.972 163.764 464.142 163.834 464.267 163.959C464.392 164.085 464.463 164.254 464.463 164.432C464.463 164.519 464.445 164.605 464.412 164.685C464.378 164.766 464.328 164.838 464.266 164.899C464.204 164.96 464.13 165.008 464.049 165.04C463.969 165.072 463.882 165.088 463.795 165.086V165.086Z" fill="white"/>
<path d="M463.795 175.638H388.98C388.799 175.638 388.626 175.566 388.498 175.439C388.371 175.311 388.299 175.137 388.299 174.957C388.299 174.776 388.371 174.602 388.498 174.475C388.626 174.347 388.799 174.275 388.98 174.275H463.795C463.976 174.275 464.149 174.347 464.277 174.475C464.404 174.602 464.476 174.776 464.476 174.957C464.476 175.137 464.404 175.311 464.277 175.439C464.149 175.566 463.976 175.638 463.795 175.638Z" fill="white"/>
<path d="M463.795 186.19H388.98C388.803 186.19 388.633 186.12 388.508 185.995C388.383 185.869 388.313 185.7 388.313 185.522C388.312 185.435 388.33 185.349 388.364 185.269C388.397 185.188 388.447 185.116 388.509 185.055C388.571 184.994 388.645 184.946 388.726 184.914C388.807 184.882 388.893 184.866 388.98 184.868H463.795C463.882 184.866 463.969 184.882 464.049 184.914C464.13 184.946 464.204 184.994 464.266 185.055C464.328 185.116 464.378 185.188 464.412 185.269C464.445 185.349 464.463 185.435 464.463 185.522C464.463 185.7 464.392 185.869 464.267 185.995C464.142 186.12 463.972 186.19 463.795 186.19Z" fill="white"/>
<path d="M463.795 196.743H388.98C388.799 196.743 388.626 196.671 388.498 196.543C388.371 196.415 388.299 196.242 388.299 196.061C388.299 195.88 388.371 195.707 388.498 195.579C388.626 195.451 388.799 195.379 388.98 195.379H463.795C463.976 195.379 464.149 195.451 464.277 195.579C464.404 195.707 464.476 195.88 464.476 196.061C464.476 196.242 464.404 196.415 464.277 196.543C464.149 196.671 463.976 196.743 463.795 196.743Z" fill="white"/>
<path d="M463.795 262.101H388.98C388.799 262.101 388.626 262.029 388.498 261.901C388.371 261.773 388.299 261.6 388.299 261.419C388.299 261.238 388.371 261.065 388.498 260.937C388.626 260.809 388.799 260.737 388.98 260.737H463.795C463.976 260.737 464.149 260.809 464.277 260.937C464.404 261.065 464.476 261.238 464.476 261.419C464.476 261.6 464.404 261.773 464.277 261.901C464.149 262.029 463.976 262.101 463.795 262.101Z" fill="white"/>
<path d="M463.795 272.667H388.98C388.893 272.668 388.807 272.653 388.726 272.621C388.645 272.589 388.571 272.541 388.509 272.48C388.447 272.419 388.397 272.346 388.364 272.266C388.33 272.186 388.312 272.099 388.313 272.012C388.313 271.835 388.383 271.665 388.508 271.54C388.633 271.415 388.803 271.344 388.98 271.344H463.795C463.972 271.344 464.142 271.415 464.267 271.54C464.392 271.665 464.463 271.835 464.463 272.012C464.463 272.099 464.445 272.186 464.412 272.266C464.378 272.346 464.328 272.419 464.266 272.48C464.204 272.541 464.13 272.589 464.049 272.621C463.969 272.653 463.882 272.668 463.795 272.667Z" fill="white"/>
<path d="M449.857 62.5088C449.857 62.5088 451.533 55.365 449.979 51.3022C449.522 50.1565 448.714 49.1849 447.672 48.5262C446.629 47.8675 445.405 47.5555 444.175 47.6349C444.175 47.6349 432.893 45.1263 429.637 42.1815L431.109 47.3895C429.146 47.2515 427.229 46.728 425.468 45.8489C425.24 46.7392 425.256 47.6742 425.512 48.5566C425.769 49.439 426.257 50.2365 426.926 50.866C426.113 51.2554 425.224 51.4576 424.323 51.4576C423.423 51.4576 422.533 51.2554 421.721 50.866C421.721 50.866 424.814 58.4597 432.008 57.6826C436.695 56.9873 444.993 64.0767 449.857 62.5088Z" fill="white"/>
<path d="M448.263 63.4086C445.687 63.4086 442.676 62.0453 439.733 60.682C436.79 59.3186 434.024 57.9553 432.049 58.2416C424.432 59.1278 421.149 51.1659 421.067 51.0841C421.018 50.9556 421.01 50.8152 421.044 50.682C421.078 50.5488 421.152 50.4293 421.257 50.3399C421.361 50.2504 421.49 50.1953 421.627 50.1821C421.764 50.1689 421.901 50.1983 422.021 50.2661C423.154 50.8583 424.474 50.9854 425.7 50.6206C425.202 49.9169 424.863 49.1138 424.706 48.2666C424.548 47.4194 424.576 46.5481 424.787 45.7126C424.809 45.6193 424.852 45.5326 424.914 45.4592C424.975 45.3858 425.053 45.3278 425.141 45.2899C425.229 45.2528 425.324 45.2337 425.42 45.2337C425.516 45.2337 425.611 45.2528 425.7 45.2899C427.121 45.9443 428.624 46.4029 430.169 46.6533L428.956 42.3724C428.918 42.2332 428.926 42.0856 428.977 41.9509C429.028 41.8161 429.121 41.7012 429.242 41.6226C429.364 41.5475 429.508 41.5149 429.651 41.5296C429.794 41.5444 429.928 41.6058 430.032 41.7044C432.975 44.431 443.099 46.7351 444.189 46.9941C445.552 46.9048 446.909 47.2534 448.06 47.9891C449.212 48.7247 450.099 49.809 450.592 51.0841C452.214 55.2832 450.592 62.3725 450.497 62.6724C450.476 62.7825 450.425 62.8848 450.351 62.9687C450.277 63.0526 450.181 63.1151 450.075 63.1496C449.488 63.3327 448.877 63.4201 448.263 63.4086V63.4086ZM432.512 56.8374C434.747 56.8374 437.444 58.1053 440.292 59.4277C443.548 60.9546 446.914 62.5225 449.298 61.9771C449.611 60.4775 450.661 54.8469 449.366 51.5476C448.958 50.5236 448.236 49.656 447.302 49.0702C446.369 48.4845 445.274 48.211 444.175 48.2893H443.971C443.562 48.1938 435.073 46.2988 430.713 43.7766L431.681 47.1986C431.708 47.2982 431.713 47.4027 431.694 47.5043C431.675 47.6058 431.633 47.7018 431.572 47.7848C431.509 47.8659 431.429 47.9315 431.336 47.9764C431.244 48.0213 431.143 48.0444 431.04 48.0439C429.271 47.9385 427.536 47.5136 425.918 46.7896C425.839 47.4488 425.922 48.1173 426.159 48.7372C426.397 49.3572 426.781 49.91 427.28 50.3479C427.362 50.4205 427.426 50.5114 427.466 50.6132C427.506 50.7151 427.522 50.8251 427.512 50.9341C427.501 51.045 427.461 51.1512 427.396 51.242C427.332 51.3329 427.245 51.4053 427.144 51.4522C425.864 52.0292 424.443 52.2188 423.056 51.9975C424.31 54.0425 427.144 57.4509 431.899 56.8919C432.102 56.8597 432.307 56.8415 432.512 56.8374V56.8374Z" fill="#231F20"/>
<path d="M459.381 122.291C459.381 122.291 469.218 100.764 468.019 86.6535C466.82 72.543 457.582 71.6568 454.394 71.4796C451.206 71.3023 434.215 69.0119 428.016 76.6057C421.816 84.1995 423.424 120.778 423.424 120.778L459.381 122.291Z" fill="black"/>
<path d="M422.702 113.538C415.467 116.85 408.556 120.83 402.06 125.427C396.31 129.326 393.054 170.485 393.054 170.485C393.054 170.485 394.239 177.097 401.883 176.061L422.007 130.212C422.007 130.212 429.187 113.361 422.702 113.538Z" fill="#231F20"/>
<path d="M400.316 176.797C398.476 176.844 396.677 176.245 395.231 175.105C393.786 173.965 392.784 172.354 392.4 170.553C392.393 170.499 392.393 170.444 392.4 170.389C392.741 166.136 395.861 128.808 401.692 124.84C408.237 120.236 415.192 116.248 422.47 112.925C422.546 112.905 422.626 112.905 422.702 112.925C423.212 112.886 423.722 112.982 424.184 113.202C424.645 113.422 425.041 113.759 425.332 114.179C427.88 117.928 423.179 129.176 422.607 130.539L402.482 176.402C402.436 176.505 402.364 176.594 402.274 176.661C402.183 176.728 402.077 176.77 401.965 176.783C401.416 176.825 400.865 176.83 400.316 176.797ZM393.763 170.417C393.912 171.126 395.22 176.074 401.474 175.42L421.449 129.926C422.811 126.654 426.081 117.547 424.269 114.929C424.118 114.709 423.914 114.531 423.676 114.411C423.438 114.292 423.173 114.236 422.906 114.247C415.761 117.555 408.922 121.487 402.469 125.999C397.945 128.985 394.635 158.965 393.763 170.417Z" fill="#231F20"/>
<path d="M460.184 117.765C460.184 117.765 431.286 118.596 424.487 117.601C424.487 117.601 424.105 117.683 419.119 126.872C414.132 136.061 421.299 178.065 421.299 178.065C421.299 178.065 427.866 185.018 433.057 184.023L439.202 136.129C439.202 136.129 449.68 136.442 455.552 132.271C459.585 129.339 459.408 123.082 460.184 117.765Z" fill="#231F20"/>
<path d="M431.994 184.786C426.789 184.786 421.094 178.788 420.808 178.515C420.719 178.421 420.662 178.302 420.645 178.174C420.345 176.456 413.491 135.911 418.533 126.558C423.574 117.206 423.983 117.015 424.351 117.015H424.582C431.245 118.01 459.885 117.192 460.171 117.178C460.268 117.172 460.366 117.189 460.457 117.227C460.547 117.264 460.628 117.322 460.692 117.396C460.756 117.47 460.803 117.557 460.829 117.652C460.854 117.747 460.857 117.846 460.838 117.942C460.702 118.924 460.579 119.946 460.47 120.969C459.966 125.577 459.449 130.335 455.879 132.898C450.701 136.606 442.145 136.879 439.788 136.879L433.711 184.05C433.694 184.189 433.633 184.319 433.538 184.422C433.442 184.525 433.317 184.595 433.18 184.623C432.79 184.712 432.393 184.767 431.994 184.786ZM421.912 177.751C422.825 178.678 428.152 183.832 432.457 183.437L438.548 136.047C438.565 135.882 438.646 135.73 438.773 135.623C438.9 135.516 439.064 135.463 439.229 135.474C439.338 135.474 449.543 135.72 455.116 131.739C458.195 129.517 458.686 125.059 459.203 120.737C459.285 119.973 459.367 119.196 459.462 118.446C454.802 118.569 431.572 119.142 424.814 118.296C424.419 118.869 423.206 120.791 419.732 127.185C415.045 135.761 421.38 174.575 421.912 177.751Z" fill="#231F20"/>
<path d="M428.002 76.6057C428.002 76.6057 423.424 85.4265 420.726 89.9527C418.146 93.8362 415.282 97.5228 412.156 100.982C412.156 100.982 391.378 108.371 391.256 108.767C391.133 109.162 393.218 116.156 393.218 116.156C393.218 116.156 415.018 114.588 418.615 112.884C422.212 111.18 429.514 102.795 429.514 102.795L428.002 76.6057Z" fill="#4A4A4A"/>
<path d="M436.463 71.8749L437.703 79.4005C438.478 80.5176 439.633 81.3138 440.952 81.6401C442.271 81.9663 443.664 81.8002 444.87 81.1729C449.625 79.0733 449.625 75.4741 449.625 75.4741L447.091 61.5681C447.091 61.5681 442.704 59.864 440.428 51.3022C440.428 51.3022 429.528 52.1339 430.278 56.2102C430.278 56.2102 430.141 63.8858 431.299 67.6213C431.715 68.7192 432.41 69.6893 433.316 70.4354C434.222 71.1815 435.307 71.6778 436.463 71.8749V71.8749Z" fill="#EFD3C3"/>
<path d="M442.199 82.4544C441.203 82.4229 440.228 82.1602 439.351 81.687C438.474 81.2138 437.718 80.5431 437.144 79.7277C437.101 79.651 437.069 79.5683 437.049 79.4823L435.877 72.3794C434.681 72.1402 433.569 71.5914 432.65 70.7876C431.732 69.9838 431.041 68.9532 430.645 67.7986C429.46 63.9949 429.583 56.4829 429.583 56.1693C429.531 55.7948 429.557 55.4135 429.66 55.0497C429.764 54.6859 429.941 54.3475 430.182 54.0562C432.321 51.3295 439.529 50.6751 440.346 50.6206C440.501 50.6088 440.655 50.6513 440.782 50.7409C440.909 50.8305 441.001 50.9615 441.041 51.1114C443.18 59.1687 447.268 60.9137 447.309 60.9274C447.413 60.9674 447.505 61.0335 447.577 61.1195C447.649 61.2054 447.697 61.3082 447.718 61.4182L450.252 75.3242C450.252 75.6105 450.252 79.5369 445.142 81.7591C444.22 82.1934 443.218 82.4302 442.199 82.4544ZM438.33 79.1415C439.031 80.0938 440.052 80.7623 441.205 81.025C442.358 81.2878 443.566 81.1274 444.611 80.573C448.835 78.7189 448.944 75.5968 448.944 75.4605L446.478 62.018C445.36 61.4318 441.927 59.0732 439.91 52.0112C437.54 52.2566 432.621 53.1018 431.218 54.9014C431.081 55.0635 430.982 55.254 430.928 55.4592C430.873 55.6643 430.865 55.8789 430.904 56.0875C430.904 56.292 430.795 63.8313 431.912 67.4305C432.272 68.4125 432.887 69.2805 433.694 69.9446C434.502 70.6086 435.472 71.0444 436.504 71.2069L436.777 71.2887C436.865 71.3386 436.941 71.4072 437 71.4896C437.059 71.572 437.099 71.6663 437.117 71.7659L438.33 79.1415Z" fill="#231F20"/>
<path d="M444.175 61.8408C444.228 61.1366 444.505 60.4678 444.965 59.9321C445.416 59.4505 445.946 59.0494 446.532 58.746C446.838 58.552 447.182 58.4264 447.54 58.3779C447.797 58.3757 448.051 58.4219 448.29 58.5143C448.848 58.6886 449.329 59.0496 449.652 59.5368C449.865 59.9594 449.972 60.4271 449.966 60.9001C450.004 61.4252 449.967 61.9532 449.857 62.4679C449.739 62.9794 449.52 63.4622 449.214 63.8882C448.907 64.3142 448.519 64.6749 448.072 64.9492C447.167 65.4909 446.088 65.6618 445.061 65.4264" fill="white"/>
<path d="M445.987 66.2444C445.62 66.2401 445.254 66.1944 444.897 66.108C444.726 66.066 444.578 65.9579 444.486 65.8071C444.394 65.6564 444.366 65.4754 444.407 65.3037C444.427 65.219 444.465 65.1394 444.516 65.0694C444.568 64.9994 444.633 64.9404 444.708 64.896C444.783 64.8515 444.866 64.8225 444.952 64.8106C445.039 64.7986 445.126 64.8041 445.211 64.8265C446.07 65.0207 446.972 64.8793 447.731 64.4311C448.477 63.9608 449.011 63.2171 449.216 62.3589C449.306 61.9104 449.338 61.4522 449.312 60.9955C449.324 60.6186 449.244 60.2443 449.08 59.9049C448.829 59.5398 448.457 59.2745 448.031 59.155C447.872 59.1044 447.707 59.0724 447.54 59.0596C447.281 59.107 447.035 59.2093 446.818 59.3595C446.309 59.6194 445.848 59.9653 445.456 60.382C445.083 60.8074 444.863 61.3445 444.829 61.909C444.815 62.085 444.733 62.2487 444.601 62.3656C444.469 62.4826 444.297 62.5437 444.12 62.5361C444.033 62.531 443.948 62.5084 443.87 62.4697C443.791 62.4311 443.722 62.3771 443.664 62.3111C443.607 62.245 443.564 62.1681 443.537 62.085C443.51 62.0019 443.5 61.9142 443.507 61.8272C443.567 60.9784 443.896 60.1709 444.448 59.5231C444.943 58.9679 445.533 58.5061 446.192 58.1598C446.605 57.9038 447.071 57.7453 447.554 57.6963C447.898 57.6954 448.239 57.7554 448.562 57.8735C449.297 58.0942 449.923 58.5801 450.32 59.2368C450.593 59.7631 450.733 60.3481 450.729 60.941C450.763 61.5255 450.722 62.1121 450.606 62.6861C450.364 63.7053 449.786 64.6134 448.966 65.2638C448.145 65.9143 447.129 66.2693 446.082 66.2716L445.987 66.2444Z" fill="#231F20"/>
<path d="M437.281 59.8231C437.281 59.8231 435.237 64.0767 435.918 64.6629C436.599 65.2491 438.303 64.5538 438.303 64.5538" fill="white"/>
<path d="M436.79 65.5491C436.341 65.5716 435.897 65.4366 435.537 65.1673C435.251 64.9356 434.42 64.2539 436.695 59.5368C436.771 59.3817 436.905 59.2624 437.068 59.204C437.23 59.1455 437.409 59.1524 437.567 59.2232C437.647 59.2597 437.718 59.3119 437.777 59.3766C437.836 59.4413 437.882 59.5172 437.911 59.5999C437.94 59.6825 437.953 59.7702 437.947 59.8578C437.942 59.9453 437.919 60.0308 437.88 60.1094C437.218 61.3942 436.758 62.7739 436.518 64.1994C437.067 64.2653 437.624 64.1756 438.125 63.9403C438.288 63.8758 438.47 63.8766 438.633 63.9427C438.795 64.0087 438.926 64.1348 438.998 64.2948C439.031 64.3762 439.048 64.4635 439.047 64.5514C439.047 64.6394 439.029 64.7265 438.995 64.8076C438.961 64.8886 438.911 64.9621 438.848 65.0239C438.785 65.0856 438.711 65.1344 438.63 65.1673C438.044 65.4043 437.421 65.5336 436.79 65.5491V65.5491Z" fill="#231F20"/>
<path d="M440.643 59.6463C441.003 59.6098 441.253 59.1733 441.202 58.6715C441.151 58.1696 440.818 57.7923 440.459 57.8288C440.099 57.8654 439.849 58.3018 439.9 58.8037C439.951 59.3056 440.284 59.6829 440.643 59.6463Z" fill="#231F20"/>
<path d="M435.126 60.619C435.486 60.585 435.739 60.1503 435.692 59.648C435.644 59.1458 435.314 58.7662 434.955 58.8002C434.595 58.8342 434.342 59.269 434.389 59.7712C434.437 60.2734 434.767 60.653 435.126 60.619Z" fill="#231F20"/>
<path d="M437.88 68.8892C436.632 68.8628 435.399 68.6087 434.242 68.1394C434.162 68.1054 434.089 68.0556 434.029 67.993C433.968 67.9304 433.92 67.8563 433.888 67.775C433.857 67.6936 433.841 67.6068 433.844 67.5195C433.846 67.4323 433.866 67.3464 433.902 67.2669C433.976 67.1093 434.108 66.9862 434.27 66.9228C434.432 66.8595 434.612 66.8606 434.774 66.926C434.774 66.926 437.867 68.2894 439.951 67.1033C440.497 66.7488 440.953 66.2726 441.284 65.712C441.615 65.1514 441.812 64.5216 441.859 63.8722C441.888 63.6914 441.987 63.5295 442.135 63.4221C442.284 63.3147 442.468 63.2706 442.649 63.2996C442.83 63.3285 442.991 63.4281 443.099 63.5763C443.206 63.7246 443.25 63.9095 443.221 64.0903C443.146 64.9398 442.872 65.7597 442.423 66.4843C441.973 67.2088 441.36 67.8177 440.632 68.2621C439.786 68.7094 438.837 68.9257 437.88 68.8892V68.8892Z" fill="#231F20"/>
<path d="M436.463 71.8749C436.463 71.8749 441.314 72.1749 443.821 70.1435C443.821 70.1435 441.804 76.9602 437.322 76.9602L436.463 71.8749Z" fill="#231F20"/>
<path d="M437.363 77.71C437.206 77.7113 437.054 77.6551 436.936 77.5521C436.818 77.4491 436.742 77.3064 436.722 77.151L435.864 71.9976C435.845 71.8982 435.85 71.7957 435.878 71.6985C435.907 71.6013 435.958 71.5123 436.027 71.4387C436.093 71.3643 436.176 71.3059 436.268 71.2681C436.36 71.2303 436.459 71.214 436.559 71.2205C436.559 71.2205 441.191 71.4796 443.453 69.6391C443.564 69.554 443.699 69.506 443.839 69.5018C443.979 69.4977 444.116 69.5376 444.232 69.616C444.348 69.6943 444.437 69.8071 444.485 69.9385C444.533 70.0698 444.539 70.2131 444.502 70.348C444.42 70.6343 442.308 77.6282 437.376 77.71H437.363ZM437.363 72.5702L437.989 76.333C440.306 75.9377 441.845 73.4019 442.649 71.6568C440.916 72.2831 439.083 72.5881 437.24 72.5566L437.363 72.5702Z" fill="#231F20"/>
<path d="M463.414 74.9833C467.297 75.665 483.006 112.011 477.624 116.156C469.231 122.632 440.019 116.156 440.019 116.156L442.404 104.881C442.404 104.881 461.179 105.413 461.479 101.555C461.779 97.6965 450.579 79.8368 452.023 77.1647C453.467 74.4925 463.414 74.9833 463.414 74.9833Z" fill="#4A4A4A"/>
<path d="M444.42 108.535C441.302 108.734 438.172 108.583 435.087 108.085C432.804 107.53 430.461 107.26 428.111 107.281C425.015 107.428 421.97 108.125 419.119 109.339C418.997 109.378 418.889 109.448 418.805 109.544C418.533 109.926 419.187 110.307 419.664 110.321C420.901 110.345 422.136 110.189 423.329 109.857C420.377 110.949 417.585 112.435 415.031 114.275C414.731 114.479 414.418 114.806 414.554 115.134C414.691 115.461 415.29 115.406 415.671 115.229L422.375 112.161C420.636 112.859 419.025 113.84 417.606 115.065C417.415 115.243 417.184 115.474 417.252 115.733C417.32 115.992 418.015 116.101 418.437 115.897C420.479 114.875 422.43 113.68 424.269 112.325L420.181 115.515C420.181 115.842 420.495 116.129 420.835 116.142C421.177 116.121 421.506 116.008 421.789 115.815L426.408 113.089L423.533 115.106C423.07 115.42 422.552 115.938 422.784 116.47C423.015 117.001 423.928 116.879 424.528 116.62C426.897 115.592 429.374 114.832 431.913 114.356C432.797 114.068 433.711 113.88 434.638 113.797C436.065 113.986 437.473 114.296 438.848 114.725C440.946 115.188 443.031 115.665 445.115 116.088" fill="white"/>
<path d="M423.451 117.492C423.252 117.496 423.053 117.464 422.865 117.397C422.711 117.34 422.57 117.253 422.451 117.141C422.332 117.028 422.236 116.893 422.171 116.742C422.111 116.609 422.078 116.465 422.075 116.32C421.7 116.584 421.254 116.732 420.794 116.742C420.609 116.733 420.428 116.686 420.262 116.604C420.095 116.521 419.947 116.406 419.827 116.265C419.751 116.174 419.687 116.073 419.636 115.965C419.35 116.129 419.05 116.279 418.751 116.429C418.524 116.554 418.272 116.629 418.013 116.647C417.755 116.666 417.495 116.629 417.252 116.538C417.113 116.473 416.992 116.376 416.897 116.255C416.802 116.134 416.737 115.993 416.707 115.842C416.68 115.707 416.68 115.568 416.707 115.433L415.971 115.774C415.552 115.995 415.063 116.044 414.609 115.911C414.481 115.864 414.364 115.792 414.265 115.698C414.167 115.604 414.089 115.491 414.037 115.365C413.914 115.106 413.764 114.438 414.704 113.77C416.207 112.685 417.793 111.719 419.446 110.88C419.204 110.853 418.972 110.771 418.767 110.641C418.562 110.511 418.388 110.337 418.26 110.13C418.186 109.979 418.154 109.81 418.168 109.642C418.183 109.473 418.243 109.312 418.342 109.176C418.486 108.99 418.68 108.848 418.901 108.767C421.821 107.523 424.94 106.812 428.111 106.667C430.215 106.618 432.317 106.837 434.365 107.322L435.223 107.472C438.267 107.962 441.357 108.113 444.434 107.921V107.921C444.592 107.921 444.744 107.982 444.858 108.091C444.972 108.201 445.04 108.35 445.047 108.508C445.047 108.667 444.987 108.821 444.878 108.937C444.769 109.054 444.62 109.124 444.461 109.135C441.297 109.32 438.122 109.165 434.992 108.671L434.12 108.508C432.164 108.049 430.16 107.834 428.152 107.867C425.286 108.012 422.464 108.629 419.8 109.694C420.942 109.718 422.081 109.571 423.179 109.258C423.331 109.207 423.496 109.219 423.639 109.29C423.782 109.362 423.891 109.487 423.942 109.639C423.992 109.791 423.981 109.957 423.909 110.1C423.838 110.243 423.712 110.352 423.56 110.403C420.724 111.449 418.035 112.861 415.562 114.602L420.563 112.311C421.081 112.052 421.598 111.807 422.13 111.602C422.276 111.539 422.442 111.537 422.59 111.595C422.738 111.654 422.857 111.77 422.92 111.916C422.983 112.062 422.986 112.228 422.927 112.376C422.868 112.525 422.753 112.643 422.607 112.707L421.094 113.402C420.077 113.933 419.118 114.568 418.233 115.297C420.226 114.299 422.128 113.126 423.915 111.793C423.978 111.745 424.05 111.71 424.127 111.691C424.204 111.671 424.284 111.667 424.363 111.678C424.441 111.689 424.517 111.716 424.585 111.757C424.653 111.798 424.712 111.852 424.759 111.916C424.808 111.979 424.844 112.05 424.865 112.127C424.886 112.203 424.891 112.283 424.881 112.361C424.871 112.44 424.845 112.516 424.806 112.584C424.766 112.653 424.713 112.713 424.65 112.761L421.353 115.27H421.435L426.054 112.543C426.188 112.483 426.339 112.472 426.48 112.514C426.622 112.556 426.743 112.648 426.822 112.772C426.901 112.896 426.934 113.044 426.913 113.19C426.892 113.336 426.819 113.469 426.708 113.566L423.819 115.583C423.356 115.911 423.261 116.156 423.274 116.183C423.601 116.247 423.941 116.189 424.228 116.02C426.646 114.969 429.173 114.192 431.763 113.702L432.635 113.47C433.282 113.262 433.958 113.156 434.637 113.157C435.679 113.238 436.708 113.44 437.703 113.757C438.139 113.879 438.561 114.002 438.97 114.084L445.238 115.529C445.315 115.547 445.387 115.58 445.452 115.626C445.516 115.672 445.57 115.73 445.612 115.797C445.654 115.864 445.682 115.939 445.695 116.017C445.708 116.095 445.705 116.174 445.687 116.251C445.669 116.328 445.637 116.401 445.591 116.465C445.545 116.53 445.486 116.584 445.419 116.626C445.352 116.668 445.278 116.696 445.2 116.709C445.122 116.722 445.042 116.719 444.965 116.701C442.881 116.224 440.796 115.733 438.698 115.338C438.275 115.243 437.839 115.12 437.335 114.997C436.45 114.713 435.536 114.526 434.61 114.438C434.044 114.447 433.482 114.549 432.948 114.738C432.635 114.82 432.321 114.915 431.994 114.97C429.493 115.459 427.053 116.222 424.718 117.247C424.316 117.411 423.886 117.494 423.451 117.492V117.492Z" fill="#231F20"/>
<path d="M430.019 79.7959C428.983 80.8457 426.381 97.3693 425.427 105.168Z" fill="white"/>
<path d="M425.427 105.781H425.345C425.188 105.761 425.046 105.679 424.949 105.554C424.852 105.429 424.808 105.27 424.827 105.113C425.413 100.26 428.22 80.7775 429.596 79.3733C429.713 79.2826 429.858 79.2372 430.006 79.2452C430.153 79.2533 430.293 79.3144 430.399 79.4172C430.505 79.52 430.57 79.6577 430.583 79.8049C430.596 79.9521 430.555 80.099 430.468 80.2185C429.583 81.4319 427.076 96.6603 426.026 105.263C426.004 105.406 425.931 105.537 425.822 105.632C425.712 105.727 425.572 105.78 425.427 105.781Z" fill="#231F20"/>
<path d="M390.833 120.723L391.296 123.818L434.052 130.062L433.33 126.872L390.833 120.723Z" fill="white"/>
<path d="M434.052 130.73H433.956L391.201 124.472C391.061 124.451 390.931 124.385 390.83 124.284C390.73 124.184 390.664 124.054 390.642 123.913L390.179 120.819C390.16 120.716 390.166 120.61 390.197 120.51C390.228 120.411 390.282 120.32 390.356 120.246C390.432 120.175 390.523 120.121 390.621 120.088C390.72 120.055 390.825 120.044 390.929 120.055L433.425 126.217C433.556 126.236 433.678 126.295 433.776 126.385C433.873 126.475 433.941 126.592 433.97 126.722L434.637 129.926C434.665 130.028 434.666 130.136 434.64 130.239C434.614 130.341 434.561 130.435 434.488 130.512C434.376 130.638 434.22 130.716 434.052 130.73ZM391.814 123.232L433.139 129.271L432.73 127.458L391.555 121.5L391.814 123.232Z" fill="#231F20"/>
<path d="M390.833 120.723C390.833 120.723 400.561 112.366 400.888 112.448C401.215 112.53 444.938 117.765 444.938 117.765L433.275 126.872L390.833 120.723Z" fill="white"/>
<path d="M433.275 127.54L390.738 121.337C390.611 121.316 390.493 121.261 390.397 121.177C390.3 121.092 390.23 120.982 390.193 120.86C390.156 120.738 390.155 120.609 390.192 120.488C390.228 120.366 390.3 120.259 390.397 120.178C400.398 111.589 400.616 111.657 401.038 111.752C401.692 111.862 430.1 115.27 445.02 117.056C445.151 117.073 445.274 117.129 445.374 117.216C445.473 117.304 445.544 117.419 445.578 117.547C445.617 117.672 445.616 117.807 445.575 117.932C445.533 118.056 445.453 118.165 445.347 118.242L433.738 127.349C433.677 127.41 433.605 127.458 433.526 127.491C433.446 127.523 433.361 127.54 433.275 127.54ZM392.4 120.273L433.166 126.177L443.303 118.228C430.141 116.647 403.981 113.511 401.065 113.129C400.084 113.743 395.656 117.465 392.4 120.273Z" fill="#231F20"/>
<path d="M434.052 130.062L445.211 120.723L444.938 117.765L433.33 126.872L434.052 130.062Z" fill="white"/>
<path d="M434.052 130.73C433.984 130.743 433.915 130.743 433.847 130.73C433.738 130.698 433.64 130.636 433.563 130.552C433.486 130.468 433.434 130.365 433.411 130.253L432.689 127.063C432.658 126.941 432.663 126.813 432.705 126.694C432.746 126.575 432.821 126.471 432.921 126.395L444.529 117.247C444.624 117.173 444.736 117.126 444.855 117.11C444.974 117.095 445.095 117.112 445.205 117.159C445.315 117.206 445.41 117.283 445.481 117.38C445.551 117.477 445.594 117.591 445.606 117.71L445.864 120.669C445.876 120.776 445.861 120.884 445.82 120.984C445.78 121.084 445.716 121.172 445.633 121.241L434.474 130.594C434.352 130.684 434.204 130.732 434.052 130.73V130.73ZM434.052 127.131L434.447 128.862L444.502 120.437L444.379 119.074L434.052 127.131Z" fill="#231F20"/>
<path d="M390.833 120.723L382.617 93.1702L427.689 100.859L433.33 126.872L390.833 120.723Z" fill="white"/>
<path d="M433.275 127.54L390.738 121.337C390.61 121.32 390.49 121.265 390.393 121.18C390.296 121.096 390.227 120.984 390.193 120.859L382.018 93.3202C381.986 93.2118 381.983 93.0973 382.008 92.9872C382.032 92.8772 382.085 92.7752 382.16 92.6908C382.234 92.6064 382.329 92.5423 382.436 92.5046C382.542 92.4668 382.656 92.4566 382.767 92.4749L427.825 100.205C427.954 100.226 428.073 100.286 428.168 100.376C428.263 100.466 428.328 100.582 428.356 100.709L433.97 126.79C433.995 126.894 433.993 127.002 433.964 127.104C433.935 127.207 433.881 127.3 433.806 127.376C433.735 127.441 433.651 127.489 433.559 127.517C433.467 127.546 433.37 127.553 433.275 127.54V127.54ZM391.283 120.123L432.43 126.081L427.13 101.432L383.53 94.0018L391.283 120.123Z" fill="#231F20"/>
<path d="M454.23 120.082H454.121L445.006 118.515C444.854 118.487 444.716 118.408 444.615 118.292C444.513 118.176 444.454 118.028 444.448 117.874L444.161 106.967C444.154 106.799 444.213 106.635 444.325 106.51C444.437 106.386 444.593 106.31 444.761 106.299L460.879 104.636L453.713 79.9731C453.666 79.805 453.687 79.6253 453.771 79.4725C453.855 79.3196 453.995 79.2057 454.162 79.1551C454.246 79.13 454.334 79.1217 454.422 79.1307C454.509 79.1397 454.594 79.1658 454.671 79.2076C454.748 79.2494 454.816 79.306 454.872 79.3742C454.927 79.4424 454.968 79.5208 454.993 79.605L462.364 104.977C462.392 105.068 462.399 105.164 462.385 105.259C462.371 105.353 462.336 105.443 462.283 105.522C462.229 105.603 462.158 105.671 462.076 105.722C461.994 105.774 461.902 105.808 461.806 105.822L445.456 107.499L445.728 117.274L454.312 118.746C454.402 118.754 454.489 118.78 454.568 118.822C454.648 118.863 454.718 118.92 454.776 118.989C454.833 119.058 454.877 119.138 454.904 119.224C454.93 119.31 454.94 119.4 454.932 119.489C454.924 119.579 454.898 119.666 454.857 119.746C454.815 119.825 454.758 119.896 454.689 119.953C454.62 120.011 454.541 120.054 454.455 120.081C454.369 120.108 454.279 120.118 454.189 120.11L454.23 120.082Z" fill="#231F20"/>
<path d="M394.43 163.136C393.679 162.442 392.892 161.786 392.073 161.173C390.302 159.81 386.5 157.888 385.41 161.023C384.729 162.959 385.778 165.536 386.5 167.322C387.927 170.737 390.101 173.789 392.863 176.252C395.275 178.433 402.959 181.582 402.401 175.502C402.253 174.401 401.902 173.338 401.365 172.366C399.632 168.895 397.282 165.767 394.43 163.136V163.136Z" fill="white"/>
<path d="M399.567 179.646C396.95 179.434 394.467 178.404 392.468 176.702C389.637 174.179 387.406 171.053 385.942 167.554C385.206 165.727 384.089 162.986 384.838 160.819C384.972 160.364 385.214 159.949 385.544 159.61C385.874 159.27 386.282 159.016 386.732 158.869C388.953 158.201 391.882 160.233 392.441 160.696C393.274 161.318 394.074 161.983 394.839 162.687V162.687C397.753 165.364 400.154 168.552 401.924 172.094C402.492 173.134 402.862 174.271 403.014 175.447C403.232 177.82 402.251 178.842 401.379 179.265C400.814 179.535 400.193 179.666 399.567 179.646V179.646ZM387.686 159.946C387.483 159.944 387.281 159.971 387.086 160.028C386.816 160.118 386.572 160.275 386.379 160.485C386.186 160.695 386.049 160.95 385.983 161.228C385.383 162.946 386.391 165.44 387.059 167.09C388.452 170.423 390.575 173.4 393.272 175.802C394.989 177.37 399.022 179.101 400.848 178.188C401.624 177.792 401.938 176.933 401.815 175.556C401.666 174.533 401.334 173.544 400.834 172.639C399.143 169.225 396.833 166.155 394.021 163.586C393.286 162.905 392.509 162.223 391.719 161.664C390.566 160.717 389.167 160.121 387.686 159.946V159.946Z" fill="#231F20"/>
<path d="M420.386 166.531C419.861 166.164 419.227 165.986 418.587 166.027C418.187 166.122 417.819 166.325 417.525 166.613C416.975 167.179 416.561 167.861 416.311 168.609C416.061 169.357 415.982 170.152 416.08 170.935C416.276 172.497 416.761 174.009 417.511 175.393C419.596 179.728 422.416 183.927 426.599 186.299C427.35 186.745 428.169 187.063 429.024 187.24C436.463 188.604 433.384 181.214 431.558 177.874C428.97 173.12 425.099 169.189 420.386 166.531Z" fill="white"/>
<path d="M430.618 187.976C430.047 187.971 429.477 187.916 428.915 187.813C427.997 187.624 427.118 187.283 426.313 186.804C422.634 184.732 419.582 181.092 416.966 175.666C416.191 174.209 415.684 172.625 415.467 170.989C415.359 170.114 415.451 169.227 415.737 168.393C416.022 167.559 416.494 166.801 417.116 166.177C417.489 165.805 417.962 165.549 418.478 165.44C419.252 165.367 420.028 165.564 420.672 165.999C425.476 168.713 429.429 172.712 432.09 177.547C433.452 179.974 435.4 184.364 433.765 186.668C433.389 187.128 432.905 187.489 432.356 187.717C431.807 187.945 431.21 188.034 430.618 187.976V187.976ZM418.846 166.613H418.683C418.398 166.687 418.138 166.838 417.933 167.049C417.449 167.549 417.084 168.152 416.867 168.814C416.65 169.475 416.586 170.177 416.68 170.867C416.864 172.357 417.327 173.8 418.042 175.12C420.536 180.328 423.492 183.791 426.871 185.727C427.56 186.144 428.316 186.439 429.106 186.599C430.972 186.94 432.199 186.709 432.744 185.945C433.806 184.459 432.539 180.928 431 178.12C428.466 173.487 424.691 169.653 420.1 167.049C419.723 166.806 419.293 166.656 418.846 166.613V166.613Z" fill="#231F20"/>
<path d="M417.402 143.15C417.237 143.151 417.079 143.089 416.958 142.978C416.837 142.867 416.762 142.714 416.748 142.55C416.748 142.25 415.999 134.929 417.252 130.757C417.276 130.674 417.316 130.596 417.371 130.529C417.425 130.461 417.492 130.405 417.568 130.363C417.644 130.321 417.727 130.295 417.813 130.285C417.899 130.276 417.986 130.283 418.07 130.307C418.153 130.332 418.23 130.372 418.298 130.426C418.366 130.48 418.422 130.547 418.464 130.623C418.505 130.699 418.532 130.783 418.541 130.869C418.551 130.955 418.543 131.042 418.519 131.125C417.347 135.052 418.042 142.359 418.056 142.427C418.071 142.603 418.017 142.777 417.904 142.912C417.792 143.047 417.631 143.133 417.456 143.15H417.402Z" fill="white"/>
<path d="M337.6 91.766H66.926C61.2448 91.766 56.6392 96.3744 56.6392 102.059V287.895C56.6392 293.58 61.2448 298.188 66.926 298.188H337.6C343.282 298.188 347.887 293.58 347.887 287.895V102.059C347.887 96.3744 343.282 91.766 337.6 91.766Z" fill="white"/>
<path d="M337.6 298.856H66.926C64.0407 298.838 61.2786 297.684 59.2383 295.642C57.198 293.601 56.0439 290.837 56.026 287.95V102.059C56.026 99.1665 57.1744 96.3924 59.2185 94.347C61.2627 92.3016 64.0351 91.1525 66.926 91.1525H337.6C340.491 91.1525 343.264 92.3016 345.308 94.347C347.352 96.3924 348.5 99.1665 348.5 102.059V287.909C348.506 289.344 348.228 290.767 347.682 292.095C347.137 293.423 346.335 294.63 345.322 295.647C344.31 296.665 343.106 297.472 341.781 298.022C340.456 298.573 339.035 298.856 337.6 298.856V298.856ZM66.926 92.434C64.3736 92.434 61.9255 93.4476 60.1193 95.2523C58.3132 97.057 57.2967 99.5051 57.2931 102.059V287.909C57.2967 290.463 58.3132 292.911 60.1193 294.716C61.9255 296.52 64.3736 297.534 66.926 297.534H337.6C340.15 297.53 342.595 296.515 344.398 294.711C346.201 292.906 347.216 290.46 347.22 287.909V102.059C347.216 99.5075 346.201 97.0614 344.398 95.2571C342.595 93.4528 340.15 92.4376 337.6 92.434H66.926Z" fill="#231F20"/>
<path d="M337.11 118.46H67.4028V287.336H337.11V118.46Z" fill="#231F20"/>
<path d="M337.11 288.018H67.4029C67.2222 288.018 67.0489 287.946 66.9212 287.818C66.7934 287.69 66.7216 287.517 66.7216 287.336V118.46C66.7216 118.279 66.7934 118.106 66.9212 117.978C67.0489 117.85 67.2222 117.778 67.4029 117.778H337.178C337.358 117.778 337.532 117.85 337.66 117.978C337.787 118.106 337.859 118.279 337.859 118.46V287.336C337.86 287.432 337.84 287.526 337.802 287.614C337.763 287.701 337.707 287.78 337.636 287.844C337.565 287.908 337.482 287.957 337.391 287.987C337.301 288.017 337.205 288.027 337.11 288.018ZM68.125 286.654H336.537V119.142H68.125V286.654Z" fill="#231F20"/>
<path d="M337.11 102.618H67.4028V118.46H337.11V102.618Z" fill="black"/>
<path d="M337.11 119.142H67.4029C67.2222 119.142 67.0489 119.07 66.9212 118.942C66.7934 118.814 66.7216 118.641 66.7216 118.46V102.618C66.7216 102.437 66.7934 102.264 66.9212 102.136C67.0489 102.008 67.2222 101.936 67.4029 101.936H337.178C337.358 101.936 337.532 102.008 337.66 102.136C337.787 102.264 337.859 102.437 337.859 102.618V118.46C337.86 118.556 337.84 118.65 337.802 118.738C337.763 118.825 337.707 118.904 337.636 118.968C337.565 119.032 337.482 119.081 337.391 119.111C337.301 119.141 337.205 119.151 337.11 119.142ZM68.125 117.778H336.537V103.3H68.125V117.778Z" fill="#BABABA"/>
<path d="M121.481 135.27H98.318C98.231 135.272 98.1445 135.256 98.0636 135.224C97.9826 135.192 97.9089 135.144 97.8467 135.083C97.7846 135.022 97.7352 134.949 97.7015 134.869C97.6677 134.789 97.6504 134.703 97.6504 134.616C97.6504 134.438 97.7207 134.268 97.8459 134.143C97.9711 134.018 98.141 133.948 98.318 133.948H121.481C121.568 133.947 121.654 133.965 121.734 133.999C121.814 134.032 121.887 134.082 121.948 134.144C122.009 134.206 122.057 134.28 122.089 134.361C122.121 134.442 122.136 134.528 122.135 134.616C122.136 134.702 122.121 134.788 122.089 134.868C122.056 134.948 122.008 135.021 121.947 135.082C121.886 135.144 121.813 135.192 121.733 135.224C121.653 135.256 121.567 135.272 121.481 135.27Z" fill="white"/>
<path d="M173.732 135.27H127.407C127.321 135.272 127.235 135.256 127.155 135.224C127.075 135.192 127.002 135.144 126.941 135.082C126.88 135.021 126.832 134.948 126.799 134.868C126.767 134.788 126.752 134.702 126.753 134.616C126.752 134.528 126.767 134.442 126.799 134.361C126.831 134.28 126.879 134.206 126.94 134.144C127.001 134.082 127.074 134.032 127.154 133.999C127.234 133.965 127.32 133.947 127.407 133.948H173.732C173.909 133.948 174.079 134.018 174.204 134.143C174.33 134.268 174.4 134.438 174.4 134.616C174.4 134.703 174.383 134.789 174.349 134.869C174.315 134.949 174.266 135.022 174.204 135.083C174.141 135.144 174.068 135.192 173.987 135.224C173.906 135.256 173.819 135.272 173.732 135.27V135.27Z" fill="#B5B9FF"/>
<path d="M189.742 144.977H143.417C143.236 144.977 143.063 144.905 142.935 144.777C142.807 144.649 142.735 144.476 142.735 144.295C142.735 144.114 142.807 143.941 142.935 143.813C143.063 143.685 143.236 143.614 143.417 143.614H189.742C189.922 143.614 190.096 143.685 190.223 143.813C190.351 143.941 190.423 144.114 190.423 144.295C190.423 144.476 190.351 144.649 190.223 144.777C190.096 144.905 189.922 144.977 189.742 144.977Z" fill="#B5B9FF"/>
<path d="M126.917 144.977H103.754C103.574 144.977 103.4 144.905 103.273 144.777C103.145 144.649 103.073 144.476 103.073 144.295C103.073 144.114 103.145 143.941 103.273 143.813C103.4 143.685 103.574 143.614 103.754 143.614H126.917C127.098 143.614 127.271 143.685 127.399 143.813C127.526 143.941 127.598 144.114 127.598 144.295C127.598 144.476 127.526 144.649 127.399 144.777C127.271 144.905 127.098 144.977 126.917 144.977Z" fill="white"/>
<path d="M132.367 154.67H109.204C109.027 154.67 108.857 154.6 108.732 154.475C108.607 154.349 108.537 154.179 108.537 154.002C108.537 153.915 108.554 153.829 108.588 153.749C108.622 153.668 108.671 153.595 108.733 153.535C108.795 153.474 108.869 153.426 108.95 153.394C109.031 153.362 109.117 153.346 109.204 153.348H132.367C132.453 153.346 132.539 153.362 132.619 153.394C132.7 153.426 132.772 153.474 132.833 153.535C132.895 153.596 132.943 153.669 132.975 153.75C133.007 153.83 133.023 153.916 133.021 154.002C133.023 154.089 133.007 154.176 132.975 154.257C132.943 154.338 132.895 154.411 132.834 154.474C132.773 154.536 132.701 154.585 132.62 154.619C132.54 154.653 132.454 154.67 132.367 154.67V154.67Z" fill="white"/>
<path d="M198.012 154.67H140.092C140.005 154.67 139.919 154.653 139.839 154.619C139.759 154.585 139.686 154.536 139.625 154.474C139.564 154.411 139.516 154.338 139.484 154.257C139.452 154.176 139.436 154.089 139.438 154.002C139.436 153.916 139.452 153.83 139.484 153.75C139.516 153.669 139.565 153.596 139.626 153.535C139.687 153.474 139.76 153.426 139.84 153.394C139.92 153.362 140.006 153.346 140.092 153.348H198.012C198.099 153.346 198.186 153.362 198.267 153.394C198.348 153.426 198.421 153.474 198.483 153.535C198.546 153.595 198.595 153.668 198.629 153.749C198.662 153.829 198.68 153.915 198.68 154.002C198.68 154.179 198.609 154.349 198.484 154.475C198.359 154.6 198.189 154.67 198.012 154.67Z" fill="#B5B9FF"/>
<path d="M137.803 164.363H114.641C114.466 164.36 114.3 164.288 114.177 164.163C114.055 164.038 113.987 163.87 113.987 163.695C113.987 163.522 114.056 163.355 114.178 163.233C114.301 163.11 114.467 163.041 114.641 163.041H137.803C137.89 163.039 137.977 163.055 138.058 163.087C138.139 163.119 138.212 163.167 138.275 163.228C138.337 163.289 138.386 163.362 138.42 163.442C138.454 163.522 138.471 163.608 138.471 163.695C138.471 163.873 138.401 164.043 138.275 164.168C138.15 164.293 137.98 164.363 137.803 164.363V164.363Z" fill="white"/>
<path d="M209.988 164.363H141.128C140.951 164.363 140.781 164.293 140.656 164.168C140.53 164.043 140.46 163.873 140.46 163.695C140.46 163.608 140.477 163.522 140.511 163.442C140.545 163.362 140.594 163.289 140.656 163.228C140.719 163.167 140.792 163.119 140.873 163.087C140.954 163.055 141.041 163.039 141.128 163.041H209.988C210.075 163.039 210.162 163.055 210.243 163.087C210.324 163.119 210.398 163.167 210.46 163.228C210.522 163.289 210.571 163.362 210.605 163.442C210.639 163.522 210.656 163.608 210.656 163.695C210.656 163.873 210.586 164.043 210.461 164.168C210.335 164.293 210.166 164.363 209.988 164.363V164.363Z" fill="#B5B9FF"/>
<path d="M131.658 174.057H108.496C108.315 174.057 108.142 173.985 108.014 173.857C107.886 173.729 107.815 173.556 107.815 173.375C107.815 173.194 107.886 173.021 108.014 172.893C108.142 172.765 108.315 172.693 108.496 172.693H131.658C131.839 172.693 132.012 172.765 132.14 172.893C132.268 173.021 132.34 173.194 132.34 173.375C132.34 173.556 132.268 173.729 132.14 173.857C132.012 173.985 131.839 174.057 131.658 174.057Z" fill="white"/>
<path d="M173.732 174.057H136.386C136.206 174.057 136.032 173.985 135.904 173.857C135.777 173.729 135.705 173.556 135.705 173.375C135.705 173.194 135.777 173.021 135.904 172.893C136.032 172.765 136.206 172.693 136.386 172.693H173.732C173.913 172.693 174.086 172.765 174.214 172.893C174.342 173.021 174.414 173.194 174.414 173.375C174.414 173.556 174.342 173.729 174.214 173.857C174.086 173.985 173.913 174.057 173.732 174.057V174.057Z" fill="#B5B9FF"/>
<path d="M225.344 174.057H188.025C187.844 174.057 187.671 173.985 187.543 173.857C187.416 173.729 187.344 173.556 187.344 173.375C187.344 173.194 187.416 173.021 187.543 172.893C187.671 172.765 187.844 172.693 188.025 172.693H225.371C225.552 172.693 225.725 172.765 225.853 172.893C225.981 173.021 226.052 173.194 226.052 173.375C226.052 173.556 225.981 173.729 225.853 173.857C225.725 173.985 225.552 174.057 225.371 174.057H225.344Z" fill="#B5B9FF"/>
<path d="M131.658 183.75H108.496C108.315 183.75 108.142 183.678 108.014 183.55C107.886 183.423 107.815 183.249 107.815 183.068C107.815 182.888 107.886 182.714 108.014 182.586C108.142 182.459 108.315 182.387 108.496 182.387H131.658C131.839 182.387 132.012 182.459 132.14 182.586C132.268 182.714 132.34 182.888 132.34 183.068C132.34 183.249 132.268 183.423 132.14 183.55C132.012 183.678 131.839 183.75 131.658 183.75Z" fill="white"/>
<path d="M173.732 183.75H141.128C140.947 183.75 140.774 183.678 140.646 183.55C140.518 183.423 140.447 183.249 140.447 183.068C140.447 182.888 140.518 182.714 140.646 182.586C140.774 182.459 140.947 182.387 141.128 182.387H173.732C173.913 182.387 174.086 182.459 174.214 182.586C174.342 182.714 174.414 182.888 174.414 183.068C174.414 183.249 174.342 183.423 174.214 183.55C174.086 183.678 173.913 183.75 173.732 183.75V183.75Z" fill="#B5B9FF"/>
<path d="M192.562 183.75H179.237C179.056 183.75 178.883 183.678 178.755 183.55C178.627 183.423 178.556 183.249 178.556 183.068C178.556 182.888 178.627 182.714 178.755 182.586C178.883 182.459 179.056 182.387 179.237 182.387H192.562C192.743 182.387 192.916 182.459 193.044 182.586C193.172 182.714 193.243 182.888 193.243 183.068C193.243 183.249 193.172 183.423 193.044 183.55C192.916 183.678 192.743 183.75 192.562 183.75Z" fill="#B5B9FF"/>
<path d="M131.658 193.443H108.496C108.409 193.445 108.322 193.43 108.241 193.398C108.16 193.365 108.087 193.318 108.025 193.257C107.962 193.196 107.913 193.123 107.879 193.043C107.846 192.962 107.828 192.876 107.828 192.789C107.828 192.612 107.899 192.442 108.024 192.317C108.149 192.191 108.319 192.121 108.496 192.121H131.658C131.745 192.121 131.832 192.138 131.912 192.172C131.992 192.206 132.065 192.255 132.126 192.317C132.187 192.38 132.234 192.453 132.267 192.534C132.299 192.615 132.314 192.702 132.312 192.789C132.314 192.875 132.299 192.961 132.266 193.042C132.234 193.122 132.186 193.195 132.125 193.256C132.064 193.317 131.991 193.365 131.911 193.397C131.831 193.43 131.745 193.445 131.658 193.443V193.443Z" fill="white"/>
<path d="M185.436 193.443H137.749C137.575 193.443 137.409 193.374 137.286 193.252C137.164 193.129 137.095 192.963 137.095 192.789C137.095 192.614 137.163 192.446 137.285 192.321C137.408 192.196 137.574 192.124 137.749 192.121H185.436C185.613 192.121 185.783 192.191 185.908 192.317C186.034 192.442 186.104 192.612 186.104 192.789C186.104 192.876 186.087 192.962 186.053 193.043C186.019 193.123 185.97 193.196 185.908 193.257C185.845 193.318 185.772 193.365 185.691 193.398C185.61 193.43 185.523 193.445 185.436 193.443V193.443Z" fill="#B5B9FF"/>
<path d="M214.239 193.443H191.077C190.99 193.445 190.903 193.43 190.823 193.398C190.742 193.365 190.668 193.318 190.606 193.257C190.544 193.196 190.494 193.123 190.46 193.043C190.427 192.962 190.409 192.876 190.409 192.789C190.409 192.612 190.48 192.442 190.605 192.317C190.73 192.191 190.9 192.121 191.077 192.121H214.239C214.414 192.124 214.581 192.196 214.703 192.321C214.825 192.446 214.894 192.614 214.893 192.789C214.893 192.963 214.825 193.129 214.702 193.252C214.579 193.374 214.413 193.443 214.239 193.443V193.443Z" fill="#B5B9FF"/>
<path d="M115.322 203.137H103.06C102.879 203.137 102.706 203.065 102.578 202.937C102.45 202.809 102.378 202.636 102.378 202.455C102.378 202.274 102.45 202.101 102.578 201.973C102.706 201.845 102.879 201.773 103.06 201.773H115.322C115.503 201.773 115.676 201.845 115.804 201.973C115.932 202.101 116.003 202.274 116.003 202.455C116.003 202.636 115.932 202.809 115.804 202.937C115.676 203.065 115.503 203.137 115.322 203.137Z" fill="white"/>
<path d="M179.237 203.137H125.5C125.319 203.137 125.146 203.065 125.018 202.937C124.89 202.809 124.819 202.636 124.819 202.455C124.819 202.274 124.89 202.101 125.018 201.973C125.146 201.845 125.319 201.773 125.5 201.773H179.237C179.418 201.773 179.591 201.845 179.719 201.973C179.846 202.101 179.918 202.274 179.918 202.455C179.918 202.636 179.846 202.809 179.719 202.937C179.591 203.065 179.418 203.137 179.237 203.137Z" fill="#B5B9FF"/>
<path d="M126.208 212.844H103.046C102.865 212.844 102.692 212.772 102.564 212.644C102.436 212.516 102.365 212.343 102.365 212.162C102.365 211.981 102.436 211.808 102.564 211.68C102.692 211.552 102.865 211.48 103.046 211.48H126.208C126.389 211.48 126.562 211.552 126.69 211.68C126.818 211.808 126.89 211.981 126.89 212.162C126.89 212.343 126.818 212.516 126.69 212.644C126.562 212.772 126.389 212.844 126.208 212.844Z" fill="white"/>
<path d="M152.723 222.537H106.398C106.311 222.537 106.224 222.52 106.144 222.486C106.064 222.452 105.991 222.403 105.93 222.34C105.869 222.278 105.821 222.204 105.789 222.123C105.757 222.043 105.742 221.956 105.744 221.869C105.742 221.782 105.757 221.696 105.79 221.616C105.822 221.536 105.87 221.463 105.931 221.402C105.992 221.341 106.065 221.293 106.145 221.261C106.225 221.228 106.311 221.213 106.398 221.214H152.723C152.81 221.213 152.896 221.228 152.977 221.26C153.058 221.292 153.132 221.34 153.194 221.401C153.256 221.462 153.305 221.535 153.339 221.615C153.373 221.696 153.39 221.782 153.39 221.869C153.39 222.046 153.32 222.216 153.195 222.341C153.07 222.467 152.9 222.537 152.723 222.537Z" fill="white"/>
<path d="M192.562 222.537H160.393C160.306 222.537 160.22 222.52 160.14 222.486C160.06 222.452 159.987 222.403 159.926 222.34C159.865 222.278 159.817 222.204 159.785 222.123C159.753 222.043 159.738 221.956 159.739 221.869C159.738 221.782 159.753 221.696 159.785 221.616C159.818 221.536 159.866 221.463 159.927 221.402C159.988 221.341 160.061 221.293 160.141 221.261C160.221 221.228 160.307 221.213 160.393 221.214H192.562C192.649 221.213 192.736 221.228 192.817 221.26C192.897 221.292 192.971 221.34 193.033 221.401C193.096 221.462 193.145 221.535 193.179 221.615C193.212 221.696 193.23 221.782 193.23 221.869C193.23 222.046 193.159 222.216 193.034 222.341C192.909 222.467 192.739 222.537 192.562 222.537Z" fill="#B5B9FF"/>
<path d="M236.993 222.537H197.167C197.08 222.537 196.994 222.52 196.914 222.486C196.834 222.452 196.761 222.403 196.7 222.34C196.639 222.278 196.591 222.204 196.559 222.123C196.527 222.043 196.512 221.956 196.513 221.869C196.511 221.782 196.527 221.696 196.559 221.616C196.592 221.536 196.64 221.463 196.701 221.402C196.762 221.341 196.835 221.293 196.915 221.261C196.995 221.228 197.081 221.213 197.167 221.214H236.993C237.167 221.214 237.333 221.283 237.456 221.406C237.578 221.529 237.647 221.695 237.647 221.869C237.647 222.044 237.579 222.212 237.457 222.336C237.334 222.461 237.168 222.533 236.993 222.537Z" fill="#B5B9FF"/>
<path d="M175.912 232.23H108.469C108.292 232.23 108.122 232.16 107.997 232.035C107.871 231.909 107.801 231.739 107.801 231.562C107.801 231.475 107.818 231.389 107.852 231.309C107.886 231.228 107.935 231.156 107.997 231.095C108.059 231.034 108.133 230.986 108.214 230.954C108.295 230.922 108.382 230.906 108.469 230.908H175.912C175.999 230.906 176.086 230.922 176.167 230.954C176.248 230.986 176.321 231.034 176.384 231.095C176.446 231.156 176.495 231.228 176.529 231.309C176.563 231.389 176.58 231.475 176.58 231.562C176.58 231.739 176.51 231.909 176.384 232.035C176.259 232.16 176.089 232.23 175.912 232.23Z" fill="white"/>
<path d="M210.861 232.23H180.518C180.341 232.23 180.171 232.16 180.046 232.035C179.92 231.909 179.85 231.739 179.85 231.562C179.85 231.475 179.867 231.389 179.901 231.309C179.935 231.228 179.984 231.156 180.046 231.095C180.109 231.034 180.182 230.986 180.263 230.954C180.344 230.922 180.431 230.906 180.518 230.908H210.861C210.947 230.906 211.033 230.922 211.113 230.954C211.193 230.986 211.266 231.034 211.327 231.095C211.388 231.156 211.436 231.229 211.469 231.31C211.501 231.39 211.516 231.476 211.515 231.562C211.516 231.649 211.501 231.736 211.469 231.817C211.437 231.898 211.389 231.972 211.328 232.034C211.267 232.096 211.194 232.145 211.114 232.179C211.034 232.213 210.948 232.23 210.861 232.23V232.23Z" fill="#B5B9FF"/>
<path d="M306.222 232.23H215.997C215.822 232.227 215.656 232.155 215.534 232.03C215.412 231.905 215.343 231.737 215.343 231.562C215.343 231.389 215.412 231.222 215.535 231.099C215.657 230.977 215.824 230.908 215.997 230.908H306.222C306.309 230.906 306.395 230.922 306.476 230.954C306.557 230.986 306.631 231.034 306.693 231.095C306.755 231.156 306.805 231.228 306.838 231.309C306.872 231.389 306.89 231.475 306.89 231.562C306.89 231.739 306.819 231.909 306.694 232.035C306.569 232.16 306.399 232.23 306.222 232.23Z" fill="#B5B9FF"/>
<path d="M140.092 241.923H108.196C108.015 241.923 107.842 241.852 107.714 241.724C107.587 241.596 107.515 241.423 107.515 241.242C107.515 241.061 107.587 240.888 107.714 240.76C107.842 240.632 108.015 240.56 108.196 240.56H140.092C140.273 240.56 140.446 240.632 140.574 240.76C140.702 240.888 140.774 241.061 140.774 241.242C140.774 241.423 140.702 241.596 140.574 241.724C140.446 241.852 140.273 241.923 140.092 241.923Z" fill="white"/>
<path d="M169.931 241.923H146.442C146.261 241.923 146.088 241.852 145.96 241.724C145.832 241.596 145.76 241.423 145.76 241.242C145.76 241.061 145.832 240.888 145.96 240.76C146.088 240.632 146.261 240.56 146.442 240.56H169.931C170.112 240.56 170.285 240.632 170.413 240.76C170.54 240.888 170.612 241.061 170.612 241.242C170.612 241.423 170.54 241.596 170.413 241.724C170.285 241.852 170.112 241.923 169.931 241.923Z" fill="#B5B9FF"/>
<path d="M199.743 241.923H176.253C176.072 241.923 175.899 241.852 175.771 241.724C175.644 241.596 175.572 241.423 175.572 241.242C175.572 241.061 175.644 240.888 175.771 240.76C175.899 240.632 176.072 240.56 176.253 240.56H199.743C199.923 240.56 200.096 240.632 200.224 240.76C200.352 240.888 200.424 241.061 200.424 241.242C200.424 241.423 200.352 241.596 200.224 241.724C200.096 241.852 199.923 241.923 199.743 241.923Z" fill="#B5B9FF"/>
<path d="M164.59 251.617H108.196C108.109 251.619 108.023 251.603 107.942 251.571C107.861 251.539 107.787 251.491 107.725 251.43C107.663 251.369 107.613 251.296 107.58 251.216C107.546 251.136 107.528 251.05 107.529 250.962C107.529 250.785 107.599 250.615 107.724 250.49C107.849 250.365 108.019 250.294 108.196 250.294H164.59C164.767 250.294 164.937 250.365 165.062 250.49C165.187 250.615 165.258 250.785 165.258 250.962C165.258 251.05 165.24 251.136 165.207 251.216C165.173 251.296 165.123 251.369 165.061 251.43C164.999 251.491 164.925 251.539 164.844 251.571C164.764 251.603 164.677 251.619 164.59 251.617V251.617Z" fill="white"/>
<path d="M199.743 251.617H171.539C171.452 251.619 171.367 251.603 171.286 251.571C171.206 251.539 171.133 251.49 171.072 251.429C171.011 251.368 170.963 251.295 170.931 251.215C170.899 251.135 170.883 251.049 170.885 250.962C170.883 250.875 170.899 250.789 170.931 250.708C170.963 250.627 171.011 250.553 171.071 250.491C171.132 250.429 171.205 250.379 171.285 250.345C171.366 250.312 171.452 250.294 171.539 250.294H199.743C199.83 250.294 199.916 250.312 199.996 250.345C200.076 250.379 200.149 250.429 200.21 250.491C200.271 250.553 200.319 250.627 200.351 250.708C200.383 250.789 200.398 250.875 200.397 250.962C200.398 251.049 200.383 251.135 200.351 251.215C200.318 251.295 200.27 251.368 200.209 251.429C200.148 251.49 200.075 251.539 199.995 251.571C199.915 251.603 199.829 251.619 199.743 251.617V251.617Z" fill="#B5B9FF"/>
<path d="M249.61 251.617H206.664C206.578 251.619 206.492 251.603 206.412 251.571C206.331 251.539 206.259 251.49 206.197 251.429C206.136 251.368 206.088 251.295 206.056 251.215C206.024 251.135 206.008 251.049 206.01 250.962C206.008 250.875 206.024 250.789 206.056 250.708C206.088 250.627 206.136 250.553 206.197 250.491C206.258 250.429 206.33 250.379 206.411 250.345C206.491 250.312 206.577 250.294 206.664 250.294H249.61C249.698 250.294 249.784 250.312 249.865 250.345C249.946 250.379 250.02 250.428 250.082 250.49C250.144 250.552 250.193 250.626 250.227 250.707C250.26 250.788 250.278 250.875 250.278 250.962C250.278 251.05 250.26 251.136 250.227 251.216C250.193 251.296 250.143 251.369 250.081 251.43C250.019 251.491 249.945 251.539 249.864 251.571C249.784 251.603 249.697 251.619 249.61 251.617V251.617Z" fill="#B5B9FF"/>
<path d="M297.025 251.617H254.133C254.046 251.619 253.96 251.603 253.879 251.571C253.798 251.539 253.724 251.491 253.662 251.43C253.6 251.369 253.551 251.296 253.517 251.216C253.483 251.136 253.466 251.05 253.466 250.962C253.466 250.785 253.536 250.615 253.661 250.49C253.787 250.365 253.956 250.294 254.133 250.294H297.025C297.202 250.294 297.372 250.365 297.497 250.49C297.622 250.615 297.693 250.785 297.693 250.962C297.693 251.05 297.675 251.136 297.642 251.216C297.608 251.296 297.558 251.369 297.496 251.43C297.434 251.491 297.36 251.539 297.279 251.571C297.199 251.603 297.112 251.619 297.025 251.617V251.617Z" fill="#B5B9FF"/>
<path d="M156.102 261.31H122.462C122.374 261.312 122.288 261.296 122.207 261.264C122.126 261.232 122.052 261.184 121.99 261.123C121.928 261.062 121.879 260.99 121.845 260.909C121.811 260.829 121.794 260.743 121.794 260.656C121.794 260.568 121.811 260.481 121.845 260.4C121.878 260.319 121.927 260.245 121.989 260.183C122.051 260.121 122.125 260.072 122.206 260.039C122.287 260.005 122.374 259.988 122.462 259.988H156.102C156.189 259.988 156.275 260.005 156.355 260.039C156.435 260.072 156.508 260.122 156.569 260.184C156.63 260.246 156.678 260.32 156.71 260.401C156.742 260.482 156.757 260.569 156.756 260.656C156.758 260.742 156.742 260.828 156.71 260.908C156.677 260.989 156.629 261.061 156.568 261.123C156.507 261.184 156.434 261.232 156.354 261.264C156.274 261.296 156.188 261.312 156.102 261.31V261.31Z" fill="white"/>
<path d="M196.05 261.31H162.41C162.324 261.312 162.238 261.296 162.158 261.264C162.077 261.232 162.005 261.184 161.943 261.123C161.882 261.061 161.834 260.989 161.802 260.908C161.77 260.828 161.754 260.742 161.756 260.656C161.754 260.569 161.77 260.482 161.802 260.401C161.834 260.32 161.882 260.246 161.943 260.184C162.004 260.122 162.076 260.072 162.157 260.039C162.237 260.005 162.323 259.988 162.41 259.988H196.05C196.138 259.988 196.225 260.005 196.306 260.039C196.387 260.072 196.46 260.121 196.522 260.183C196.584 260.245 196.633 260.319 196.667 260.4C196.7 260.481 196.718 260.568 196.718 260.656C196.718 260.743 196.7 260.829 196.667 260.909C196.633 260.99 196.584 261.062 196.521 261.123C196.459 261.184 196.386 261.232 196.305 261.264C196.224 261.296 196.137 261.312 196.05 261.31Z" fill="#B5B9FF"/>
<path d="M236.285 261.31H202.645C202.558 261.312 202.471 261.296 202.39 261.264C202.309 261.232 202.236 261.184 202.173 261.123C202.111 261.062 202.062 260.99 202.028 260.909C201.994 260.829 201.977 260.743 201.977 260.656C201.977 260.568 201.994 260.481 202.028 260.4C202.061 260.319 202.111 260.245 202.173 260.183C202.235 260.121 202.308 260.072 202.389 260.039C202.47 260.005 202.557 259.988 202.645 259.988H236.285C236.372 259.988 236.458 260.005 236.538 260.039C236.618 260.072 236.691 260.122 236.752 260.184C236.813 260.246 236.861 260.32 236.893 260.401C236.925 260.482 236.941 260.569 236.939 260.656C236.941 260.742 236.925 260.828 236.893 260.908C236.861 260.989 236.812 261.061 236.751 261.123C236.69 261.184 236.617 261.232 236.537 261.264C236.457 261.296 236.371 261.312 236.285 261.31V261.31Z" fill="#B5B9FF"/>
<path d="M277.95 262.401H244.296C244.116 262.401 243.942 262.329 243.815 262.201C243.687 262.073 243.615 261.9 243.615 261.719C243.615 261.538 243.687 261.365 243.815 261.237C243.942 261.109 244.116 261.037 244.296 261.037H277.95C278.131 261.037 278.304 261.109 278.432 261.237C278.559 261.365 278.631 261.538 278.631 261.719C278.631 261.9 278.559 262.073 278.432 262.201C278.304 262.329 278.131 262.401 277.95 262.401Z" fill="#B5B9FF"/>
<path d="M150.652 271.003H127.489C127.403 271.005 127.317 270.99 127.237 270.957C127.156 270.925 127.084 270.877 127.023 270.816C126.961 270.755 126.913 270.682 126.881 270.602C126.849 270.521 126.833 270.435 126.835 270.349C126.833 270.262 126.849 270.175 126.881 270.094C126.913 270.013 126.961 269.94 127.022 269.877C127.083 269.815 127.155 269.766 127.236 269.732C127.316 269.698 127.402 269.681 127.489 269.681H150.652C150.829 269.681 150.998 269.751 151.124 269.877C151.249 270.002 151.319 270.172 151.319 270.349C151.319 270.436 151.302 270.522 151.268 270.603C151.234 270.683 151.185 270.756 151.123 270.817C151.061 270.878 150.987 270.926 150.906 270.958C150.825 270.99 150.739 271.005 150.652 271.003V271.003Z" fill="white"/>
<path d="M179.291 271.003H156.129C156.042 271.005 155.955 270.99 155.874 270.958C155.793 270.926 155.72 270.878 155.658 270.817C155.595 270.756 155.546 270.683 155.512 270.603C155.479 270.522 155.461 270.436 155.461 270.349C155.461 270.172 155.532 270.002 155.657 269.877C155.782 269.751 155.952 269.681 156.129 269.681H179.291C179.378 269.681 179.465 269.698 179.545 269.732C179.625 269.766 179.698 269.815 179.759 269.877C179.82 269.94 179.868 270.013 179.9 270.094C179.932 270.175 179.947 270.262 179.945 270.349C179.947 270.435 179.932 270.521 179.899 270.602C179.867 270.682 179.819 270.755 179.758 270.816C179.697 270.877 179.624 270.925 179.544 270.957C179.464 270.99 179.378 271.005 179.291 271.003V271.003Z" fill="#B5B9FF"/>
<path d="M232.838 271.985L184.959 271.003C184.872 271.003 184.786 270.986 184.706 270.952C184.626 270.919 184.553 270.869 184.492 270.807C184.431 270.745 184.383 270.671 184.351 270.59C184.319 270.509 184.304 270.422 184.305 270.335C184.303 270.247 184.32 270.158 184.354 270.076C184.387 269.994 184.438 269.92 184.502 269.858C184.566 269.797 184.642 269.749 184.726 269.719C184.809 269.688 184.898 269.675 184.987 269.681L232.865 270.663C233.046 270.663 233.219 270.734 233.347 270.862C233.474 270.99 233.546 271.163 233.546 271.344C233.546 271.525 233.474 271.698 233.347 271.826C233.219 271.954 233.046 272.026 232.865 272.026L232.838 271.985Z" fill="#B5B9FF"/>
<path d="M250.7 164.363H219.363C219.275 164.363 219.189 164.346 219.109 164.312C219.029 164.279 218.956 164.229 218.895 164.167C218.834 164.105 218.786 164.031 218.754 163.95C218.722 163.869 218.707 163.783 218.709 163.695C218.707 163.609 218.722 163.523 218.755 163.443C218.787 163.363 218.835 163.29 218.896 163.229C218.957 163.167 219.03 163.119 219.11 163.087C219.19 163.055 219.276 163.039 219.363 163.041H250.7C250.787 163.039 250.874 163.055 250.954 163.087C251.035 163.119 251.109 163.167 251.171 163.228C251.233 163.289 251.283 163.362 251.317 163.442C251.35 163.522 251.368 163.608 251.368 163.695C251.368 163.873 251.297 164.043 251.172 164.168C251.047 164.293 250.877 164.363 250.7 164.363V164.363Z" fill="#B5B9FF"/>
<path d="M273.862 164.459C267.731 164.459 263.18 164.459 262.962 164.323C262.879 164.299 262.801 164.26 262.734 164.206C262.666 164.153 262.609 164.087 262.566 164.012C262.481 163.859 262.459 163.68 262.506 163.511C262.553 163.343 262.665 163.201 262.817 163.115C262.969 163.029 263.149 163.008 263.317 163.055C264.516 163.205 285.198 163.123 298.878 163.055C298.965 163.053 299.052 163.068 299.132 163.101C299.213 163.133 299.287 163.18 299.349 163.241C299.411 163.302 299.461 163.375 299.495 163.455C299.528 163.536 299.546 163.622 299.546 163.709C299.546 163.886 299.475 164.056 299.35 164.181C299.225 164.307 299.055 164.377 298.878 164.377C291.575 164.404 281.492 164.459 273.862 164.459Z" fill="#B5B9FF"/>
<path d="M245.7 144.977H200.192C200.011 144.977 199.838 144.905 199.71 144.777C199.583 144.649 199.511 144.476 199.511 144.295C199.511 144.114 199.583 143.941 199.71 143.813C199.838 143.685 200.011 143.614 200.192 143.614H245.7C245.88 143.614 246.054 143.685 246.181 143.813C246.309 143.941 246.381 144.114 246.381 144.295C246.381 144.476 246.309 144.649 246.181 144.777C246.054 144.905 245.88 144.977 245.7 144.977Z" fill="#B5B9FF"/>
<path d="M300.132 144.977H254.788C254.607 144.977 254.434 144.905 254.306 144.777C254.178 144.649 254.106 144.476 254.106 144.295C254.106 144.114 254.178 143.941 254.306 143.813C254.434 143.685 254.607 143.614 254.788 143.614H300.077C300.258 143.614 300.431 143.685 300.559 143.813C300.687 143.941 300.758 144.114 300.758 144.295C300.758 144.476 300.687 144.649 300.559 144.777C300.431 144.905 300.258 144.977 300.077 144.977H300.132Z" fill="#B5B9FF"/>
<path d="M203.012 135.324C194.606 135.324 188.202 135.324 187.943 135.324C187.77 135.294 187.616 135.197 187.514 135.055C187.412 134.912 187.371 134.734 187.398 134.561C187.425 134.392 187.517 134.24 187.655 134.138C187.792 134.036 187.964 133.992 188.134 134.016C189.292 134.097 222.891 134.016 240.522 134.016C240.699 134.016 240.869 134.086 240.994 134.211C241.119 134.337 241.19 134.507 241.19 134.684C241.19 134.771 241.172 134.857 241.139 134.937C241.105 135.018 241.056 135.09 240.993 135.151C240.931 135.212 240.858 135.26 240.777 135.292C240.696 135.324 240.609 135.34 240.522 135.338C233.124 135.297 215.738 135.324 203.012 135.324Z" fill="#B5B9FF"/>
<path d="M252.798 135.311C252.676 135.308 252.558 135.271 252.457 135.203C252.355 135.136 252.275 135.041 252.226 134.929C252.16 134.76 252.159 134.572 252.225 134.403C252.29 134.234 252.417 134.096 252.58 134.016C253.112 133.757 263.698 133.729 284.027 134.016C284.2 134.023 284.365 134.096 284.486 134.22C284.608 134.344 284.677 134.51 284.681 134.684C284.681 134.771 284.663 134.857 284.63 134.937C284.596 135.018 284.547 135.09 284.484 135.151C284.422 135.212 284.349 135.26 284.268 135.292C284.187 135.324 284.1 135.34 284.013 135.338V135.338C272.173 135.215 254.174 135.106 253.057 135.338C252.97 135.354 252.88 135.344 252.798 135.311Z" fill="white"/>
<path d="M208.898 203.137H185.436C185.256 203.137 185.082 203.065 184.954 202.937C184.827 202.809 184.755 202.636 184.755 202.455C184.755 202.274 184.827 202.101 184.954 201.973C185.082 201.845 185.256 201.773 185.436 201.773H208.898C209.079 201.773 209.252 201.845 209.38 201.973C209.508 202.101 209.58 202.274 209.58 202.455C209.58 202.636 209.508 202.809 209.38 202.937C209.252 203.065 209.079 203.137 208.898 203.137Z" fill="#B5B9FF"/>
<path d="M155.066 212.844H137.803C137.623 212.844 137.449 212.772 137.322 212.644C137.194 212.516 137.122 212.343 137.122 212.162C137.122 211.981 137.194 211.808 137.322 211.68C137.449 211.552 137.623 211.48 137.803 211.48H155.066C155.247 211.48 155.42 211.552 155.548 211.68C155.676 211.808 155.747 211.981 155.747 212.162C155.747 212.343 155.676 212.516 155.548 212.644C155.42 212.772 155.247 212.844 155.066 212.844Z" fill="#B5B9FF"/>
<path d="M202.645 212.844H161.62C161.439 212.844 161.266 212.772 161.138 212.644C161.01 212.516 160.938 212.343 160.938 212.162C160.938 211.981 161.01 211.808 161.138 211.68C161.266 211.552 161.439 211.48 161.62 211.48H202.645C202.825 211.48 202.999 211.552 203.126 211.68C203.254 211.808 203.326 211.981 203.326 212.162C203.326 212.343 203.254 212.516 203.126 212.644C202.999 212.772 202.825 212.844 202.645 212.844V212.844Z" fill="white"/>
<path d="M290.335 212.844H210.861C210.68 212.844 210.507 212.772 210.379 212.644C210.251 212.516 210.179 212.343 210.179 212.162C210.179 211.981 210.251 211.808 210.379 211.68C210.507 211.552 210.68 211.48 210.861 211.48H290.335C290.516 211.48 290.689 211.552 290.817 211.68C290.945 211.808 291.016 211.981 291.016 212.162C291.016 212.343 290.945 212.516 290.817 212.644C290.689 212.772 290.516 212.844 290.335 212.844V212.844Z" fill="#B5B9FF"/>
<path d="M77.6625 112.857C78.9417 112.857 79.9788 111.819 79.9788 110.539C79.9788 109.259 78.9417 108.221 77.6625 108.221C76.3833 108.221 75.3463 109.259 75.3463 110.539C75.3463 111.819 76.3833 112.857 77.6625 112.857Z" fill="#231F20"/>
<path d="M85.783 112.857C87.0622 112.857 88.0993 111.819 88.0993 110.539C88.0993 109.259 87.0622 108.221 85.783 108.221C84.5038 108.221 83.4667 109.259 83.4667 110.539C83.4667 111.819 84.5038 112.857 85.783 112.857Z" fill="white"/>
<path d="M93.9035 112.857C95.1827 112.857 96.2197 111.819 96.2197 110.539C96.2197 109.259 95.1827 108.221 93.9035 108.221C92.6242 108.221 91.5872 109.259 91.5872 110.539C91.5872 111.819 92.6242 112.857 93.9035 112.857Z" fill="white"/>
<path d="M245.591 328.073H158.922L168.718 298.188H235.794L245.591 328.073Z" fill="white"/>
<path d="M245.591 328.754H158.922C158.814 328.758 158.706 328.735 158.609 328.688C158.511 328.641 158.426 328.571 158.362 328.483C158.297 328.396 158.255 328.295 158.239 328.187C158.223 328.08 158.233 327.971 158.268 327.868L168.064 297.984C168.108 297.845 168.195 297.723 168.313 297.637C168.431 297.552 168.573 297.506 168.718 297.507H235.794C235.94 297.506 236.082 297.552 236.2 297.637C236.317 297.723 236.405 297.845 236.448 297.984L246.245 327.868C246.28 327.971 246.29 328.08 246.274 328.187C246.257 328.295 246.215 328.396 246.151 328.483C246.086 328.571 246.002 328.641 245.904 328.688C245.807 328.735 245.699 328.758 245.591 328.754V328.754ZM159.862 327.391H244.65L235.304 298.87H169.209L159.862 327.391Z" fill="#231F20"/>
<path d="M252.744 328.073H151.769C149.444 328.073 147.559 329.956 147.559 332.278C147.559 334.601 149.444 336.484 151.769 336.484H252.744C255.069 336.484 256.954 334.601 256.954 332.278C256.954 329.956 255.069 328.073 252.744 328.073Z" fill="white"/>
<path d="M252.757 337.18H151.769C150.472 337.18 149.227 336.664 148.31 335.746C147.393 334.828 146.878 333.583 146.878 332.285C146.878 330.987 147.393 329.742 148.31 328.824C149.227 327.907 150.472 327.391 151.769 327.391H252.757C254.055 327.391 255.299 327.907 256.216 328.824C257.133 329.742 257.649 330.987 257.649 332.285C257.649 333.583 257.133 334.828 256.216 335.746C255.299 336.664 254.055 337.18 252.757 337.18V337.18ZM151.769 328.754C150.833 328.754 149.935 329.126 149.274 329.788C148.612 330.451 148.24 331.349 148.24 332.285C148.24 333.222 148.612 334.12 149.274 334.782C149.935 335.444 150.833 335.816 151.769 335.816H252.757C253.693 335.816 254.591 335.444 255.253 334.782C255.914 334.12 256.286 333.222 256.286 332.285C256.286 331.349 255.914 330.451 255.253 329.788C254.591 329.126 253.693 328.754 252.757 328.754H151.769Z" fill="#231F20"/>
<path d="M161.524 320.152C162.887 319.415 237.961 305.7 237.961 305.7L235.494 298.188H168.419L161.524 320.152Z" fill="#231F20"/>
<path d="M161.511 320.833C161.355 320.832 161.205 320.774 161.088 320.67C160.989 320.584 160.918 320.471 160.884 320.344C160.85 320.218 160.855 320.084 160.898 319.961L167.792 297.997C167.831 297.862 167.913 297.743 168.027 297.659C168.14 297.575 168.278 297.531 168.419 297.534H235.495C235.634 297.531 235.77 297.573 235.883 297.654C235.996 297.735 236.08 297.851 236.121 297.984L238.587 305.482C238.614 305.573 238.621 305.668 238.609 305.761C238.597 305.855 238.565 305.944 238.517 306.025C238.468 306.106 238.403 306.176 238.326 306.23C238.249 306.284 238.162 306.322 238.07 306.341C217.496 310.104 163.664 320.042 161.77 320.765C161.688 320.803 161.601 320.827 161.511 320.833V320.833ZM168.95 298.856L162.546 319.238C171.566 317.193 224.104 307.568 237.13 305.182L235.059 298.856H168.95Z" fill="#231F20"/>
</svg>
