<svg width="614" height="461" viewBox="0 0 614 461" fill="none" xmlns="http://www.w3.org/2000/svg">
<path d="M349.55 385.918C345.689 385.962 341.842 385.444 338.13 384.382C328.337 381.431 319.572 373.21 314.107 361.854C309.21 351.682 307.246 340.479 305.358 329.584C305.338 329.487 305.338 329.387 305.359 329.29C305.379 329.193 305.42 329.101 305.477 329.02C305.535 328.939 305.609 328.871 305.694 328.82C305.779 328.769 305.873 328.736 305.972 328.724C306.067 328.706 306.166 328.708 306.261 328.728C306.356 328.749 306.446 328.788 306.526 328.844C306.606 328.9 306.674 328.971 306.727 329.053C306.779 329.135 306.815 329.227 306.831 329.323C308.704 340.08 310.638 351.174 315.443 361.163C320.738 372.15 329.165 380.064 338.56 382.907C345.39 384.95 352.835 384.443 359.865 383.613C374.924 381.831 384.103 377.159 387.956 369.353C388.094 369.046 388.232 368.769 388.324 368.508C385.914 369.184 383.535 370.045 381.202 370.921C379.268 371.627 377.272 372.35 375.277 372.98C365.565 376.031 355.263 376.705 345.237 374.947C340.402 374.086 337.454 371.75 337.347 368.708C337.24 365.665 339.864 363.237 344.546 361.885C357.374 358.153 370.963 357.903 383.919 361.163C387.603 362.085 389.629 363.621 390.059 365.85C390.105 366.093 390.135 366.34 390.151 366.587C390.734 366.449 391.318 366.326 391.916 366.218C398.148 365.112 404.657 365.742 410.95 366.341C419.884 367.202 428.326 368.016 435.94 364.267C436.119 364.182 436.325 364.172 436.511 364.238C436.698 364.304 436.851 364.442 436.938 364.62C436.982 364.708 437.009 364.803 437.016 364.901C437.023 364.999 437.01 365.098 436.979 365.191C436.947 365.284 436.898 365.37 436.833 365.443C436.768 365.517 436.688 365.577 436.6 365.619C428.603 369.538 419.562 368.692 410.812 367.832C404.672 367.233 398.21 366.618 392.177 367.694C391.44 367.817 390.642 367.986 389.982 368.155C389.802 368.835 389.55 369.494 389.23 370.122C385.147 378.42 375.568 383.352 359.988 385.212C356.526 385.654 353.04 385.89 349.55 385.918V385.918ZM365.56 360.348C358.59 360.35 351.655 361.338 344.961 363.283C343.088 363.821 338.728 365.45 338.821 368.631C338.913 371.812 343.932 373.241 345.467 373.441C355.249 375.188 365.308 374.567 374.801 371.627C376.766 371.013 378.746 370.291 380.649 369.599C383.274 368.631 385.945 367.647 388.693 366.925C388.724 366.665 388.724 366.402 388.693 366.142C388.34 364.513 386.667 363.36 383.581 362.576C377.689 361.093 371.636 360.344 365.56 360.348V360.348Z" fill="#E6E7E8"/>
<path d="M530.327 150.747H430.414C426.379 150.747 423.107 154.022 423.107 158.062V371.966C423.107 376.005 426.379 379.28 430.414 379.28H530.327C534.362 379.28 537.634 376.005 537.634 371.966V158.062C537.634 154.022 534.362 150.747 530.327 150.747Z" fill="white"/>
<path d="M530.327 380.018H430.414C428.282 380.014 426.239 379.164 424.731 377.655C423.223 376.146 422.375 374.1 422.371 371.966V158.046C422.375 155.912 423.223 153.866 424.731 152.357C426.239 150.848 428.282 149.998 430.414 149.994H530.327C532.462 149.994 534.509 150.842 536.02 152.352C537.531 153.861 538.382 155.909 538.386 158.046V371.966C538.382 374.102 537.531 376.151 536.02 377.66C534.509 379.17 532.462 380.018 530.327 380.018V380.018ZM430.414 151.485C428.676 151.485 427.008 152.176 425.779 153.406C424.55 154.637 423.86 156.306 423.86 158.046V371.966C423.86 373.706 424.55 375.375 425.779 376.605C427.008 377.836 428.676 378.527 430.414 378.527H530.327C532.065 378.527 533.733 377.836 534.962 376.605C536.191 375.375 536.882 373.706 536.882 371.966V158.046C536.882 156.306 536.191 154.637 534.962 153.406C533.733 152.176 532.065 151.485 530.327 151.485H430.414Z" fill="#231F20"/>
<path d="M531.617 171.415H429.125V347.287H531.617V171.415Z" fill="black"/>
<path d="M490.125 355.846H470.616C468.14 355.846 466.133 357.855 466.133 360.333V367.817C466.133 370.295 468.14 372.304 470.616 372.304H490.125C492.601 372.304 494.608 370.295 494.608 367.817V360.333C494.608 357.855 492.601 355.846 490.125 355.846Z" fill="white"/>
<path d="M490.11 373.041H470.631C469.243 373.041 467.911 372.489 466.93 371.506C465.948 370.524 465.397 369.191 465.397 367.801V360.348C465.397 358.959 465.948 357.626 466.93 356.643C467.911 355.66 469.243 355.108 470.631 355.108H490.11C490.799 355.106 491.481 355.24 492.118 355.503C492.755 355.765 493.334 356.151 493.821 356.638C494.309 357.124 494.696 357.703 494.96 358.34C495.224 358.976 495.36 359.659 495.36 360.348V367.801C495.356 369.192 494.801 370.525 493.817 371.507C492.833 372.49 491.5 373.041 490.11 373.041ZM470.631 356.599C469.638 356.599 468.685 356.994 467.983 357.697C467.28 358.4 466.886 359.354 466.886 360.348V367.801C466.886 368.796 467.28 369.749 467.983 370.452C468.685 371.156 469.638 371.551 470.631 371.551H490.11C491.103 371.551 492.056 371.156 492.759 370.452C493.461 369.749 493.856 368.796 493.856 367.801V360.348C493.856 359.354 493.461 358.4 492.759 357.697C492.056 356.994 491.103 356.599 490.11 356.599H470.631Z" fill="#E6E7E8"/>
<path d="M490.724 161.35H461.559C461.461 161.352 461.364 161.334 461.272 161.298C461.181 161.262 461.098 161.208 461.028 161.139C460.958 161.071 460.902 160.989 460.864 160.898C460.827 160.808 460.807 160.711 460.807 160.612C460.807 160.413 460.886 160.221 461.027 160.08C461.168 159.939 461.36 159.859 461.559 159.859H490.724C490.822 159.859 490.919 159.879 491.01 159.917C491.1 159.955 491.182 160.011 491.251 160.081C491.319 160.151 491.373 160.234 491.409 160.325C491.445 160.417 491.463 160.514 491.461 160.612C491.463 160.71 491.445 160.807 491.409 160.897C491.373 160.988 491.319 161.07 491.25 161.139C491.181 161.208 491.099 161.262 491.009 161.298C490.918 161.334 490.821 161.352 490.724 161.35V161.35Z" fill="#E6E7E8"/>
<path d="M498.721 161.35H494.807C494.612 161.35 494.424 161.272 494.286 161.134C494.148 160.996 494.07 160.808 494.07 160.612C494.07 160.415 494.148 160.226 494.285 160.085C494.423 159.945 494.61 159.863 494.807 159.859H498.721C498.921 159.859 499.112 159.939 499.253 160.08C499.394 160.221 499.474 160.413 499.474 160.612C499.474 160.711 499.454 160.808 499.416 160.898C499.378 160.989 499.322 161.071 499.252 161.139C499.182 161.208 499.099 161.262 499.008 161.298C498.917 161.334 498.82 161.352 498.721 161.35V161.35Z" fill="#E6E7E8"/>
<path d="M518.6 281.917H442.08C440.557 281.917 439.097 281.311 438.021 280.234C436.944 279.156 436.339 277.694 436.339 276.17V238.337C436.337 237.581 436.484 236.832 436.772 236.133C437.059 235.434 437.482 234.799 438.015 234.263C438.548 233.728 439.182 233.303 439.879 233.013C440.577 232.724 441.325 232.575 442.08 232.575H518.538C520.065 232.575 521.529 233.182 522.609 234.262C523.688 235.343 524.295 236.809 524.295 238.337V276.17C524.291 277.685 523.691 279.137 522.625 280.213C521.559 281.289 520.113 281.901 518.6 281.917V281.917ZM442.08 234.08C440.952 234.08 439.871 234.529 439.073 235.327C438.276 236.125 437.828 237.208 437.828 238.337V276.17C437.828 277.299 438.276 278.381 439.073 279.18C439.871 279.978 440.952 280.426 442.08 280.426H518.538C519.666 280.426 520.748 279.978 521.545 279.18C522.342 278.381 522.79 277.299 522.79 276.17V238.337C522.79 237.208 522.342 236.125 521.545 235.327C520.748 234.529 519.666 234.08 518.538 234.08H442.08Z" fill="white"/>
<path d="M437.137 277.568C436.983 277.565 436.834 277.515 436.709 277.424C436.584 277.333 436.491 277.207 436.44 277.061C436.39 276.915 436.386 276.757 436.428 276.609C436.47 276.46 436.557 276.329 436.677 276.231L474.561 246.22C474.707 246.108 474.89 246.054 475.074 246.068C475.258 246.082 475.43 246.164 475.558 246.297L498.169 269.777C498.309 269.918 498.387 270.109 498.387 270.307C498.387 270.506 498.309 270.696 498.169 270.838C498.1 270.906 498.019 270.961 497.93 270.998C497.84 271.035 497.744 271.054 497.647 271.054C497.55 271.054 497.454 271.035 497.364 270.998C497.275 270.961 497.194 270.906 497.125 270.838L474.99 247.787L437.629 277.384C437.494 277.505 437.318 277.571 437.137 277.568V277.568Z" fill="white"/>
<path d="M523.604 270.038C523.498 270.037 523.395 270.013 523.299 269.968C523.204 269.923 523.119 269.858 523.051 269.777L510.495 255.532L496.143 267.534C495.992 267.66 495.797 267.721 495.602 267.704C495.406 267.687 495.225 267.592 495.099 267.441C494.973 267.291 494.912 267.096 494.929 266.9C494.946 266.704 495.04 266.523 495.191 266.397L510.096 253.919C510.233 253.785 510.418 253.709 510.61 253.709C510.802 253.709 510.987 253.785 511.124 253.919L524.156 268.717C524.225 268.785 524.28 268.867 524.317 268.956C524.354 269.046 524.373 269.142 524.373 269.239C524.373 269.336 524.354 269.433 524.317 269.522C524.28 269.612 524.225 269.693 524.156 269.762C524.093 269.849 524.01 269.919 523.914 269.967C523.818 270.015 523.711 270.04 523.604 270.038Z" fill="white"/>
<path d="M497.632 252.628C496.48 252.631 495.353 252.292 494.394 251.653C493.435 251.014 492.687 250.105 492.244 249.04C491.802 247.975 491.686 246.803 491.91 245.672C492.134 244.54 492.688 243.501 493.503 242.686C494.317 241.87 495.355 241.315 496.485 241.091C497.615 240.867 498.786 240.984 499.85 241.426C500.913 241.869 501.822 242.618 502.46 243.578C503.098 244.538 503.437 245.666 503.434 246.819C503.43 248.359 502.817 249.834 501.73 250.922C500.643 252.011 499.169 252.624 497.632 252.628V252.628ZM497.632 242.486C496.775 242.483 495.936 242.735 495.223 243.209C494.509 243.683 493.952 244.359 493.622 245.15C493.292 245.942 493.204 246.814 493.369 247.655C493.534 248.497 493.945 249.271 494.55 249.878C495.155 250.486 495.926 250.9 496.766 251.068C497.606 251.237 498.477 251.152 499.269 250.824C500.061 250.497 500.738 249.941 501.214 249.229C501.691 248.516 501.945 247.677 501.945 246.819C501.945 245.673 501.491 244.573 500.683 243.761C499.874 242.948 498.777 242.49 497.632 242.486V242.486Z" fill="white"/>
<path d="M448.036 318.659H443.907C441.007 318.659 438.657 321.011 438.657 323.914V330.368C438.657 333.27 441.007 335.623 443.907 335.623H448.036C450.935 335.623 453.285 333.27 453.285 330.368V323.914C453.285 321.011 450.935 318.659 448.036 318.659Z" fill="white"/>
<path d="M470.969 318.659H466.84C463.94 318.659 461.59 321.011 461.59 323.914V330.368C461.59 333.27 463.94 335.623 466.84 335.623H470.969C473.868 335.623 476.218 333.27 476.218 330.368V323.914C476.218 321.011 473.868 318.659 470.969 318.659Z" fill="white"/>
<path d="M493.902 318.659H489.772C486.873 318.659 484.523 321.011 484.523 323.914V330.368C484.523 333.27 486.873 335.623 489.772 335.623H493.902C496.801 335.623 499.151 333.27 499.151 330.368V323.914C499.151 321.011 496.801 318.659 493.902 318.659Z" fill="white"/>
<path d="M516.835 318.659H512.705C509.806 318.659 507.456 321.011 507.456 323.914V330.368C507.456 333.27 509.806 335.623 512.705 335.623H516.835C519.734 335.623 522.084 333.27 522.084 330.368V323.914C522.084 321.011 519.734 318.659 516.835 318.659Z" fill="white"/>
<path d="M522.514 186.075H438.227C438.129 186.077 438.032 186.059 437.94 186.023C437.849 185.987 437.766 185.933 437.696 185.864C437.626 185.796 437.57 185.714 437.533 185.623C437.495 185.533 437.475 185.436 437.475 185.337C437.475 185.138 437.554 184.946 437.695 184.805C437.836 184.664 438.028 184.584 438.227 184.584H522.514C522.713 184.584 522.905 184.664 523.046 184.805C523.187 184.946 523.266 185.138 523.266 185.337C523.266 185.436 523.247 185.533 523.209 185.623C523.171 185.714 523.115 185.796 523.045 185.864C522.975 185.933 522.892 185.987 522.801 186.023C522.71 186.059 522.612 186.077 522.514 186.075V186.075Z" fill="white"/>
<path d="M522.514 197.969H438.227C438.024 197.969 437.828 197.888 437.684 197.744C437.541 197.6 437.46 197.404 437.46 197.2C437.46 196.997 437.541 196.801 437.684 196.657C437.828 196.513 438.024 196.432 438.227 196.432H522.514C522.718 196.432 522.913 196.513 523.057 196.657C523.201 196.801 523.281 196.997 523.281 197.2C523.281 197.404 523.201 197.6 523.057 197.744C522.913 197.888 522.718 197.969 522.514 197.969Z" fill="white"/>
<path d="M522.514 209.863H438.227C438.028 209.863 437.836 209.783 437.695 209.642C437.554 209.501 437.475 209.309 437.475 209.11C437.475 209.011 437.495 208.914 437.533 208.824C437.57 208.733 437.626 208.651 437.696 208.583C437.766 208.514 437.849 208.46 437.94 208.424C438.032 208.388 438.129 208.37 438.227 208.372H522.514C522.612 208.37 522.71 208.388 522.801 208.424C522.892 208.46 522.975 208.514 523.045 208.583C523.115 208.651 523.171 208.733 523.209 208.824C523.247 208.914 523.266 209.011 523.266 209.11C523.266 209.309 523.187 209.501 523.046 209.642C522.905 209.783 522.713 209.863 522.514 209.863Z" fill="white"/>
<path d="M522.514 221.756H438.227C438.024 221.756 437.828 221.675 437.684 221.531C437.541 221.387 437.46 221.192 437.46 220.988C437.46 220.784 437.541 220.589 437.684 220.445C437.828 220.301 438.024 220.22 438.227 220.22H522.514C522.718 220.22 522.913 220.301 523.057 220.445C523.201 220.589 523.281 220.784 523.281 220.988C523.281 221.192 523.201 221.387 523.057 221.531C522.913 221.675 522.718 221.756 522.514 221.756Z" fill="white"/>
<path d="M522.514 295.424H438.227C438.024 295.424 437.828 295.343 437.684 295.199C437.541 295.055 437.46 294.86 437.46 294.656C437.46 294.452 437.541 294.257 437.684 294.113C437.828 293.968 438.024 293.887 438.227 293.887H522.514C522.718 293.887 522.913 293.968 523.057 294.113C523.201 294.257 523.281 294.452 523.281 294.656C523.281 294.86 523.201 295.055 523.057 295.199C522.913 295.343 522.718 295.424 522.514 295.424Z" fill="white"/>
<path d="M522.514 307.333H438.227C438.129 307.335 438.032 307.318 437.94 307.282C437.849 307.245 437.766 307.191 437.696 307.123C437.626 307.054 437.57 306.972 437.533 306.882C437.495 306.791 437.475 306.694 437.475 306.596C437.475 306.396 437.554 306.204 437.695 306.063C437.836 305.922 438.028 305.843 438.227 305.843H522.514C522.713 305.843 522.905 305.922 523.046 306.063C523.187 306.204 523.266 306.396 523.266 306.596C523.266 306.694 523.247 306.791 523.209 306.882C523.171 306.972 523.115 307.054 523.045 307.123C522.975 307.191 522.892 307.245 522.801 307.282C522.71 307.318 522.612 307.335 522.514 307.333Z" fill="white"/>
<path d="M506.811 70.4562C506.811 70.4562 508.699 62.404 506.949 57.8248C506.434 56.5334 505.524 55.4382 504.35 54.6958C503.175 53.9533 501.796 53.6017 500.41 53.6911C500.41 53.6911 487.7 50.8637 484.032 47.5445L485.689 53.4145C483.478 53.259 481.318 52.669 479.334 51.6781C479.078 52.6816 479.095 53.7355 479.384 54.7301C479.673 55.7247 480.223 56.6235 480.977 57.333C480.062 57.772 479.06 57.9999 478.045 57.9999C477.03 57.9999 476.028 57.772 475.113 57.333C475.113 57.333 478.598 65.8923 486.702 65.0164C491.983 64.2327 501.331 72.2233 506.811 70.4562Z" fill="white"/>
<path d="M505.015 71.4704C502.114 71.4704 498.721 69.9337 495.406 68.397C492.09 66.8604 488.974 65.3237 486.749 65.6464C478.168 66.6452 474.469 57.6711 474.376 57.5789C474.321 57.4341 474.313 57.2758 474.351 57.1257C474.389 56.9755 474.473 56.8409 474.59 56.74C474.708 56.6392 474.853 56.5771 475.007 56.5623C475.161 56.5474 475.316 56.5804 475.451 56.6569C476.728 57.3244 478.215 57.4677 479.595 57.0564C479.035 56.2632 478.653 55.3581 478.476 54.4032C478.298 53.4483 478.329 52.4662 478.567 51.5244C478.592 51.4194 478.641 51.3215 478.71 51.2388C478.779 51.1561 478.867 51.0908 478.966 51.0481C479.066 51.0062 479.173 50.9847 479.281 50.9847C479.389 50.9847 479.496 51.0062 479.595 51.0481C481.197 51.7856 482.89 52.3025 484.63 52.5847L483.264 47.7596C483.222 47.6027 483.23 47.4364 483.288 47.2845C483.346 47.1326 483.45 47.0031 483.586 46.9144C483.724 46.8298 483.886 46.793 484.047 46.8097C484.208 46.8264 484.359 46.8956 484.477 47.0066C487.792 50.08 499.197 52.6769 500.425 52.9689C501.962 52.8683 503.49 53.2612 504.787 54.0904C506.085 54.9195 507.084 56.1417 507.64 57.5789C509.467 62.3118 507.64 70.3025 507.532 70.6406C507.508 70.7646 507.452 70.8799 507.368 70.9745C507.284 71.0691 507.177 71.1395 507.057 71.1784C506.396 71.3848 505.707 71.4833 505.015 71.4704V71.4704ZM487.27 64.0636C489.788 64.0636 492.827 65.4927 496.035 66.9833C499.704 68.7044 503.495 70.4715 506.182 69.8569C506.535 68.1665 507.717 61.8201 506.258 58.1014C505.799 56.9472 504.985 55.9692 503.933 55.309C502.882 54.6488 501.648 54.3405 500.41 54.4287H500.18C499.719 54.3212 490.156 52.1852 485.244 49.3424L486.334 53.1994C486.365 53.3117 486.37 53.4295 486.349 53.5439C486.327 53.6584 486.28 53.7665 486.211 53.8602C486.141 53.9516 486.05 54.0255 485.946 54.0761C485.842 54.1267 485.728 54.1527 485.613 54.1521C483.619 54.0334 481.664 53.5544 479.841 52.7384C479.752 53.4814 479.846 54.2349 480.113 54.9336C480.381 55.6324 480.814 56.2555 481.376 56.7491C481.468 56.8309 481.54 56.9334 481.586 57.0482C481.631 57.163 481.649 57.2869 481.637 57.4099C481.625 57.5349 481.58 57.6545 481.507 57.7569C481.434 57.8593 481.336 57.941 481.222 57.9938C479.78 58.6442 478.18 58.8578 476.617 58.6085C478.03 60.9135 481.222 64.7551 486.58 64.1251C486.808 64.0888 487.039 64.0683 487.27 64.0636V64.0636Z" fill="#231F20"/>
<path d="M517.541 137.839C517.541 137.839 528.623 113.575 527.272 97.6705C525.922 81.766 515.514 80.7672 511.922 80.5674C508.331 80.3677 489.189 77.7861 482.205 86.3453C475.221 94.9045 477.032 136.133 477.032 136.133L517.541 137.839Z" fill="black"/>
<path d="M476.218 127.974C468.067 131.706 460.282 136.192 452.963 141.373C446.485 145.768 442.817 192.16 442.817 192.16C442.817 192.16 444.152 199.613 452.764 198.445L475.436 146.767C475.436 146.767 483.525 127.774 476.218 127.974Z" fill="#231F20"/>
<path d="M450.998 199.275C448.925 199.328 446.899 198.653 445.27 197.368C443.641 196.083 442.513 194.267 442.08 192.237C442.072 192.176 442.072 192.114 442.08 192.053C442.464 187.258 445.979 145.184 452.549 140.713C459.922 135.523 467.758 131.027 475.957 127.282C476.043 127.259 476.133 127.259 476.218 127.282C476.792 127.239 477.368 127.346 477.888 127.594C478.407 127.842 478.853 128.222 479.181 128.696C482.051 132.922 476.756 145.599 476.111 147.136L453.439 198.829C453.387 198.945 453.306 199.046 453.204 199.121C453.102 199.197 452.982 199.244 452.856 199.26C452.238 199.307 451.617 199.312 450.998 199.275ZM443.615 192.083C443.784 192.882 445.257 198.461 452.303 197.723L474.806 146.444C476.341 142.756 480.025 132.491 477.984 129.541C477.814 129.293 477.584 129.092 477.316 128.958C477.047 128.823 476.749 128.759 476.449 128.773C468.399 132.5 460.694 136.933 453.424 142.019C448.327 145.384 444.597 179.175 443.615 192.083Z" fill="#231F20"/>
<path d="M518.446 132.737C518.446 132.737 485.889 133.675 478.229 132.553C478.229 132.553 477.799 132.645 472.181 143.002C466.563 153.359 474.637 200.704 474.637 200.704C474.637 200.704 482.036 208.541 487.884 207.419L494.807 153.436C494.807 153.436 506.611 153.79 513.227 149.087C517.771 145.784 517.571 138.73 518.446 132.737Z" fill="#231F20"/>
<path d="M486.687 208.28C480.823 208.28 474.407 201.518 474.085 201.211C473.984 201.106 473.92 200.971 473.901 200.827C473.563 198.891 465.842 153.19 471.521 142.649C477.201 132.107 477.661 131.892 478.076 131.892H478.337C485.843 133.014 518.109 132.092 518.431 132.076C518.541 132.07 518.651 132.088 518.753 132.131C518.855 132.173 518.946 132.239 519.018 132.322C519.091 132.405 519.143 132.504 519.172 132.61C519.201 132.717 519.204 132.829 519.183 132.937C519.03 134.043 518.891 135.196 518.769 136.348C518.201 141.542 517.617 146.905 513.596 149.794C507.763 153.974 498.123 154.281 495.467 154.281L488.621 207.45C488.602 207.607 488.533 207.754 488.426 207.869C488.318 207.985 488.177 208.064 488.023 208.095C487.584 208.196 487.137 208.258 486.687 208.28ZM475.328 200.351C476.357 201.396 482.358 207.204 487.209 206.759L494.07 153.344C494.09 153.158 494.181 152.986 494.324 152.866C494.467 152.746 494.651 152.686 494.838 152.699C494.961 152.699 506.458 152.975 512.736 148.488C516.205 145.983 516.758 140.958 517.341 136.087C517.433 135.227 517.525 134.351 517.633 133.506C512.383 133.644 486.211 134.289 478.598 133.337C478.152 133.982 476.786 136.149 472.872 143.356C467.592 153.021 474.729 196.77 475.328 200.351Z" fill="#231F20"/>
<path d="M482.19 86.3453C482.19 86.3453 477.032 96.2875 473.993 101.389C471.086 105.766 467.859 109.922 464.338 113.821C464.338 113.821 440.929 122.15 440.791 122.595C440.652 123.041 443.001 130.924 443.001 130.924C443.001 130.924 467.561 129.157 471.613 127.236C475.666 125.315 483.893 115.865 483.893 115.865L482.19 86.3453Z" fill="#4A4A4A"/>
<path d="M491.722 81.0131L493.119 89.4955C493.992 90.7546 495.293 91.652 496.779 92.0198C498.265 92.3875 499.835 92.2002 501.193 91.4931C506.55 89.1267 506.55 85.0699 506.55 85.0699L503.695 69.3959C503.695 69.3959 498.752 67.475 496.189 57.8248C496.189 57.8248 483.909 58.7621 484.753 63.3568C484.753 63.3568 484.6 72.0082 485.904 76.2187C486.372 77.4561 487.156 78.5495 488.176 79.3905C489.197 80.2315 490.419 80.7908 491.722 81.0131V81.0131Z" fill="#EFD3C3"/>
<path d="M498.184 92.9376C497.062 92.9021 495.963 92.606 494.975 92.0726C493.987 91.5392 493.136 90.7832 492.489 89.8643C492.44 89.7777 492.404 89.6846 492.382 89.5877L491.062 81.5816C489.714 81.3121 488.461 80.6934 487.426 79.7875C486.392 78.8815 485.613 77.7198 485.167 76.4184C483.832 72.1311 483.97 63.6641 483.97 63.3107C483.912 62.8885 483.941 62.4587 484.058 62.0486C484.174 61.6386 484.374 61.2573 484.646 60.9288C487.056 57.8555 495.176 57.1179 496.097 57.0564C496.271 57.0431 496.445 57.0911 496.587 57.1921C496.73 57.293 496.834 57.4407 496.88 57.6096C499.289 66.6913 503.894 68.6583 503.94 68.6736C504.058 68.7188 504.162 68.7933 504.243 68.8901C504.323 68.987 504.378 69.1029 504.401 69.2268L507.256 84.9008C507.256 85.2235 507.256 89.6491 501.5 92.1539C500.461 92.6434 499.332 92.9103 498.184 92.9376ZM493.825 89.2035C494.615 90.2769 495.765 91.0304 497.064 91.3265C498.362 91.6227 499.724 91.4419 500.901 90.817C505.66 88.7271 505.783 85.2082 505.783 85.0545L503.004 69.903C501.745 69.2422 497.877 66.5838 495.605 58.6238C492.935 58.9004 487.393 59.8532 485.812 61.8816C485.658 62.0643 485.546 62.279 485.485 62.5102C485.424 62.7414 485.415 62.9834 485.459 63.2185C485.459 63.449 485.336 71.9467 486.595 76.0035C487 77.1104 487.693 78.0888 488.602 78.8373C489.512 79.5857 490.605 80.077 491.768 80.2601L492.075 80.3523C492.174 80.4086 492.26 80.4858 492.326 80.5787C492.393 80.6716 492.438 80.7779 492.459 80.8901L493.825 89.2035Z" fill="#231F20"/>
<path d="M500.41 69.7032C500.47 68.9094 500.782 68.1557 501.3 67.5519C501.809 67.0091 502.406 66.557 503.066 66.215C503.41 65.9962 503.797 65.8547 504.201 65.8001C504.49 65.7975 504.776 65.8497 505.046 65.9537C505.674 66.1503 506.216 66.5572 506.581 67.1062C506.82 67.5826 506.941 68.1097 506.934 68.6429C506.977 69.2348 506.936 69.8299 506.811 70.4101C506.678 70.9865 506.432 71.5307 506.086 72.0109C505.741 72.4911 505.304 72.8976 504.8 73.2068C503.781 73.8173 502.565 74.01 501.408 73.7446" fill="white"/>
<path d="M502.452 74.6666C502.038 74.6619 501.626 74.6103 501.224 74.513C501.03 74.4656 500.864 74.3437 500.76 74.1738C500.657 74.0039 500.625 73.7999 500.671 73.6063C500.694 73.5109 500.736 73.4212 500.795 73.3423C500.853 73.2634 500.926 73.1969 501.011 73.1468C501.095 73.0967 501.189 73.064 501.286 73.0505C501.383 73.0371 501.482 73.0432 501.577 73.0685C502.545 73.2874 503.561 73.128 504.416 72.6229C505.257 72.0927 505.858 71.2545 506.09 70.2871C506.191 69.7816 506.227 69.2652 506.197 68.7505C506.211 68.3256 506.121 67.9037 505.936 67.5211C505.653 67.1097 505.235 66.8106 504.754 66.676C504.575 66.6189 504.389 66.5828 504.201 66.5684C503.909 66.6219 503.632 66.7371 503.388 66.9065C502.814 67.1994 502.295 67.5893 501.853 68.059C501.433 68.5384 501.185 69.1438 501.147 69.78C501.131 69.9784 501.039 70.1629 500.89 70.2948C500.741 70.4266 500.547 70.4955 500.349 70.4869C500.25 70.4811 500.154 70.4557 500.066 70.4121C499.978 70.3685 499.899 70.3077 499.835 70.2332C499.77 70.1588 499.722 70.0721 499.691 69.9785C499.661 69.8848 499.649 69.786 499.658 69.6878C499.725 68.7311 500.096 67.821 500.717 67.0909C501.275 66.4651 501.94 65.9446 502.682 65.5542C503.147 65.2657 503.672 65.087 504.217 65.0317C504.604 65.0307 504.989 65.0984 505.353 65.2315C506.18 65.4802 506.886 66.0279 507.333 66.7682C507.64 67.3613 507.798 68.0207 507.793 68.689C507.832 69.3479 507.785 70.0089 507.655 70.6559C507.383 71.8048 506.732 72.8283 505.807 73.5614C504.883 74.2946 503.738 74.6948 502.559 74.6974L502.452 74.6666Z" fill="#231F20"/>
<path d="M492.643 67.4289C492.643 67.4289 490.34 72.2233 491.108 72.8841C491.875 73.5449 493.794 72.7612 493.794 72.7612" fill="white"/>
<path d="M492.09 73.8829C491.584 73.9083 491.085 73.7561 490.678 73.4527C490.356 73.1914 489.419 72.4231 491.983 67.1062C492.069 66.9315 492.22 66.797 492.403 66.7311C492.586 66.6652 492.788 66.673 492.965 66.7528C493.055 66.7939 493.136 66.8527 493.202 66.9257C493.269 66.9986 493.32 67.0842 493.353 67.1774C493.386 67.2705 493.4 67.3694 493.394 67.468C493.388 67.5667 493.362 67.6631 493.318 67.7516C492.572 69.1998 492.054 70.7549 491.783 72.3616C492.402 72.436 493.03 72.3348 493.595 72.0697C493.778 71.9969 493.983 71.9979 494.166 72.0723C494.349 72.1467 494.496 72.2889 494.577 72.4692C494.615 72.561 494.634 72.6593 494.633 72.7585C494.633 72.8577 494.612 72.9558 494.574 73.0471C494.535 73.1385 494.479 73.2214 494.409 73.291C494.338 73.3606 494.254 73.4155 494.163 73.4527C493.503 73.7197 492.801 73.8655 492.09 73.8829V73.8829Z" fill="#231F20"/>
<path d="M496.431 67.2298C496.836 67.1886 497.118 66.6966 497.06 66.1309C497.003 65.5652 496.628 65.14 496.223 65.1812C495.819 65.2223 495.537 65.7143 495.594 66.28C495.652 66.8457 496.026 67.2709 496.431 67.2298Z" fill="#231F20"/>
<path d="M490.216 68.3261C490.621 68.2877 490.906 67.7977 490.853 67.2316C490.799 66.6656 490.427 66.2377 490.022 66.2761C489.617 66.3144 489.332 66.8044 489.386 67.3705C489.439 67.9366 489.811 68.3644 490.216 68.3261Z" fill="#231F20"/>
<path d="M493.318 77.6478C491.912 77.618 490.523 77.3316 489.22 76.8026C489.129 76.7642 489.047 76.7081 488.979 76.6376C488.91 76.567 488.857 76.4835 488.821 76.3918C488.785 76.3002 488.768 76.2023 488.771 76.1039C488.773 76.0056 488.796 75.9088 488.836 75.8191C488.92 75.6416 489.068 75.5028 489.251 75.4314C489.434 75.3599 489.637 75.3612 489.819 75.435C489.819 75.435 493.303 76.9716 495.651 75.6347C496.266 75.2352 496.781 74.6985 497.153 74.0666C497.526 73.4347 497.748 72.7248 497.8 71.9928C497.833 71.7891 497.945 71.6066 498.112 71.4855C498.279 71.3645 498.487 71.3148 498.691 71.3474C498.894 71.38 499.077 71.4923 499.198 71.6594C499.318 71.8265 499.368 72.0349 499.335 72.2387C499.25 73.1962 498.942 74.1204 498.436 74.937C497.929 75.7537 497.239 76.44 496.419 76.9409C495.465 77.445 494.396 77.6888 493.318 77.6478V77.6478Z" fill="#231F20"/>
<path d="M491.722 81.0131C491.722 81.0131 497.186 81.3511 500.011 79.0615C500.011 79.0615 497.739 86.7448 492.689 86.7448L491.722 81.0131Z" fill="#231F20"/>
<path d="M492.735 87.59C492.559 87.5914 492.388 87.5281 492.255 87.412C492.122 87.296 492.036 87.1351 492.014 86.96L491.047 81.1514C491.025 81.0393 491.031 80.9237 491.063 80.8142C491.095 80.7047 491.152 80.6043 491.231 80.5213C491.305 80.4375 491.398 80.3717 491.502 80.3291C491.605 80.2865 491.717 80.2682 491.829 80.2755C491.829 80.2755 497.048 80.5674 499.596 78.4929C499.722 78.397 499.874 78.3429 500.031 78.3383C500.189 78.3336 500.344 78.3786 500.475 78.4669C500.605 78.5552 500.705 78.6824 500.759 78.8304C500.814 78.9785 500.821 79.1399 500.778 79.292C500.686 79.6147 498.307 87.4978 492.75 87.59H492.735ZM492.735 81.7968L493.441 86.038C496.051 85.5923 497.785 82.7341 498.691 80.7672C496.738 81.4732 494.673 81.8169 492.597 81.7814L492.735 81.7968Z" fill="#231F20"/>
<path d="M522.084 84.5167C526.459 85.285 544.157 126.253 538.094 130.924C528.639 138.223 495.728 130.924 495.728 130.924L498.415 118.216C498.415 118.216 519.567 118.815 519.905 114.466C520.242 110.118 507.625 89.9872 509.252 86.9753C510.879 83.9635 522.084 84.5167 522.084 84.5167Z" fill="#4A4A4A"/>
<path d="M500.686 122.334C497.173 122.558 493.647 122.388 490.172 121.827C487.599 121.201 484.959 120.897 482.312 120.92C478.825 121.087 475.394 121.872 472.181 123.241C472.045 123.284 471.923 123.363 471.828 123.471C471.521 123.901 472.258 124.332 472.795 124.347C474.19 124.374 475.581 124.198 476.925 123.825C473.599 125.055 470.454 126.73 467.576 128.803C467.239 129.034 466.886 129.403 467.039 129.771C467.193 130.14 467.868 130.079 468.298 129.879L475.85 126.422C473.891 127.208 472.075 128.314 470.478 129.695C470.263 129.894 470.002 130.156 470.078 130.448C470.155 130.74 470.938 130.863 471.414 130.632C473.714 129.48 475.912 128.133 477.984 126.606L473.379 130.202C473.379 130.571 473.732 130.893 474.115 130.909C474.5 130.884 474.871 130.757 475.19 130.54L480.394 127.466L477.155 129.741C476.633 130.094 476.05 130.678 476.31 131.277C476.571 131.877 477.6 131.738 478.275 131.446C480.945 130.288 483.735 129.432 486.595 128.896C487.591 128.57 488.621 128.359 489.665 128.266C491.273 128.478 492.86 128.828 494.408 129.311C496.772 129.833 499.121 130.371 501.469 130.847" fill="white"/>
<path d="M477.063 132.43C476.838 132.434 476.614 132.398 476.403 132.322C476.229 132.259 476.07 132.161 475.936 132.034C475.801 131.907 475.694 131.754 475.62 131.585C475.552 131.435 475.515 131.273 475.512 131.108C475.089 131.407 474.587 131.573 474.069 131.585C473.861 131.574 473.656 131.521 473.469 131.428C473.282 131.336 473.115 131.206 472.98 131.047C472.893 130.944 472.821 130.83 472.765 130.709C472.442 130.893 472.105 131.062 471.767 131.231C471.511 131.373 471.228 131.457 470.936 131.478C470.645 131.499 470.352 131.457 470.078 131.354C469.922 131.281 469.785 131.172 469.678 131.035C469.572 130.899 469.498 130.74 469.464 130.571C469.434 130.418 469.434 130.262 469.464 130.11L468.635 130.494C468.163 130.742 467.613 130.797 467.1 130.647C466.956 130.595 466.825 130.514 466.714 130.408C466.603 130.302 466.515 130.174 466.456 130.033C466.318 129.741 466.149 128.988 467.208 128.235C468.902 127.012 470.688 125.923 472.55 124.977C472.278 124.946 472.016 124.854 471.785 124.708C471.554 124.562 471.359 124.365 471.214 124.132C471.13 123.961 471.095 123.771 471.111 123.581C471.127 123.392 471.195 123.21 471.306 123.056C471.469 122.847 471.687 122.687 471.936 122.595C475.226 121.194 478.74 120.392 482.312 120.229C484.683 120.173 487.05 120.421 489.358 120.966L490.325 121.135C493.754 121.688 497.235 121.858 500.702 121.643V121.643C500.88 121.642 501.051 121.711 501.18 121.834C501.308 121.957 501.384 122.125 501.392 122.303C501.393 122.483 501.325 122.656 501.202 122.788C501.079 122.919 500.911 122.998 500.732 123.01C497.168 123.219 493.591 123.044 490.064 122.488L489.082 122.303C486.879 121.787 484.621 121.544 482.358 121.581C479.13 121.744 475.951 122.44 472.949 123.64C474.235 123.668 475.518 123.502 476.756 123.148C476.927 123.091 477.113 123.105 477.274 123.185C477.436 123.266 477.558 123.408 477.615 123.579C477.672 123.75 477.659 123.937 477.578 124.098C477.498 124.259 477.356 124.382 477.185 124.439C473.99 125.619 470.961 127.21 468.175 129.172L473.808 126.591C474.392 126.299 474.975 126.022 475.574 125.792C475.739 125.72 475.925 125.717 476.092 125.784C476.259 125.85 476.393 125.98 476.464 126.145C476.535 126.31 476.538 126.497 476.472 126.664C476.406 126.831 476.276 126.965 476.111 127.036L474.407 127.82C473.261 128.418 472.181 129.134 471.184 129.956C473.429 128.831 475.571 127.509 477.585 126.007C477.656 125.953 477.737 125.913 477.824 125.891C477.911 125.869 478.001 125.864 478.089 125.877C478.178 125.889 478.263 125.92 478.34 125.966C478.416 126.012 478.483 126.073 478.536 126.145C478.591 126.215 478.631 126.296 478.655 126.382C478.678 126.468 478.685 126.558 478.673 126.647C478.662 126.736 478.633 126.821 478.588 126.898C478.544 126.976 478.484 127.043 478.413 127.098L474.699 129.925H474.791L479.994 126.852C480.146 126.784 480.316 126.772 480.475 126.819C480.634 126.867 480.771 126.97 480.86 127.109C480.95 127.249 480.986 127.417 480.962 127.581C480.938 127.745 480.856 127.896 480.731 128.004L477.477 130.279C476.955 130.647 476.848 130.924 476.863 130.955C477.232 131.027 477.614 130.961 477.938 130.77C480.661 129.586 483.508 128.71 486.426 128.158L487.409 127.897C488.138 127.662 488.899 127.543 489.665 127.543C490.838 127.635 491.997 127.862 493.119 128.219C493.61 128.358 494.086 128.496 494.546 128.588L501.607 130.217C501.694 130.237 501.776 130.274 501.848 130.326C501.921 130.378 501.982 130.444 502.029 130.519C502.076 130.595 502.108 130.679 502.122 130.767C502.137 130.855 502.134 130.945 502.114 131.032C502.094 131.118 502.057 131.2 502.005 131.273C501.953 131.345 501.887 131.407 501.812 131.454C501.736 131.501 501.652 131.533 501.565 131.547C501.477 131.562 501.387 131.559 501.3 131.539C498.952 131.001 496.603 130.448 494.239 130.002C493.763 129.894 493.272 129.756 492.704 129.618C491.707 129.298 490.677 129.086 489.634 128.988C488.996 128.998 488.363 129.112 487.762 129.326C487.409 129.418 487.055 129.526 486.687 129.587C483.869 130.138 481.12 130.999 478.49 132.153C478.037 132.338 477.552 132.432 477.063 132.43V132.43Z" fill="#231F20"/>
<path d="M484.461 89.9411C483.295 91.1243 480.363 109.749 479.288 118.538Z" fill="white"/>
<path d="M479.288 119.23H479.196C479.019 119.207 478.859 119.115 478.75 118.974C478.64 118.833 478.591 118.654 478.613 118.477C479.273 113.006 482.435 91.0475 483.985 89.4647C484.117 89.3626 484.281 89.3113 484.447 89.3204C484.613 89.3295 484.77 89.3983 484.89 89.5142C485.009 89.6301 485.083 89.7853 485.097 89.9512C485.112 90.1172 485.066 90.2827 484.968 90.4175C483.97 91.7851 481.146 108.95 479.964 118.646C479.938 118.808 479.857 118.955 479.733 119.062C479.609 119.169 479.452 119.228 479.288 119.23Z" fill="#231F20"/>
<path d="M440.315 136.072L440.837 139.56L489.005 146.598L488.191 143.002L440.315 136.072Z" fill="white"/>
<path d="M489.005 147.351H488.897L440.729 140.298C440.571 140.273 440.425 140.199 440.311 140.086C440.198 139.973 440.124 139.826 440.1 139.668L439.578 136.179C439.556 136.064 439.563 135.944 439.598 135.832C439.632 135.719 439.694 135.617 439.777 135.534C439.863 135.454 439.965 135.393 440.076 135.356C440.188 135.319 440.306 135.306 440.422 135.319L488.299 142.265C488.447 142.286 488.585 142.352 488.694 142.453C488.804 142.555 488.88 142.687 488.913 142.833L489.665 146.444C489.696 146.56 489.697 146.681 489.668 146.797C489.638 146.913 489.579 147.019 489.496 147.105C489.37 147.247 489.194 147.335 489.005 147.351ZM441.42 138.899L487.976 145.707L487.516 143.663L441.128 136.948L441.42 138.899Z" fill="#231F20"/>
<path d="M440.315 136.072C440.315 136.072 451.275 126.652 451.643 126.744C452.011 126.836 501.27 132.737 501.27 132.737L488.13 143.002L440.315 136.072Z" fill="white"/>
<path d="M488.13 143.755L440.207 136.763C440.065 136.741 439.932 136.678 439.823 136.583C439.714 136.488 439.635 136.364 439.593 136.226C439.552 136.089 439.551 135.943 439.592 135.806C439.633 135.67 439.714 135.548 439.824 135.457C451.09 125.776 451.336 125.853 451.812 125.961C452.549 126.084 484.553 129.925 501.362 131.938C501.51 131.958 501.648 132.02 501.76 132.119C501.872 132.217 501.953 132.347 501.991 132.491C502.035 132.633 502.034 132.785 501.987 132.925C501.94 133.066 501.85 133.188 501.73 133.275L488.652 143.54C488.583 143.608 488.502 143.663 488.412 143.7C488.323 143.737 488.227 143.755 488.13 143.755ZM442.08 135.565L488.007 142.219L499.428 133.26C484.599 131.477 455.127 127.943 451.843 127.513C450.737 128.204 445.749 132.399 442.08 135.565Z" fill="#231F20"/>
<path d="M489.005 146.598L501.577 136.072L501.27 132.737L488.191 143.002L489.005 146.598Z" fill="white"/>
<path d="M489.005 147.351C488.929 147.365 488.851 147.365 488.775 147.351C488.652 147.314 488.541 147.245 488.455 147.15C488.368 147.056 488.309 146.939 488.284 146.813L487.47 143.217C487.435 143.08 487.441 142.935 487.487 142.802C487.534 142.668 487.618 142.55 487.731 142.464L500.809 132.153C500.915 132.07 501.042 132.017 501.176 131.999C501.31 131.982 501.446 132.001 501.57 132.054C501.694 132.108 501.802 132.194 501.881 132.303C501.961 132.412 502.009 132.541 502.022 132.676L502.313 136.01C502.326 136.131 502.309 136.253 502.264 136.366C502.218 136.478 502.146 136.578 502.052 136.656L489.481 147.197C489.343 147.299 489.176 147.353 489.005 147.351V147.351ZM489.005 143.294L489.45 145.246L500.778 135.749L500.64 134.212L489.005 143.294Z" fill="#231F20"/>
<path d="M440.315 136.072L431.059 105.016L481.836 113.683L488.191 143.002L440.315 136.072Z" fill="white"/>
<path d="M488.13 143.755L440.207 136.763C440.063 136.744 439.928 136.683 439.819 136.587C439.71 136.492 439.631 136.366 439.593 136.225L430.383 105.185C430.348 105.063 430.344 104.934 430.372 104.81C430.4 104.686 430.459 104.571 430.543 104.475C430.627 104.38 430.734 104.308 430.854 104.266C430.974 104.223 431.102 104.211 431.228 104.232L481.99 112.945C482.135 112.969 482.27 113.036 482.376 113.138C482.483 113.239 482.557 113.37 482.589 113.514L488.913 142.91C488.941 143.027 488.938 143.149 488.906 143.264C488.874 143.38 488.813 143.485 488.729 143.571C488.649 143.644 488.553 143.698 488.45 143.73C488.346 143.762 488.237 143.77 488.13 143.755V143.755ZM440.821 135.396L487.178 142.111L481.207 114.328L432.087 105.953L440.821 135.396Z" fill="#231F20"/>
<path d="M511.738 135.35H511.616L501.346 133.582C501.175 133.551 501.02 133.463 500.905 133.332C500.791 133.2 500.725 133.034 500.717 132.86L500.395 120.567C500.386 120.378 500.452 120.193 500.579 120.052C500.705 119.911 500.881 119.826 501.07 119.814L519.229 117.939L511.155 90.1409C511.102 89.9514 511.126 89.7489 511.221 89.5766C511.315 89.4043 511.474 89.2759 511.662 89.2189C511.756 89.1905 511.856 89.1812 511.954 89.1913C512.052 89.2015 512.148 89.2309 512.235 89.278C512.322 89.3251 512.399 89.3889 512.461 89.4658C512.523 89.5427 512.57 89.6311 512.598 89.726L520.902 118.323C520.934 118.426 520.942 118.535 520.926 118.641C520.91 118.747 520.87 118.849 520.81 118.938C520.749 119.029 520.67 119.106 520.577 119.164C520.485 119.222 520.381 119.26 520.273 119.276L501.853 121.166L502.16 132.184L511.83 133.844C511.931 133.853 512.029 133.882 512.119 133.929C512.209 133.976 512.288 134.04 512.353 134.118C512.418 134.195 512.467 134.285 512.497 134.382C512.527 134.479 512.538 134.58 512.529 134.681C512.52 134.782 512.491 134.88 512.444 134.97C512.397 135.06 512.333 135.139 512.255 135.204C512.178 135.269 512.088 135.318 511.991 135.348C511.895 135.379 511.793 135.389 511.692 135.38L511.738 135.35Z" fill="#231F20"/>
<path d="M444.367 183.878C443.521 183.094 442.635 182.356 441.712 181.665C439.716 180.128 435.433 177.961 434.205 181.496C433.438 183.678 434.62 186.582 435.433 188.595C437.04 192.445 439.49 195.885 442.602 198.66C445.319 201.119 453.976 204.669 453.347 197.815C453.18 196.575 452.785 195.376 452.18 194.281C450.227 190.368 447.58 186.843 444.367 183.878V183.878Z" fill="white"/>
<path d="M450.154 202.487C447.206 202.248 444.409 201.086 442.157 199.167C438.967 196.324 436.454 192.8 434.804 188.856C433.975 186.797 432.717 183.708 433.561 181.265C433.712 180.753 433.985 180.285 434.356 179.902C434.728 179.52 435.187 179.233 435.694 179.068C438.196 178.315 441.497 180.604 442.126 181.127C443.064 181.828 443.966 182.577 444.828 183.37V183.37C448.111 186.389 450.816 189.982 452.81 193.973C453.45 195.146 453.866 196.428 454.038 197.754C454.283 200.427 453.178 201.58 452.196 202.056C451.559 202.361 450.859 202.508 450.154 202.487V202.487ZM436.769 180.282C436.54 180.279 436.313 180.31 436.094 180.374C435.788 180.475 435.514 180.652 435.297 180.889C435.079 181.125 434.925 181.414 434.85 181.726C434.175 183.662 435.311 186.474 436.063 188.334C437.632 192.09 440.024 195.446 443.062 198.153C444.997 199.92 449.54 201.872 451.597 200.842C452.472 200.397 452.825 199.429 452.687 197.877C452.519 196.723 452.145 195.609 451.582 194.588C449.677 190.74 447.074 187.28 443.907 184.385C443.078 183.616 442.203 182.848 441.313 182.218C440.014 181.151 438.437 180.479 436.769 180.282V180.282Z" fill="#231F20"/>
<path d="M473.609 187.704C473.018 187.289 472.303 187.089 471.583 187.135C471.131 187.243 470.717 187.471 470.385 187.796C469.767 188.434 469.299 189.203 469.018 190.046C468.736 190.889 468.648 191.785 468.758 192.667C468.979 194.428 469.525 196.132 470.37 197.692C472.719 202.579 475.896 207.312 480.609 209.985C481.454 210.488 482.378 210.846 483.341 211.046C491.722 212.582 488.253 204.254 486.196 200.489C483.28 195.13 478.919 190.7 473.609 187.704Z" fill="white"/>
<path d="M485.137 211.876C484.493 211.869 483.851 211.808 483.218 211.691C482.184 211.479 481.193 211.094 480.286 210.554C476.142 208.218 472.703 204.115 469.756 198C468.884 196.358 468.312 194.572 468.068 192.729C467.946 191.743 468.05 190.742 468.371 189.802C468.693 188.862 469.224 188.008 469.925 187.304C470.346 186.885 470.879 186.597 471.46 186.474C472.332 186.391 473.205 186.614 473.931 187.105C479.343 190.163 483.797 194.67 486.795 200.12C488.33 202.855 490.525 207.803 488.683 210.4C488.259 210.92 487.713 211.326 487.094 211.583C486.476 211.841 485.803 211.941 485.137 211.876V211.876ZM471.874 187.796H471.69C471.369 187.879 471.077 188.05 470.846 188.288C470.3 188.851 469.89 189.531 469.645 190.276C469.4 191.022 469.328 191.813 469.434 192.59C469.642 194.271 470.162 195.897 470.969 197.385C473.778 203.255 477.109 207.158 480.915 209.34C481.692 209.81 482.544 210.143 483.433 210.324C485.536 210.708 486.917 210.447 487.531 209.586C488.729 207.911 487.301 203.931 485.567 200.765C482.712 195.544 478.459 191.223 473.287 188.288C472.862 188.013 472.378 187.845 471.874 187.796V187.796Z" fill="#231F20"/>
<path d="M470.247 161.35C470.062 161.351 469.883 161.281 469.747 161.156C469.61 161.031 469.526 160.859 469.51 160.674C469.51 160.336 468.666 152.084 470.078 147.382C470.106 147.288 470.151 147.2 470.212 147.124C470.273 147.048 470.348 146.984 470.434 146.937C470.52 146.89 470.613 146.86 470.71 146.85C470.807 146.839 470.906 146.847 470.999 146.875C471.093 146.902 471.181 146.947 471.257 147.008C471.333 147.069 471.396 147.145 471.443 147.231C471.49 147.316 471.52 147.41 471.531 147.507C471.542 147.604 471.533 147.703 471.506 147.797C470.186 152.222 470.969 160.459 470.984 160.536C471.001 160.733 470.94 160.929 470.813 161.082C470.687 161.234 470.506 161.331 470.309 161.35H470.247Z" fill="white"/>
<path d="M380.342 103.433H75.3992C68.9986 103.433 63.8099 108.627 63.8099 115.035V324.498C63.8099 330.905 68.9986 336.1 75.3992 336.1H380.342C386.743 336.1 391.932 330.905 391.932 324.498V115.035C391.932 108.627 386.743 103.433 380.342 103.433Z" fill="white"/>
<path d="M380.342 336.853H75.3992C72.1486 336.833 69.0368 335.531 66.7382 333.23C64.4396 330.929 63.1393 327.814 63.1192 324.559V115.035C63.1192 111.774 64.413 108.648 66.7159 106.342C69.0189 104.037 72.1423 102.742 75.3992 102.742H380.342C383.599 102.742 386.723 104.037 389.026 106.342C391.329 108.648 392.622 111.774 392.622 115.035V324.513C392.628 326.132 392.315 327.735 391.701 329.232C391.086 330.729 390.183 332.089 389.042 333.236C387.901 334.382 386.545 335.292 385.052 335.913C383.559 336.533 381.959 336.853 380.342 336.853V336.853ZM75.3992 104.186C72.5236 104.186 69.7656 105.329 67.7308 107.363C65.696 109.397 64.5508 112.156 64.5468 115.035V324.513C64.5508 327.392 65.696 330.151 67.7308 332.186C69.7656 334.22 72.5236 335.362 75.3992 335.362H380.342C383.215 335.358 385.969 334.214 388.001 332.18C390.032 330.146 391.175 327.389 391.179 324.513V115.035C391.175 112.159 390.032 109.402 388.001 107.368C385.969 105.334 383.215 104.19 380.342 104.186H75.3992Z" fill="#231F20"/>
<path d="M379.79 133.521H75.9365V323.868H379.79V133.521Z" fill="#231F20"/>
<path d="M379.79 324.636H75.9364C75.7329 324.636 75.5377 324.555 75.3937 324.411C75.2498 324.267 75.1689 324.072 75.1689 323.868V133.521C75.1689 133.317 75.2498 133.122 75.3937 132.978C75.5377 132.834 75.7329 132.753 75.9364 132.753H379.866C380.07 132.753 380.265 132.834 380.409 132.978C380.553 133.122 380.634 133.317 380.634 133.521V323.868C380.634 323.976 380.612 324.082 380.569 324.181C380.526 324.279 380.462 324.368 380.383 324.44C380.303 324.513 380.209 324.568 380.107 324.601C380.005 324.635 379.897 324.647 379.79 324.636ZM76.75 323.1H379.145V134.289H76.75V323.1Z" fill="#231F20"/>
<path d="M379.79 115.665H75.9365V133.521H379.79V115.665Z" fill="black"/>
<path d="M379.79 134.289H75.9364C75.7329 134.289 75.5377 134.208 75.3937 134.064C75.2498 133.92 75.1689 133.725 75.1689 133.521V115.665C75.1689 115.461 75.2498 115.266 75.3937 115.122C75.5377 114.978 75.7329 114.897 75.9364 114.897H379.866C380.07 114.897 380.265 114.978 380.409 115.122C380.553 115.266 380.634 115.461 380.634 115.665V133.521C380.634 133.629 380.612 133.735 380.569 133.834C380.526 133.932 380.462 134.021 380.383 134.093C380.303 134.166 380.209 134.221 380.107 134.254C380.005 134.288 379.897 134.3 379.79 134.289ZM76.75 132.753H379.145V116.433H76.75V132.753Z" fill="#BABABA"/>
<path d="M136.861 152.468H110.766C110.668 152.47 110.57 152.453 110.479 152.416C110.388 152.38 110.305 152.326 110.235 152.258C110.165 152.189 110.109 152.107 110.071 152.016C110.033 151.926 110.013 151.829 110.013 151.73C110.013 151.531 110.093 151.339 110.234 151.198C110.375 151.057 110.566 150.978 110.766 150.978H136.861C136.959 150.977 137.056 150.997 137.146 151.035C137.237 151.073 137.318 151.129 137.387 151.199C137.456 151.269 137.51 151.352 137.546 151.443C137.582 151.535 137.599 151.632 137.597 151.73C137.599 151.828 137.582 151.925 137.546 152.015C137.509 152.106 137.455 152.188 137.386 152.257C137.317 152.326 137.235 152.38 137.145 152.416C137.055 152.453 136.958 152.47 136.861 152.468Z" fill="white"/>
<path d="M195.728 152.468H143.538C143.441 152.47 143.344 152.453 143.253 152.416C143.163 152.38 143.081 152.326 143.012 152.257C142.943 152.188 142.889 152.106 142.853 152.015C142.817 151.925 142.799 151.828 142.801 151.73C142.799 151.632 142.817 151.535 142.853 151.443C142.889 151.352 142.943 151.269 143.011 151.199C143.08 151.129 143.162 151.073 143.252 151.035C143.343 150.997 143.44 150.977 143.538 150.978H195.728C195.927 150.978 196.119 151.057 196.26 151.198C196.401 151.339 196.48 151.531 196.48 151.73C196.48 151.829 196.46 151.926 196.423 152.016C196.385 152.107 196.329 152.189 196.259 152.258C196.189 152.326 196.106 152.38 196.015 152.416C195.923 152.453 195.826 152.47 195.728 152.468V152.468Z" fill="#B5B9FF"/>
<path d="M213.764 163.409H161.574C161.371 163.409 161.175 163.328 161.031 163.184C160.888 163.04 160.807 162.845 160.807 162.641C160.807 162.437 160.888 162.242 161.031 162.098C161.175 161.953 161.371 161.872 161.574 161.872H213.764C213.968 161.872 214.163 161.953 214.307 162.098C214.451 162.242 214.532 162.437 214.532 162.641C214.532 162.845 214.451 163.04 214.307 163.184C214.163 163.328 213.968 163.409 213.764 163.409Z" fill="#B5B9FF"/>
<path d="M142.985 163.409H116.89C116.687 163.409 116.491 163.328 116.348 163.184C116.204 163.04 116.123 162.845 116.123 162.641C116.123 162.437 116.204 162.242 116.348 162.098C116.491 161.953 116.687 161.872 116.89 161.872H142.985C143.189 161.872 143.384 161.953 143.528 162.098C143.672 162.242 143.753 162.437 143.753 162.641C143.753 162.845 143.672 163.04 143.528 163.184C143.384 163.328 143.189 163.409 142.985 163.409Z" fill="white"/>
<path d="M149.125 174.335H123.03C122.831 174.335 122.639 174.256 122.498 174.114C122.357 173.973 122.278 173.782 122.278 173.582C122.278 173.484 122.298 173.387 122.336 173.296C122.374 173.206 122.429 173.124 122.499 173.055C122.569 172.986 122.652 172.932 122.744 172.896C122.835 172.86 122.932 172.842 123.03 172.844H149.125C149.223 172.842 149.319 172.86 149.41 172.896C149.5 172.932 149.582 172.987 149.651 173.056C149.72 173.125 149.774 173.207 149.81 173.297C149.847 173.388 149.864 173.484 149.862 173.582C149.864 173.68 149.847 173.778 149.81 173.869C149.774 173.96 149.72 174.043 149.652 174.113C149.583 174.184 149.501 174.239 149.411 174.277C149.32 174.315 149.223 174.335 149.125 174.335V174.335Z" fill="white"/>
<path d="M223.082 174.335H157.829C157.731 174.335 157.634 174.315 157.543 174.277C157.453 174.239 157.371 174.184 157.302 174.113C157.234 174.043 157.18 173.96 157.144 173.869C157.107 173.778 157.09 173.68 157.092 173.582C157.09 173.484 157.107 173.388 157.144 173.297C157.18 173.207 157.234 173.125 157.303 173.056C157.372 172.987 157.454 172.932 157.544 172.896C157.635 172.86 157.731 172.842 157.829 172.844H223.082C223.18 172.842 223.277 172.86 223.368 172.896C223.459 172.932 223.542 172.986 223.612 173.055C223.683 173.124 223.738 173.206 223.776 173.296C223.814 173.387 223.834 173.484 223.834 173.582C223.834 173.782 223.754 173.973 223.613 174.114C223.472 174.256 223.281 174.335 223.082 174.335Z" fill="#B5B9FF"/>
<path d="M155.25 185.261H129.155C128.958 185.257 128.771 185.175 128.633 185.035C128.495 184.894 128.418 184.705 128.418 184.508C128.418 184.312 128.496 184.124 128.634 183.986C128.772 183.848 128.959 183.77 129.155 183.77H155.25C155.348 183.768 155.445 183.785 155.537 183.822C155.628 183.858 155.711 183.912 155.781 183.981C155.851 184.049 155.907 184.131 155.945 184.222C155.983 184.312 156.002 184.409 156.002 184.508C156.002 184.707 155.923 184.899 155.782 185.04C155.641 185.181 155.449 185.261 155.25 185.261V185.261Z" fill="white"/>
<path d="M236.574 185.261H158.995C158.796 185.261 158.604 185.181 158.463 185.04C158.322 184.899 158.243 184.707 158.243 184.508C158.243 184.409 158.263 184.312 158.301 184.222C158.339 184.131 158.394 184.049 158.464 183.981C158.534 183.912 158.617 183.858 158.709 183.822C158.8 183.785 158.897 183.768 158.995 183.77H236.574C236.672 183.768 236.77 183.785 236.861 183.822C236.952 183.858 237.035 183.912 237.105 183.981C237.175 184.049 237.231 184.131 237.269 184.222C237.307 184.312 237.326 184.409 237.326 184.508C237.326 184.707 237.247 184.899 237.106 185.04C236.965 185.181 236.774 185.261 236.574 185.261V185.261Z" fill="#B5B9FF"/>
<path d="M148.327 196.186H122.232C122.028 196.186 121.833 196.105 121.689 195.961C121.545 195.817 121.465 195.622 121.465 195.418C121.465 195.214 121.545 195.019 121.689 194.875C121.833 194.731 122.028 194.65 122.232 194.65H148.327C148.531 194.65 148.726 194.731 148.87 194.875C149.014 195.019 149.095 195.214 149.095 195.418C149.095 195.622 149.014 195.817 148.87 195.961C148.726 196.105 148.531 196.186 148.327 196.186Z" fill="white"/>
<path d="M195.728 196.186H153.653C153.45 196.186 153.255 196.105 153.111 195.961C152.967 195.817 152.886 195.622 152.886 195.418C152.886 195.214 152.967 195.019 153.111 194.875C153.255 194.731 153.45 194.65 153.653 194.65H195.728C195.931 194.65 196.127 194.731 196.271 194.875C196.414 195.019 196.495 195.214 196.495 195.418C196.495 195.622 196.414 195.817 196.271 195.961C196.127 196.105 195.931 196.186 195.728 196.186V196.186Z" fill="#B5B9FF"/>
<path d="M253.874 196.186H211.83C211.626 196.186 211.431 196.105 211.287 195.961C211.143 195.817 211.062 195.622 211.062 195.418C211.062 195.214 211.143 195.019 211.287 194.875C211.431 194.731 211.626 194.65 211.83 194.65H253.904C254.108 194.65 254.303 194.731 254.447 194.875C254.591 195.019 254.672 195.214 254.672 195.418C254.672 195.622 254.591 195.817 254.447 195.961C254.303 196.105 254.108 196.186 253.904 196.186H253.874Z" fill="#B5B9FF"/>
<path d="M148.327 207.112H122.232C122.028 207.112 121.833 207.031 121.689 206.887C121.545 206.743 121.465 206.547 121.465 206.344C121.465 206.14 121.545 205.944 121.689 205.8C121.833 205.656 122.028 205.575 122.232 205.575H148.327C148.531 205.575 148.726 205.656 148.87 205.8C149.014 205.944 149.095 206.14 149.095 206.344C149.095 206.547 149.014 206.743 148.87 206.887C148.726 207.031 148.531 207.112 148.327 207.112Z" fill="white"/>
<path d="M195.728 207.112H158.995C158.792 207.112 158.597 207.031 158.453 206.887C158.309 206.743 158.228 206.547 158.228 206.344C158.228 206.14 158.309 205.944 158.453 205.8C158.597 205.656 158.792 205.575 158.995 205.575H195.728C195.931 205.575 196.127 205.656 196.271 205.8C196.414 205.944 196.495 206.14 196.495 206.344C196.495 206.547 196.414 206.743 196.271 206.887C196.127 207.031 195.931 207.112 195.728 207.112V207.112Z" fill="#B5B9FF"/>
<path d="M216.942 207.112H201.929C201.726 207.112 201.53 207.031 201.387 206.887C201.243 206.743 201.162 206.547 201.162 206.344C201.162 206.14 201.243 205.944 201.387 205.8C201.53 205.656 201.726 205.575 201.929 205.575H216.942C217.145 205.575 217.34 205.656 217.484 205.8C217.628 205.944 217.709 206.14 217.709 206.344C217.709 206.547 217.628 206.743 217.484 206.887C217.34 207.031 217.145 207.112 216.942 207.112Z" fill="#B5B9FF"/>
<path d="M148.327 218.038H122.232C122.134 218.04 122.037 218.022 121.945 217.986C121.854 217.95 121.771 217.896 121.701 217.827C121.631 217.758 121.575 217.676 121.537 217.586C121.499 217.495 121.48 217.398 121.48 217.3C121.48 217.1 121.559 216.909 121.7 216.768C121.841 216.626 122.033 216.547 122.232 216.547H148.327C148.425 216.547 148.522 216.567 148.613 216.605C148.703 216.643 148.785 216.698 148.854 216.768C148.922 216.839 148.976 216.922 149.012 217.013C149.048 217.104 149.066 217.202 149.064 217.3C149.066 217.397 149.048 217.494 149.012 217.585C148.976 217.675 148.922 217.757 148.853 217.826C148.784 217.895 148.702 217.949 148.611 217.986C148.521 218.022 148.424 218.04 148.327 218.038V218.038Z" fill="white"/>
<path d="M208.913 218.038H155.188C154.993 218.038 154.806 217.96 154.667 217.822C154.529 217.683 154.452 217.496 154.452 217.3C154.452 217.103 154.529 216.914 154.667 216.773C154.804 216.632 154.992 216.551 155.188 216.547H208.913C209.113 216.547 209.304 216.626 209.445 216.768C209.586 216.909 209.666 217.1 209.666 217.3C209.666 217.398 209.646 217.495 209.608 217.586C209.57 217.676 209.514 217.758 209.444 217.827C209.374 217.896 209.291 217.95 209.2 217.986C209.109 218.022 209.012 218.04 208.913 218.038V218.038Z" fill="#B5B9FF"/>
<path d="M241.363 218.038H215.268C215.17 218.04 215.073 218.022 214.982 217.986C214.891 217.95 214.807 217.896 214.737 217.827C214.667 217.758 214.612 217.676 214.574 217.586C214.536 217.495 214.516 217.398 214.516 217.3C214.516 217.1 214.595 216.909 214.737 216.768C214.878 216.626 215.069 216.547 215.268 216.547H241.363C241.56 216.551 241.748 216.632 241.885 216.773C242.023 216.914 242.1 217.103 242.1 217.3C242.1 217.496 242.023 217.683 241.884 217.822C241.746 217.96 241.559 218.038 241.363 218.038V218.038Z" fill="#B5B9FF"/>
<path d="M129.922 228.963H116.107C115.904 228.963 115.709 228.882 115.565 228.738C115.421 228.594 115.34 228.399 115.34 228.195C115.34 227.991 115.421 227.796 115.565 227.652C115.709 227.508 115.904 227.427 116.107 227.427H129.922C130.126 227.427 130.321 227.508 130.465 227.652C130.609 227.796 130.69 227.991 130.69 228.195C130.69 228.399 130.609 228.594 130.465 228.738C130.321 228.882 130.126 228.963 129.922 228.963Z" fill="white"/>
<path d="M201.929 228.963H141.389C141.185 228.963 140.99 228.882 140.846 228.738C140.702 228.594 140.621 228.399 140.621 228.195C140.621 227.991 140.702 227.796 140.846 227.652C140.99 227.508 141.185 227.427 141.389 227.427H201.929C202.133 227.427 202.328 227.508 202.472 227.652C202.616 227.796 202.697 227.991 202.697 228.195C202.697 228.399 202.616 228.594 202.472 228.738C202.328 228.882 202.133 228.963 201.929 228.963Z" fill="#B5B9FF"/>
<path d="M142.187 239.904H116.092C115.888 239.904 115.693 239.823 115.549 239.679C115.405 239.535 115.325 239.34 115.325 239.136C115.325 238.932 115.405 238.737 115.549 238.593C115.693 238.449 115.888 238.368 116.092 238.368H142.187C142.391 238.368 142.586 238.449 142.73 238.593C142.874 238.737 142.955 238.932 142.955 239.136C142.955 239.34 142.874 239.535 142.73 239.679C142.586 239.823 142.391 239.904 142.187 239.904Z" fill="white"/>
<path d="M172.058 250.83H119.868C119.77 250.83 119.673 250.811 119.583 250.773C119.492 250.735 119.41 250.679 119.342 250.609C119.273 250.539 119.219 250.455 119.183 250.364C119.147 250.273 119.129 250.175 119.131 250.077C119.129 249.98 119.147 249.883 119.183 249.792C119.219 249.702 119.274 249.62 119.342 249.551C119.411 249.482 119.493 249.428 119.584 249.391C119.674 249.355 119.771 249.337 119.868 249.34H172.058C172.156 249.337 172.254 249.355 172.345 249.391C172.436 249.427 172.519 249.481 172.589 249.55C172.659 249.619 172.715 249.701 172.753 249.791C172.791 249.882 172.81 249.979 172.81 250.077C172.81 250.277 172.731 250.468 172.59 250.61C172.449 250.751 172.258 250.83 172.058 250.83Z" fill="white"/>
<path d="M216.942 250.83H180.7C180.602 250.83 180.505 250.811 180.415 250.773C180.324 250.735 180.242 250.679 180.174 250.609C180.105 250.539 180.051 250.455 180.015 250.364C179.979 250.273 179.961 250.175 179.963 250.077C179.961 249.98 179.979 249.883 180.015 249.792C180.052 249.702 180.106 249.62 180.175 249.551C180.243 249.482 180.325 249.428 180.416 249.391C180.506 249.355 180.603 249.337 180.7 249.34H216.942C217.04 249.337 217.137 249.355 217.228 249.391C217.319 249.427 217.402 249.481 217.472 249.55C217.543 249.619 217.598 249.701 217.636 249.791C217.674 249.882 217.694 249.979 217.694 250.077C217.694 250.277 217.614 250.468 217.473 250.61C217.332 250.751 217.141 250.83 216.942 250.83Z" fill="#B5B9FF"/>
<path d="M266.998 250.83H222.13C222.032 250.83 221.935 250.811 221.844 250.773C221.754 250.735 221.672 250.679 221.603 250.609C221.535 250.539 221.481 250.455 221.445 250.364C221.409 250.273 221.391 250.175 221.393 250.077C221.391 249.98 221.409 249.883 221.445 249.792C221.481 249.702 221.535 249.62 221.604 249.551C221.673 249.482 221.755 249.428 221.845 249.391C221.936 249.355 222.033 249.337 222.13 249.34H266.998C267.193 249.34 267.381 249.417 267.519 249.556C267.657 249.694 267.735 249.882 267.735 250.077C267.735 250.274 267.658 250.463 267.52 250.604C267.382 250.745 267.195 250.826 266.998 250.83Z" fill="#B5B9FF"/>
<path d="M198.184 261.756H122.201C122.002 261.756 121.811 261.676 121.67 261.535C121.528 261.394 121.449 261.203 121.449 261.003C121.449 260.905 121.469 260.807 121.507 260.717C121.545 260.626 121.6 260.544 121.67 260.476C121.74 260.407 121.824 260.353 121.915 260.317C122.006 260.281 122.103 260.263 122.201 260.265H198.184C198.282 260.263 198.379 260.281 198.471 260.317C198.562 260.353 198.645 260.407 198.715 260.476C198.785 260.544 198.841 260.626 198.879 260.717C198.916 260.807 198.936 260.905 198.936 261.003C198.936 261.203 198.857 261.394 198.716 261.535C198.575 261.676 198.383 261.756 198.184 261.756Z" fill="white"/>
<path d="M237.557 261.756H203.372C203.173 261.756 202.981 261.676 202.84 261.535C202.699 261.394 202.62 261.203 202.62 261.003C202.62 260.905 202.64 260.807 202.678 260.717C202.716 260.626 202.771 260.544 202.841 260.476C202.911 260.407 202.994 260.353 203.085 260.317C203.177 260.281 203.274 260.263 203.372 260.265H237.557C237.654 260.263 237.751 260.281 237.841 260.317C237.931 260.353 238.013 260.408 238.082 260.477C238.151 260.546 238.205 260.628 238.242 260.718C238.278 260.809 238.295 260.905 238.293 261.003C238.295 261.101 238.278 261.199 238.242 261.29C238.206 261.381 238.152 261.464 238.083 261.534C238.014 261.604 237.933 261.66 237.842 261.698C237.752 261.736 237.655 261.756 237.557 261.756V261.756Z" fill="#B5B9FF"/>
<path d="M344.991 261.756H243.344C243.147 261.752 242.959 261.671 242.822 261.53C242.684 261.389 242.607 261.2 242.607 261.003C242.607 260.807 242.684 260.62 242.823 260.481C242.961 260.343 243.148 260.265 243.344 260.265H344.991C345.089 260.263 345.187 260.281 345.278 260.317C345.369 260.353 345.452 260.407 345.522 260.476C345.592 260.544 345.648 260.626 345.686 260.717C345.724 260.807 345.743 260.905 345.743 261.003C345.743 261.203 345.664 261.394 345.523 261.535C345.382 261.676 345.191 261.756 344.991 261.756Z" fill="#B5B9FF"/>
<path d="M157.829 272.681H121.894C121.691 272.681 121.496 272.601 121.352 272.456C121.208 272.312 121.127 272.117 121.127 271.913C121.127 271.709 121.208 271.514 121.352 271.37C121.496 271.226 121.691 271.145 121.894 271.145H157.829C158.032 271.145 158.228 271.226 158.371 271.37C158.515 271.514 158.596 271.709 158.596 271.913C158.596 272.117 158.515 272.312 158.371 272.456C158.228 272.601 158.032 272.681 157.829 272.681Z" fill="white"/>
<path d="M191.445 272.681H164.982C164.778 272.681 164.583 272.601 164.439 272.456C164.295 272.312 164.214 272.117 164.214 271.913C164.214 271.709 164.295 271.514 164.439 271.37C164.583 271.226 164.778 271.145 164.982 271.145H191.445C191.649 271.145 191.844 271.226 191.988 271.37C192.132 271.514 192.213 271.709 192.213 271.913C192.213 272.117 192.132 272.312 191.988 272.456C191.844 272.601 191.649 272.681 191.445 272.681Z" fill="#B5B9FF"/>
<path d="M225.031 272.681H198.568C198.364 272.681 198.169 272.601 198.025 272.456C197.881 272.312 197.8 272.117 197.8 271.913C197.8 271.709 197.881 271.514 198.025 271.37C198.169 271.226 198.364 271.145 198.568 271.145H225.031C225.235 271.145 225.43 271.226 225.574 271.37C225.718 271.514 225.799 271.709 225.799 271.913C225.799 272.117 225.718 272.312 225.574 272.456C225.43 272.601 225.235 272.681 225.031 272.681Z" fill="#B5B9FF"/>
<path d="M185.428 283.607H121.894C121.796 283.609 121.699 283.592 121.608 283.556C121.517 283.519 121.433 283.465 121.363 283.397C121.293 283.328 121.238 283.246 121.2 283.155C121.162 283.065 121.142 282.968 121.142 282.87C121.142 282.67 121.221 282.478 121.363 282.337C121.504 282.196 121.695 282.117 121.894 282.117H185.428C185.628 282.117 185.819 282.196 185.96 282.337C186.101 282.478 186.18 282.67 186.18 282.87C186.18 282.968 186.161 283.065 186.123 283.155C186.085 283.246 186.029 283.328 185.959 283.397C185.889 283.465 185.806 283.519 185.715 283.556C185.624 283.592 185.526 283.609 185.428 283.607V283.607Z" fill="white"/>
<path d="M225.031 283.607H193.257C193.159 283.609 193.062 283.592 192.972 283.555C192.882 283.519 192.8 283.465 192.731 283.396C192.662 283.327 192.608 283.245 192.572 283.154C192.535 283.064 192.518 282.967 192.52 282.87C192.518 282.771 192.535 282.674 192.571 282.583C192.607 282.491 192.661 282.408 192.73 282.338C192.799 282.268 192.881 282.212 192.971 282.174C193.061 282.136 193.158 282.117 193.257 282.117H225.031C225.129 282.117 225.226 282.136 225.317 282.174C225.407 282.212 225.489 282.268 225.557 282.338C225.626 282.408 225.68 282.491 225.716 282.583C225.752 282.674 225.77 282.771 225.768 282.87C225.77 282.967 225.752 283.064 225.716 283.154C225.68 283.245 225.625 283.327 225.557 283.396C225.488 283.465 225.406 283.519 225.315 283.555C225.225 283.592 225.128 283.609 225.031 283.607V283.607Z" fill="#B5B9FF"/>
<path d="M281.212 283.607H232.829C232.731 283.609 232.635 283.592 232.544 283.555C232.454 283.519 232.372 283.465 232.303 283.396C232.234 283.327 232.18 283.245 232.144 283.154C232.108 283.064 232.09 282.967 232.092 282.87C232.09 282.771 232.108 282.674 232.144 282.583C232.18 282.491 232.234 282.408 232.302 282.338C232.371 282.268 232.453 282.212 232.543 282.174C232.634 282.136 232.731 282.117 232.829 282.117H281.212C281.311 282.117 281.409 282.136 281.5 282.174C281.591 282.212 281.674 282.267 281.744 282.337C281.814 282.407 281.869 282.49 281.907 282.581C281.945 282.673 281.964 282.771 281.964 282.87C281.964 282.968 281.945 283.065 281.907 283.155C281.869 283.246 281.813 283.328 281.743 283.397C281.673 283.465 281.59 283.519 281.499 283.556C281.407 283.592 281.31 283.609 281.212 283.607V283.607Z" fill="#B5B9FF"/>
<path d="M334.63 283.607H286.308C286.21 283.609 286.113 283.592 286.022 283.556C285.93 283.519 285.847 283.465 285.777 283.397C285.707 283.328 285.652 283.246 285.614 283.155C285.576 283.065 285.556 282.968 285.556 282.87C285.556 282.67 285.635 282.478 285.776 282.337C285.917 282.196 286.109 282.117 286.308 282.117H334.63C334.829 282.117 335.021 282.196 335.162 282.337C335.303 282.478 335.382 282.67 335.382 282.87C335.382 282.968 335.363 283.065 335.325 283.155C335.287 283.246 335.231 283.328 335.161 283.397C335.091 283.465 335.008 283.519 334.917 283.556C334.826 283.592 334.728 283.609 334.63 283.607V283.607Z" fill="#B5B9FF"/>
<path d="M175.865 294.533H137.966C137.868 294.535 137.77 294.517 137.679 294.481C137.588 294.445 137.505 294.391 137.435 294.322C137.365 294.254 137.309 294.172 137.271 294.081C137.233 293.991 137.214 293.893 137.214 293.795C137.214 293.696 137.233 293.599 137.271 293.507C137.309 293.416 137.364 293.333 137.434 293.263C137.504 293.193 137.587 293.137 137.678 293.1C137.769 293.062 137.867 293.042 137.966 293.042H175.865C175.963 293.042 176.06 293.062 176.15 293.1C176.241 293.138 176.323 293.194 176.391 293.264C176.46 293.334 176.514 293.417 176.55 293.508C176.586 293.6 176.604 293.697 176.602 293.795C176.604 293.893 176.586 293.99 176.55 294.08C176.514 294.17 176.459 294.253 176.391 294.322C176.322 294.39 176.24 294.445 176.149 294.481C176.059 294.517 175.962 294.535 175.865 294.533V294.533Z" fill="white"/>
<path d="M220.871 294.533H182.972C182.875 294.535 182.778 294.517 182.688 294.481C182.597 294.445 182.515 294.39 182.446 294.322C182.378 294.253 182.323 294.17 182.287 294.08C182.251 293.99 182.233 293.893 182.235 293.795C182.233 293.697 182.251 293.6 182.287 293.508C182.323 293.417 182.377 293.334 182.446 293.264C182.514 293.194 182.596 293.138 182.686 293.1C182.777 293.062 182.874 293.042 182.972 293.042H220.871C220.97 293.042 221.068 293.062 221.159 293.1C221.25 293.137 221.333 293.193 221.403 293.263C221.473 293.333 221.528 293.416 221.566 293.507C221.604 293.599 221.623 293.696 221.623 293.795C221.623 293.893 221.604 293.991 221.566 294.081C221.528 294.172 221.472 294.254 221.402 294.322C221.332 294.391 221.249 294.445 221.158 294.481C221.067 294.517 220.969 294.535 220.871 294.533Z" fill="#B5B9FF"/>
<path d="M266.2 294.533H228.301C228.202 294.535 228.105 294.517 228.014 294.481C227.923 294.445 227.84 294.391 227.77 294.322C227.7 294.254 227.644 294.172 227.606 294.081C227.568 293.991 227.548 293.893 227.548 293.795C227.548 293.696 227.568 293.599 227.606 293.507C227.643 293.416 227.699 293.333 227.769 293.263C227.839 293.193 227.921 293.137 228.013 293.1C228.104 293.062 228.202 293.042 228.301 293.042H266.2C266.298 293.042 266.395 293.062 266.485 293.1C266.576 293.138 266.658 293.194 266.726 293.264C266.795 293.334 266.849 293.417 266.885 293.508C266.921 293.6 266.939 293.697 266.937 293.795C266.939 293.893 266.921 293.99 266.885 294.08C266.848 294.17 266.794 294.253 266.725 294.322C266.657 294.39 266.574 294.445 266.484 294.481C266.394 294.517 266.297 294.535 266.2 294.533V294.533Z" fill="#B5B9FF"/>
<path d="M313.14 295.762H275.226C275.022 295.762 274.827 295.681 274.683 295.537C274.539 295.393 274.458 295.198 274.458 294.994C274.458 294.79 274.539 294.595 274.683 294.451C274.827 294.307 275.022 294.226 275.226 294.226H313.14C313.344 294.226 313.539 294.307 313.683 294.451C313.827 294.595 313.907 294.79 313.907 294.994C313.907 295.198 313.827 295.393 313.683 295.537C313.539 295.681 313.344 295.762 313.14 295.762Z" fill="#B5B9FF"/>
<path d="M169.725 305.459H143.63C143.533 305.461 143.436 305.443 143.346 305.407C143.255 305.37 143.173 305.316 143.104 305.247C143.035 305.178 142.981 305.096 142.945 305.006C142.909 304.915 142.891 304.818 142.893 304.721C142.891 304.623 142.909 304.525 142.945 304.434C142.981 304.343 143.035 304.26 143.103 304.189C143.172 304.119 143.254 304.064 143.344 304.026C143.435 303.988 143.532 303.968 143.63 303.968H169.725C169.924 303.968 170.116 304.047 170.257 304.189C170.398 304.33 170.477 304.521 170.477 304.721C170.477 304.819 170.458 304.916 170.42 305.007C170.382 305.097 170.326 305.179 170.256 305.248C170.186 305.317 170.103 305.371 170.012 305.407C169.92 305.443 169.823 305.461 169.725 305.459V305.459Z" fill="white"/>
<path d="M201.991 305.459H175.896C175.798 305.461 175.7 305.443 175.609 305.407C175.518 305.371 175.435 305.317 175.365 305.248C175.295 305.179 175.239 305.097 175.201 305.007C175.163 304.916 175.143 304.819 175.143 304.721C175.143 304.521 175.223 304.33 175.364 304.189C175.505 304.047 175.696 303.968 175.896 303.968H201.991C202.089 303.968 202.186 303.988 202.276 304.026C202.367 304.064 202.449 304.119 202.517 304.189C202.586 304.26 202.64 304.343 202.676 304.434C202.712 304.525 202.729 304.623 202.727 304.721C202.73 304.818 202.712 304.915 202.676 305.006C202.639 305.096 202.585 305.178 202.516 305.247C202.447 305.316 202.365 305.37 202.275 305.407C202.185 305.443 202.088 305.461 201.991 305.459V305.459Z" fill="#B5B9FF"/>
<path d="M262.316 306.565L208.376 305.459C208.278 305.459 208.181 305.439 208.091 305.401C208 305.363 207.918 305.307 207.85 305.237C207.781 305.167 207.727 305.084 207.691 304.993C207.655 304.901 207.637 304.804 207.639 304.706C207.637 304.605 207.656 304.506 207.694 304.413C207.732 304.321 207.789 304.237 207.861 304.168C207.933 304.098 208.019 304.045 208.113 304.01C208.207 303.976 208.307 303.962 208.407 303.968L262.347 305.074C262.55 305.074 262.746 305.155 262.89 305.299C263.034 305.444 263.114 305.639 263.114 305.843C263.114 306.047 263.034 306.242 262.89 306.386C262.746 306.53 262.55 306.611 262.347 306.611L262.316 306.565Z" fill="#B5B9FF"/>
<path d="M282.44 185.261H247.135C247.037 185.261 246.94 185.241 246.849 185.203C246.759 185.165 246.677 185.109 246.608 185.039C246.54 184.969 246.486 184.886 246.45 184.795C246.414 184.703 246.396 184.606 246.398 184.508C246.396 184.41 246.414 184.313 246.45 184.223C246.486 184.132 246.54 184.05 246.609 183.981C246.678 183.912 246.76 183.858 246.851 183.822C246.941 183.786 247.038 183.768 247.135 183.77H282.44C282.538 183.768 282.636 183.786 282.727 183.822C282.818 183.858 282.901 183.912 282.971 183.981C283.041 184.049 283.097 184.131 283.135 184.222C283.173 184.312 283.192 184.409 283.192 184.508C283.192 184.707 283.113 184.899 282.972 185.04C282.831 185.181 282.639 185.261 282.44 185.261V185.261Z" fill="#B5B9FF"/>
<path d="M308.535 185.368C301.627 185.368 296.501 185.368 296.255 185.214C296.161 185.188 296.074 185.144 295.997 185.084C295.92 185.023 295.856 184.949 295.809 184.864C295.712 184.692 295.688 184.49 295.741 184.3C295.794 184.111 295.92 183.95 296.091 183.853C296.262 183.757 296.465 183.732 296.654 183.785C298.005 183.954 321.306 183.862 336.718 183.785C336.816 183.783 336.913 183.801 337.004 183.837C337.095 183.873 337.178 183.927 337.249 183.996C337.319 184.065 337.374 184.147 337.412 184.237C337.45 184.328 337.47 184.425 337.47 184.523C337.47 184.723 337.391 184.914 337.249 185.055C337.108 185.197 336.917 185.276 336.718 185.276C328.49 185.307 317.131 185.368 308.535 185.368Z" fill="#B5B9FF"/>
<path d="M276.807 163.409H225.538C225.334 163.409 225.139 163.328 224.995 163.184C224.851 163.04 224.77 162.845 224.77 162.641C224.77 162.437 224.851 162.242 224.995 162.098C225.139 161.953 225.334 161.872 225.538 161.872H276.807C277.01 161.872 277.205 161.953 277.349 162.098C277.493 162.242 277.574 162.437 277.574 162.641C277.574 162.845 277.493 163.04 277.349 163.184C277.205 163.328 277.01 163.409 276.807 163.409Z" fill="#B5B9FF"/>
<path d="M338.13 163.409H287.045C286.841 163.409 286.646 163.328 286.502 163.184C286.358 163.04 286.277 162.845 286.277 162.641C286.277 162.437 286.358 162.242 286.502 162.098C286.646 161.953 286.841 161.872 287.045 161.872H338.068C338.272 161.872 338.467 161.953 338.611 162.098C338.755 162.242 338.836 162.437 338.836 162.641C338.836 162.845 338.755 163.04 338.611 163.184C338.467 163.328 338.272 163.409 338.068 163.409H338.13Z" fill="#B5B9FF"/>
<path d="M228.715 152.53C219.244 152.53 212.03 152.53 211.738 152.53C211.543 152.496 211.37 152.386 211.255 152.225C211.14 152.064 211.093 151.864 211.124 151.669C211.154 151.478 211.258 151.307 211.413 151.192C211.568 151.077 211.762 151.028 211.953 151.054C213.258 151.147 251.111 151.054 270.974 151.054C271.173 151.054 271.364 151.134 271.505 151.275C271.646 151.416 271.726 151.608 271.726 151.807C271.726 151.905 271.706 152.003 271.668 152.093C271.63 152.184 271.575 152.266 271.505 152.334C271.434 152.403 271.351 152.457 271.26 152.493C271.169 152.529 271.072 152.547 270.974 152.545C262.639 152.499 243.052 152.53 228.715 152.53Z" fill="#B5B9FF"/>
<path d="M284.804 152.514C284.667 152.511 284.533 152.469 284.419 152.393C284.305 152.317 284.215 152.21 284.159 152.084C284.084 151.893 284.084 151.682 284.158 151.491C284.232 151.3 284.375 151.144 284.558 151.054C285.157 150.762 297.084 150.732 319.986 151.054C320.182 151.062 320.367 151.144 320.504 151.284C320.641 151.424 320.719 151.611 320.723 151.807C320.723 151.905 320.703 152.003 320.665 152.093C320.627 152.184 320.572 152.266 320.502 152.334C320.432 152.403 320.349 152.457 320.257 152.493C320.166 152.529 320.069 152.547 319.971 152.545V152.545C306.632 152.407 286.354 152.284 285.096 152.545C284.997 152.563 284.896 152.552 284.804 152.514Z" fill="white"/>
<path d="M235.346 228.963H208.913C208.71 228.963 208.515 228.882 208.371 228.738C208.227 228.594 208.146 228.399 208.146 228.195C208.146 227.991 208.227 227.796 208.371 227.652C208.515 227.508 208.71 227.427 208.913 227.427H235.346C235.55 227.427 235.745 227.508 235.889 227.652C236.033 227.796 236.114 227.991 236.114 228.195C236.114 228.399 236.033 228.594 235.889 228.738C235.745 228.882 235.55 228.963 235.346 228.963Z" fill="#B5B9FF"/>
<path d="M174.698 239.904H155.25C155.046 239.904 154.851 239.823 154.707 239.679C154.563 239.535 154.482 239.34 154.482 239.136C154.482 238.932 154.563 238.737 154.707 238.593C154.851 238.449 155.046 238.368 155.25 238.368H174.698C174.902 238.368 175.097 238.449 175.241 238.593C175.385 238.737 175.466 238.932 175.466 239.136C175.466 239.34 175.385 239.535 175.241 239.679C175.097 239.823 174.902 239.904 174.698 239.904Z" fill="#B5B9FF"/>
<path d="M228.301 239.904H182.082C181.878 239.904 181.683 239.823 181.539 239.679C181.395 239.535 181.314 239.34 181.314 239.136C181.314 238.932 181.395 238.737 181.539 238.593C181.683 238.449 181.878 238.368 182.082 238.368H228.301C228.504 238.368 228.699 238.449 228.843 238.593C228.987 238.737 229.068 238.932 229.068 239.136C229.068 239.34 228.987 239.535 228.843 239.679C228.699 239.823 228.504 239.904 228.301 239.904V239.904Z" fill="white"/>
<path d="M327.093 239.904H237.557C237.353 239.904 237.158 239.823 237.014 239.679C236.87 239.535 236.789 239.34 236.789 239.136C236.789 238.932 236.87 238.737 237.014 238.593C237.158 238.449 237.353 238.368 237.557 238.368H327.093C327.297 238.368 327.492 238.449 327.636 238.593C327.78 238.737 327.861 238.932 327.861 239.136C327.861 239.34 327.78 239.535 327.636 239.679C327.492 239.823 327.297 239.904 327.093 239.904V239.904Z" fill="#B5B9FF"/>
<path d="M87.495 127.205C88.9362 127.205 90.1045 126.036 90.1045 124.593C90.1045 123.15 88.9362 121.981 87.495 121.981C86.0538 121.981 84.8855 123.15 84.8855 124.593C84.8855 126.036 86.0538 127.205 87.495 127.205Z" fill="#231F20"/>
<path d="M96.6436 127.205C98.0848 127.205 99.2531 126.036 99.2531 124.593C99.2531 123.15 98.0848 121.981 96.6436 121.981C95.2024 121.981 94.0341 123.15 94.0341 124.593C94.0341 126.036 95.2024 127.205 96.6436 127.205Z" fill="white"/>
<path d="M105.792 127.205C107.233 127.205 108.402 126.036 108.402 124.593C108.402 123.15 107.233 121.981 105.792 121.981C104.351 121.981 103.183 123.15 103.183 124.593C103.183 126.036 104.351 127.205 105.792 127.205Z" fill="white"/>
<path d="M276.684 369.783H179.042L190.079 336.1H265.647L276.684 369.783Z" fill="white"/>
<path d="M276.684 370.552H179.042C178.92 370.556 178.799 370.53 178.689 370.477C178.579 370.424 178.484 370.345 178.411 370.247C178.339 370.148 178.291 370.034 178.273 369.913C178.254 369.792 178.266 369.668 178.306 369.553L189.342 335.869C189.391 335.712 189.49 335.576 189.622 335.479C189.755 335.382 189.915 335.33 190.079 335.331H265.647C265.811 335.33 265.971 335.382 266.104 335.479C266.237 335.576 266.335 335.712 266.384 335.869L277.421 369.553C277.46 369.668 277.472 369.792 277.453 369.913C277.435 370.034 277.387 370.148 277.315 370.247C277.242 370.345 277.147 370.424 277.037 370.477C276.927 370.53 276.806 370.556 276.684 370.552V370.552ZM180.102 369.015H275.625L265.094 336.868H190.632L180.102 369.015Z" fill="#231F20"/>
<path d="M284.742 369.783H170.984C168.364 369.783 166.24 371.906 166.24 374.524C166.24 377.142 168.364 379.265 170.984 379.265H284.742C287.362 379.265 289.486 377.142 289.486 374.524C289.486 371.906 287.362 369.783 284.742 369.783Z" fill="white"/>
<path d="M284.758 380.048H170.984C169.522 380.048 168.12 379.467 167.087 378.433C166.054 377.398 165.473 375.995 165.473 374.532C165.473 373.069 166.054 371.665 167.087 370.631C168.12 369.596 169.522 369.015 170.984 369.015H284.758C286.219 369.015 287.621 369.596 288.654 370.631C289.688 371.665 290.269 373.069 290.269 374.532C290.269 375.995 289.688 377.398 288.654 378.433C287.621 379.467 286.219 380.048 284.758 380.048V380.048ZM170.984 370.552C169.929 370.552 168.918 370.971 168.172 371.718C167.427 372.464 167.008 373.476 167.008 374.532C167.008 375.587 167.427 376.6 168.172 377.346C168.918 378.092 169.929 378.512 170.984 378.512H284.758C285.812 378.512 286.823 378.092 287.569 377.346C288.315 376.6 288.734 375.587 288.734 374.532C288.734 373.476 288.315 372.464 287.569 371.718C286.823 370.971 285.812 370.552 284.758 370.552H170.984Z" fill="#231F20"/>
<path d="M181.974 360.855C183.509 360.026 268.088 344.567 268.088 344.567L265.309 336.1H189.741L181.974 360.855Z" fill="#231F20"/>
<path d="M181.959 361.624C181.783 361.622 181.614 361.557 181.483 361.439C181.372 361.343 181.291 361.215 181.253 361.073C181.215 360.93 181.22 360.78 181.268 360.64L189.035 335.885C189.079 335.732 189.172 335.598 189.3 335.503C189.427 335.409 189.583 335.359 189.741 335.362H265.309C265.466 335.358 265.62 335.406 265.747 335.497C265.875 335.589 265.969 335.719 266.015 335.869L268.794 344.321C268.824 344.423 268.832 344.53 268.818 344.635C268.804 344.741 268.769 344.842 268.714 344.933C268.659 345.024 268.586 345.103 268.5 345.164C268.413 345.225 268.315 345.268 268.211 345.289C245.032 349.53 184.384 360.732 182.251 361.547C182.159 361.59 182.06 361.616 181.959 361.624V361.624ZM190.34 336.853L183.126 359.826C193.287 357.521 252.477 346.672 267.151 343.983L264.818 336.853H190.34Z" fill="#231F20"/>
</svg>
