<svg width="21" height="21" viewBox="0 0 15 15" fill="none" xmlns="http://www.w3.org/2000/svg">
<g clip-path="url(#clip0)">
<path fill-rule="evenodd" clip-rule="evenodd" d="M13.2694 0H1.73063C0.775 0 0 0.775 0 1.73063V13.2681C0 14.225 0.775 15 1.73063 15H13.27C14.2256 15 15 14.225 15 13.2681V1.73063C15 0.775 14.2256 0 13.2694 0V0ZM7.5 4.61563C9.09313 4.61563 10.385 5.90625 10.385 7.5C10.385 9.09313 9.09313 10.385 7.5 10.385C5.90688 10.385 4.61563 9.0925 4.61563 7.5C4.61563 5.90625 5.90688 4.61563 7.5 4.61563ZM13.125 12.5487C13.125 12.8669 12.8669 13.125 12.5475 13.125H2.4525C2.13313 13.125 1.875 12.8669 1.875 12.5487V6.25H3.06062C3.00563 6.44688 2.965 6.65 2.93563 6.85687C2.90438 7.0675 2.885 7.28125 2.885 7.5C2.885 10.0494 4.95125 12.1156 7.5 12.1156C10.0487 12.1156 12.115 10.0494 12.115 7.5C12.115 7.28125 12.0956 7.0675 12.0644 6.8575C12.035 6.65063 11.9944 6.4475 11.9394 6.25063H13.125V12.5487ZM13.125 3.81125C13.125 4.12937 12.8669 4.38812 12.5475 4.38812H11.1888C10.8694 4.38812 10.6119 4.12937 10.6119 3.81125V2.45187C10.6119 2.13313 10.8694 1.875 11.1888 1.875H12.5475C12.8669 1.875 13.125 2.13313 13.125 2.45187V3.81125Z" fill="#3CE3A5"/>
</g>
<defs>
<clipPath id="clip0">
<rect width="15" height="15" fill="white"/>
</clipPath>
</defs>
</svg>
