<svg width="21" height="21" viewBox="0 0 15 15" fill="none" xmlns="http://www.w3.org/2000/svg">
<path d="M7.5 0C3.35875 0 0 3.35813 0 7.5C0 10.8138 2.14875 13.625 5.12937 14.6169C5.50375 14.6862 5.625 14.4537 5.625 14.2562V12.86C3.53875 13.3138 3.10437 11.975 3.10437 11.975C2.76312 11.1081 2.27125 10.8775 2.27125 10.8775C1.59063 10.4119 2.32312 10.4219 2.32312 10.4219C3.07625 10.4744 3.4725 11.195 3.4725 11.195C4.14125 12.3413 5.22688 12.01 5.655 11.8181C5.72188 11.3338 5.91625 11.0025 6.13125 10.8156C4.46563 10.625 2.71438 9.98187 2.71438 7.10875C2.71438 6.28937 3.0075 5.62063 3.48688 5.09562C3.40937 4.90625 3.1525 4.14313 3.56 3.11063C3.56 3.11063 4.19 2.90937 5.62313 3.87937C6.22125 3.71312 6.8625 3.63 7.5 3.62687C8.1375 3.63 8.77938 3.71312 9.37875 3.87937C10.8106 2.90937 11.4394 3.11063 11.4394 3.11063C11.8475 4.14375 11.5906 4.90688 11.5131 5.09562C11.9944 5.62063 12.285 6.29 12.285 7.10875C12.285 9.98938 10.5306 10.6237 8.86063 10.8094C9.12938 11.0419 9.375 11.4981 9.375 12.1981V14.2562C9.375 14.4556 9.495 14.69 9.87562 14.6163C12.8537 13.6231 15 10.8125 15 7.5C15 3.35813 11.6419 0 7.5 0Z" fill="#FB3454"/>
</svg>
