<svg width="557" height="317" viewBox="0 0 557 317" fill="none" xmlns="http://www.w3.org/2000/svg">
<path d="M97.3298 220.388C133.307 220.388 162.472 191.223 162.472 155.246C162.472 119.27 133.307 90.1045 97.3298 90.1045C61.3529 90.1045 32.1879 119.27 32.1879 155.246C32.1879 191.223 61.3529 220.388 97.3298 220.388Z" fill="#FFEA2B"/>
<path d="M97.366 221.311C81.5271 221.328 66.2097 215.653 54.206 205.319C42.2023 194.986 34.3118 180.682 31.973 165.017C29.6341 149.352 33.0028 133.368 41.4647 119.979C49.9266 106.59 62.9183 96.6877 78.0714 92.0774C94.8273 86.9713 112.925 88.7286 128.386 96.9629C143.846 105.197 155.404 119.234 160.517 135.988V135.988C163.525 145.859 164.179 156.298 162.426 166.468C160.673 176.637 156.563 186.255 150.424 194.549C144.284 202.844 136.287 209.585 127.074 214.233C117.86 218.88 107.685 221.304 97.366 221.311V221.311ZM97.366 90.9914C88.1248 90.9804 78.9899 92.9628 70.5846 96.8035C62.1793 100.644 54.7013 106.253 48.6608 113.246C42.6203 120.24 38.1595 128.455 35.5827 137.329C33.0058 146.204 32.3736 155.53 33.7291 164.671C35.0847 173.813 38.3961 182.554 43.4374 190.299C48.4787 198.044 55.1313 204.611 62.9414 209.551C70.7515 214.49 79.5353 217.688 88.6934 218.924C97.8516 220.16 107.169 219.406 116.009 216.714C124.08 214.257 131.588 210.233 138.104 204.872C144.619 199.512 150.015 192.92 153.982 185.474C157.949 178.027 160.409 169.872 161.223 161.474C162.037 153.077 161.188 144.601 158.725 136.531V136.531C154.704 123.382 146.576 111.866 135.535 103.671C124.493 95.4755 111.117 91.0321 97.366 90.9914V90.9914Z" fill="#D1D3D4"/>
<path d="M38.7582 198.904C17.183 198.904 3.49936 193.872 0.748164 184.713C-2.43744 174.306 9.03796 160.495 32.206 146.794C32.4148 146.671 32.6637 146.637 32.8979 146.698C33.1321 146.759 33.3325 146.911 33.4549 147.119C33.5773 147.328 33.6117 147.577 33.5506 147.811C33.4895 148.046 33.3379 148.246 33.1291 148.368C11.0652 161.4 -0.392141 174.794 2.46766 184.188C5.32746 193.582 22.3777 198.306 47.8987 196.858C67.8449 195.401 87.5548 191.635 106.633 185.636C125.811 179.947 144.264 172.051 161.621 162.106C183.667 149.074 195.124 135.68 192.264 126.286C189.404 116.893 172.354 112.168 146.833 113.616C146.715 113.626 146.595 113.612 146.483 113.574C146.37 113.536 146.266 113.475 146.178 113.395C146.09 113.315 146.019 113.218 145.97 113.11C145.921 113.002 145.894 112.885 145.892 112.766C145.885 112.647 145.901 112.528 145.94 112.415C145.979 112.302 146.039 112.199 146.118 112.109C146.197 112.02 146.293 111.948 146.4 111.896C146.507 111.844 146.624 111.813 146.743 111.806C173.603 110.25 190.816 115.318 194.002 125.725C197.187 136.133 185.694 149.943 162.544 163.627C145.057 173.592 126.47 181.488 107.158 187.157C87.9455 193.205 68.0956 197.001 48.0073 198.469C44.7674 198.813 41.6904 198.904 38.7582 198.904Z" fill="#D1D3D4"/>
<path d="M52.9666 120.404C52.7628 120.401 52.5655 120.331 52.4055 120.205C52.2191 120.055 52.0992 119.838 52.0721 119.601C52.045 119.364 52.1128 119.125 52.2607 118.938C54.1151 116.61 56.2836 114.551 58.7043 112.82C58.9002 112.683 59.1417 112.626 59.3781 112.664C59.6144 112.701 59.8271 112.828 59.9714 113.019C60.0408 113.116 60.0903 113.226 60.117 113.343C60.1436 113.459 60.147 113.58 60.1268 113.698C60.1066 113.816 60.0633 113.928 59.9993 114.029C59.9353 114.13 59.852 114.217 59.7542 114.286C57.475 115.927 55.4291 117.869 53.6725 120.06C53.5892 120.168 53.4821 120.255 53.3597 120.314C53.2373 120.374 53.1028 120.405 52.9666 120.404V120.404Z" fill="#D1D3D4"/>
<path d="M53.0752 134.938H52.8581C52.7427 134.909 52.6342 134.857 52.539 134.785C52.4438 134.714 52.3636 134.624 52.303 134.521C52.2425 134.419 52.2028 134.305 52.1862 134.187C52.1697 134.069 52.1765 133.949 52.2065 133.834C52.8811 131.288 54.0428 128.897 55.6274 126.793C55.7774 126.604 55.9945 126.479 56.2337 126.446C56.4729 126.412 56.7159 126.472 56.9124 126.612C57.1017 126.759 57.2251 126.975 57.2556 127.212C57.2861 127.45 57.2213 127.689 57.0753 127.879C55.6323 129.793 54.575 131.969 53.9622 134.287C53.9065 134.478 53.7895 134.645 53.6291 134.763C53.4688 134.881 53.2741 134.942 53.0752 134.938Z" fill="#D1D3D4"/>
<path d="M42.7944 142.468C42.6987 142.486 42.6005 142.486 42.5048 142.468C42.2789 142.386 42.0938 142.219 41.9891 142.003C41.8843 141.786 41.868 141.538 41.9437 141.309L43.5727 136.531C43.6519 136.303 43.8184 136.116 44.0357 136.011C44.2529 135.905 44.5031 135.891 44.7311 135.97C44.9591 136.049 45.1463 136.216 45.2516 136.433C45.3568 136.65 45.3714 136.9 45.2922 137.128L43.6632 141.907C43.589 142.075 43.4672 142.218 43.3128 142.317C43.1584 142.417 42.9782 142.469 42.7944 142.468V142.468Z" fill="#D1D3D4"/>
<path d="M506.824 309.585C533.564 309.585 555.242 287.908 555.242 261.168C555.242 234.427 533.564 212.75 506.824 212.75C480.084 212.75 458.407 234.427 458.407 261.168C458.407 287.908 480.084 309.585 506.824 309.585Z" fill="#E72B4D"/>
<path d="M506.824 310.49C497.065 310.494 487.525 307.602 479.41 302.181C471.295 296.761 464.97 289.055 461.236 280.038C457.503 271.022 456.527 261.1 458.434 251.53C460.341 241.959 465.045 233.169 471.949 226.272C478.853 219.375 487.649 214.682 497.221 212.785C506.794 210.889 516.715 211.875 525.727 215.619C534.739 219.362 542.438 225.695 547.85 233.816C553.262 241.937 556.143 251.481 556.128 261.24C556.095 274.301 550.888 286.817 541.647 296.047C532.407 305.278 519.885 310.471 506.824 310.49ZM506.824 213.655C497.429 213.652 488.244 216.433 480.43 221.649C472.616 226.864 466.523 234.279 462.922 242.956C459.321 251.633 458.374 261.183 460.199 270.399C462.024 279.615 466.541 288.083 473.178 294.732C479.814 301.381 488.274 305.914 497.486 307.757C506.698 309.6 516.25 308.67 524.934 305.086C533.618 301.501 541.044 295.423 546.275 287.619C551.505 279.814 554.304 270.635 554.318 261.24C554.323 248.634 549.324 236.541 540.419 227.619C531.513 218.697 519.43 213.674 506.824 213.655V213.655Z" fill="#D1D3D4"/>
<path d="M546.445 261.457C546.294 261.456 546.145 261.419 546.011 261.349C545.906 261.292 545.813 261.215 545.738 261.122C545.663 261.029 545.608 260.923 545.574 260.808C545.54 260.694 545.53 260.574 545.542 260.456C545.555 260.337 545.591 260.222 545.649 260.118C546.669 258.166 546.89 255.894 546.264 253.783C546.228 253.664 546.217 253.539 546.229 253.416C546.242 253.292 546.278 253.173 546.337 253.063C546.396 252.954 546.476 252.858 546.572 252.779C546.668 252.701 546.779 252.642 546.898 252.606C547.016 252.571 547.141 252.559 547.265 252.571C547.388 252.584 547.508 252.621 547.617 252.679C547.726 252.738 547.823 252.818 547.901 252.914C547.98 253.01 548.038 253.121 548.074 253.24C548.854 255.821 548.58 258.606 547.314 260.987C547.229 261.139 547.102 261.265 546.948 261.348C546.794 261.431 546.62 261.469 546.445 261.457V261.457Z" fill="#D1D3D4"/>
<path d="M545.884 274.091H545.594C545.482 274.054 545.377 273.995 545.288 273.918C545.198 273.84 545.125 273.746 545.073 273.639C545.021 273.533 544.99 273.417 544.983 273.299C544.977 273.181 544.993 273.062 545.033 272.951C545.636 271.168 545.989 269.31 546.083 267.43C546.087 267.31 546.116 267.193 546.167 267.085C546.219 266.976 546.291 266.879 546.381 266.8C546.47 266.72 546.575 266.66 546.689 266.622C546.803 266.584 546.923 266.57 547.042 266.58C547.16 266.584 547.276 266.612 547.383 266.662C547.491 266.712 547.587 266.783 547.666 266.871C547.745 266.959 547.806 267.061 547.845 267.173C547.884 267.285 547.9 267.403 547.893 267.521C547.787 269.566 547.403 271.588 546.753 273.53C546.683 273.701 546.562 273.846 546.406 273.947C546.251 274.047 546.069 274.097 545.884 274.091V274.091Z" fill="#D1D3D4"/>
<path d="M536.11 279.195C535.944 279.199 535.781 279.155 535.639 279.068C535.437 278.945 535.291 278.746 535.234 278.516C535.176 278.286 535.211 278.042 535.332 277.838C536.418 276.017 537.339 274.103 538.083 272.118C538.123 272.007 538.185 271.904 538.266 271.817C538.346 271.73 538.443 271.66 538.551 271.611C538.659 271.562 538.776 271.535 538.895 271.532C539.013 271.529 539.131 271.55 539.241 271.593C539.467 271.675 539.651 271.843 539.753 272.06C539.854 272.277 539.866 272.526 539.784 272.752C539.003 274.838 538.034 276.85 536.888 278.761C536.808 278.895 536.694 279.007 536.558 279.083C536.421 279.159 536.267 279.198 536.11 279.195V279.195Z" fill="#D1D3D4"/>
<path d="M131.774 34.99L134.833 47.2075L147.069 50.2664L134.833 53.3434L131.774 65.5609L128.697 53.3434L116.48 50.2664L128.697 47.2075L131.774 34.99Z" fill="#D1D3D4"/>
<path d="M435.329 292.336L437.755 301.983L447.402 304.409L437.755 306.816L435.329 316.463L432.922 306.816L423.275 304.409L432.922 301.983L435.329 292.336Z" fill="#D1D3D4"/>
<path d="M482.968 13.3967L484.163 18.2113L488.996 19.424L484.163 20.6367L482.968 25.4513L481.756 20.6367L476.923 19.424L481.756 18.2113L482.968 13.3967Z" fill="#D1D3D4"/>
<path d="M79.827 260.226L81.0216 265.059L85.8543 266.272L81.0216 267.466L79.827 272.299L78.6143 267.466L73.7816 266.272L78.6143 265.059L79.827 260.226Z" fill="#D1D3D4"/>
<path d="M59.2292 0.708618L60.4419 5.54131L65.2565 6.75402L60.4419 7.94861L59.2292 12.7813L58.0165 7.94861L53.2019 6.75402L58.0165 5.54131L59.2292 0.708618Z" fill="#D1D3D4"/>
<path d="M181.404 13.0528L182.816 18.7L188.445 20.1118L182.816 21.5236L181.404 27.1708L179.974 21.5236L174.345 20.1118L179.974 18.7L181.404 13.0528Z" fill="#D1D3D4"/>
<path d="M454.443 185.944L455.873 191.573L461.502 193.003L455.873 194.415L454.443 200.044L453.031 194.415L447.402 193.003L453.031 191.573L454.443 185.944Z" fill="#D1D3D4"/>
<path d="M147.069 309.585C158.714 309.585 168.155 300.144 168.155 288.499C168.155 276.853 158.714 267.412 147.069 267.412C135.423 267.412 125.982 276.853 125.982 288.499C125.982 300.144 135.423 309.585 147.069 309.585Z" fill="white"/>
<path d="M147.069 310.49C142.718 310.494 138.465 309.207 134.846 306.793C131.227 304.378 128.405 300.945 126.738 296.927C125.071 292.909 124.633 288.487 125.479 284.219C126.326 279.952 128.419 276.032 131.494 272.955C134.569 269.877 138.487 267.781 142.753 266.931C147.02 266.081 151.443 266.515 155.462 268.179C159.482 269.843 162.917 272.662 165.334 276.279C167.752 279.896 169.042 284.148 169.042 288.499C169.037 294.327 166.721 299.915 162.602 304.037C158.483 308.16 152.896 310.481 147.069 310.49V310.49ZM147.069 268.335C143.076 268.332 139.171 269.513 135.85 271.729C132.528 273.945 129.938 277.097 128.409 280.785C126.879 284.474 126.478 288.533 127.256 292.449C128.034 296.366 129.956 299.964 132.78 302.787C135.604 305.611 139.201 307.533 143.118 308.311C147.034 309.089 151.094 308.688 154.782 307.158C158.47 305.629 161.622 303.039 163.838 299.718C166.055 296.396 167.236 292.492 167.232 288.499C167.222 283.154 165.095 278.031 161.316 274.252C157.536 270.472 152.413 268.345 147.069 268.335V268.335Z" fill="#D1D3D4"/>
</svg>
